<?xml version="1.0" encoding="UTF-8"?>
<svg id="Capa_2" data-name="Capa 2" xmlns="http://www.w3.org/2000/svg" xmlns:xlink="http://www.w3.org/1999/xlink" viewBox="0 0 328.66 508.94">
  <defs>
    <style>
      .cls-1 {
        isolation: isolate;
      }

      .cls-2 {
        fill: #fff;
      }

      .cls-3 {
        fill: #0a0a0a;
      }

      .cls-4 {
        clip-path: url(#clippath);
      }
    </style>
    <clipPath id="clippath">
      <polygon points="210.71 267.94 238.16 283.79 238.16 334.04 187.83 326.74 210.71 267.94"/>
    </clipPath>
  </defs>
  <g id="Capa_2-2" data-name="Capa 2">
    <g>
      <g>
        <g id="_10" data-name="10">
          <g id="_10-2" data-name="10">
            <g>
              <g class="cls-1">
                <g>
                  <path d="M43.5,327.02c-.74-.43-1.08-1.42-.94-2.71,1.89-18.63,12.46-46.65,14.13-50.98l67.3,39.04c-1.58,4.1-12.29,32.44-14.19,51.18-.09.8,0,1.5.23,2.06l-66.53-38.59Z"/>
                  <path class="cls-2" d="M56.82,273.69l66.86,38.78c-1.82,4.73-12.24,32.49-14.13,51.04-.06.57-.04,1.09.05,1.56l-65.98-38.27c-.65-.38-.95-1.28-.82-2.47,1.85-18.22,12.05-45.53,14.01-50.64M56.56,272.96c-.61,1.58-12.26,31.67-14.25,51.32-.16,1.47.28,2.5,1.06,2.95l67.74,39.29c-.78-.46-1.23-1.49-1.06-2.95,1.99-19.65,13.64-49.73,14.25-51.32l-67.74-39.29h0Z"/>
                </g>
                <g>
                  <path d="M112.15,366.54c-.53,0-.98-.19-1.3-.56-.46-.52-.66-1.36-.54-2.39,1.93-19.02,12.98-48,14.23-51.24l.17-.44-.45.09-24.14,5.41,44.81-163.14.04,193.76-31.18,18c-.57.33-1.13.5-1.62.5h0Z"/>
                  <path class="cls-2" d="M144.67,156.13l.04,191.76-31.05,17.93c-.53.3-1.04.46-1.5.46s-.84-.16-1.12-.47c-.42-.46-.59-1.24-.48-2.2,1.93-19.05,12.97-47.95,14.22-51.19l.34-.87-.91.2-23.73,5.32,44.2-160.95M145.17,152.43l-45.41,165.33,24.54-5.51c-.61,1.58-12.26,31.67-14.25,51.32-.22,2.03.7,3.22,2.1,3.22.53,0,1.12-.17,1.75-.53l31.3-18.07-.04-195.75h0Z"/>
                </g>
              </g>
              <g>
                <g>
                  <polygon points=".29 270.05 50.86 52.62 150.74 110.67 100.17 328.1 .29 270.05"/>
                  <path class="cls-2" d="M51.02,53.01l99.43,57.78-50.45,216.92L.57,269.93,51.02,53.01M50.69,52.24L0,270.18l100.33,58.31,50.69-217.94L50.69,52.24h0Z"/>
                </g>
                <g>
                  <polygon class="cls-2" points="6 267.58 54.2 60.36 145.02 113.14 96.82 320.37 6 267.58"/>
                  <path class="cls-2" d="M54.37,60.74l90.37,52.52-48.08,206.72L6.29,267.46,54.37,60.74M54.03,59.97L5.72,267.71l91.27,53.05,48.32-207.74L54.03,59.97h0Z"/>
                </g>
                <g>
                  <polygon points="51.37 52.35 55.72 51.41 155.41 109.34 151.07 110.28 51.37 52.35"/>
                  <path class="cls-2" d="M55.67,51.67l99.05,57.56-3.62.78L52.06,52.45l3.62-.78M55.76,51.14l-5.07,1.1,100.33,58.31,5.07-1.1L55.76,51.14h0Z"/>
                </g>
                <g>
                  <polygon points="151.23 110.76 155.76 109.78 105.19 327.18 100.67 328.16 151.23 110.76"/>
                  <path class="cls-2" d="M155.43,110.11l-50.44,216.86-3.99.86,50.44-216.86,3.99-.86M156.09,109.45l-5.07,1.1-50.69,217.94,5.07-1.1,50.69-217.94h0Z"/>
                </g>
              </g>
            </g>
          </g>
        </g>
        <polyline class="cls-3" points="103.54 308.18 96.99 320.75 123.86 205.2 126.96 205.76"/>
        <polygon points="132.74 209.87 111.73 300.2 124.39 298.02 140.61 231.81 139.02 213.56 132.74 209.87"/>
        <g>
          <g>
            <g>
              <g>
                <g>
                  <polygon class="cls-2" points="42.74 256.37 44.9 241.08 53.86 246.5 49.56 260.5 42.74 256.37"/>
                  <path d="M44.99,241.28l8.72,5.27-4.23,13.75-6.61-4,2.12-15.03M44.8,240.87l-2.19,15.56,7.03,4.25,4.38-14.24-9.21-5.57h0Z"/>
                </g>
                <path d="M44.57,241.18l9.5,5.74c.27.16.55.04.62-.28s-.09-.71-.36-.87l-9.5-5.74c-.27-.16-.55-.04-.62.28s.09.71.36.87Z"/>
              </g>
              <g>
                <g>
                  <polygon class="cls-2" points="50.29 222.11 52.45 206.82 61.42 212.24 57.11 226.24 50.29 222.11"/>
                  <path d="M52.54,207.02l8.72,5.27-4.23,13.75-6.61-4,2.12-15.03M52.35,206.61l-2.19,15.56,7.03,4.25,4.38-14.24-9.21-5.57h0Z"/>
                </g>
                <path d="M52.12,206.92l9.5,5.74c.27.16.55.04.62-.28s-.09-.71-.36-.87l-9.5-5.74c-.27-.16-.55-.04-.62.28s.09.71.36.87Z"/>
              </g>
              <g>
                <g>
                  <polygon class="cls-2" points="57.84 187.86 60 172.56 68.96 177.98 64.67 191.98 57.84 187.86"/>
                  <path d="M60.09,172.77l8.72,5.27-4.23,13.75-6.62-4,2.12-15.03M59.9,172.36l-2.19,15.56,7.03,4.25,4.38-14.24-9.21-5.57h0Z"/>
                </g>
                <path d="M59.67,172.67l9.5,5.74c.27.16.55.04.62-.28s-.09-.71-.36-.87l-9.5-5.74c-.27-.16-.55-.04-.62.28s.09.71.36.87Z"/>
              </g>
              <path d="M50.29,165.31l4.53,2.74-.18.79-4.53-2.74.18-.79ZM46.28,163.79l2.92,1.77.18-.79-2.92-1.77-.18.79ZM42.69,160.71l-.18.79,2.86,1.73.18-.79-2.86-1.73ZM39.57,159.73l2.03,1.23.18-.79-2.03-1.23-.18.79ZM37.51,158.48l1.15.69.18-.79-1.15-.69-.18.79ZM51.59,169.44l2.51,1.52.18-.79-2.51-1.52-.18.79ZM47.89,167.2l2.79,1.69.18-.79-2.79-1.69-.17.79ZM44.67,164.36l-.18.79,2.48,1.5.18-.79-2.48-1.5ZM40.56,162.78l3.02,1.83.17-.79-3.02-1.83-.18.79ZM53,172.74l.69.42.18-.79-.69-.42-.17.79ZM45.33,168.1l6.75,4.08.18-.79-6.75-4.08-.18.79ZM41.73,165.03l-.18.79,2.86,1.73.18-.79-2.86-1.73ZM38.62,164.04l2.03,1.23.17-.79-2.03-1.23-.18.79ZM36.55,162.8l1.15.69.17-.79-1.15-.69-.18.79Z"/>
              <path d="M49.96,176.87l2.51,1.52-.17.79-2.51-1.52.18-.79ZM46.08,175.42l2.79,1.69.18-.79-2.79-1.69-.18.79ZM42.86,172.58l-.18.79,2.48,1.5.18-.79-2.48-1.5ZM38.75,170.99l3.02,1.83.18-.79-3.02-1.83-.18.79ZM35.22,168.86l2.62,1.58.17-.79-2.62-1.58-.18.79ZM47,178.42l4.88,2.95.17-.79-4.88-2.95-.18.79ZM43.52,176.32l2.56,1.55.18-.79-2.56-1.55-.17.79ZM39.92,173.24l-.18.79,2.86,1.73.17-.79-2.86-1.73ZM50.09,182.73l1.26.76.17-.79-1.26-.76-.18.79ZM45.13,179.73l4.05,2.45.18-.79-4.05-2.45-.18.79ZM41.13,176.42l-.18.79,3.26,1.97.18-.79-3.26-1.97Z"/>
              <path d="M42.69,199.79l4.53,2.74-.17.79-4.53-2.74.18-.79ZM38.68,198.27l2.92,1.77.18-.79-2.92-1.77-.17.79ZM35.09,195.19l-.18.79,2.86,1.73.18-.79-2.86-1.73ZM31.97,194.21l2.03,1.23.18-.79-2.03-1.23-.18.79ZM29.91,192.96l1.15.69.18-.79-1.15-.69-.18.79ZM43.99,203.92l2.51,1.52.18-.79-2.51-1.52-.18.79ZM40.29,201.68l2.79,1.69.18-.79-2.79-1.69-.17.79ZM37.07,198.84l-.18.79,2.48,1.5.17-.79-2.48-1.5Z"/>
              <path d="M40.87,208.05l4.53,2.74-.18.79-4.53-2.74.18-.79ZM36.86,206.52l2.92,1.77.18-.79-2.92-1.77-.18.79ZM33.27,203.45l-.17.79,2.86,1.73.18-.79-2.86-1.73ZM30.15,202.46l2.03,1.23.17-.79-2.03-1.23-.17.79ZM28.09,201.22l1.15.69.17-.79-1.15-.69-.18.79ZM42.17,212.18l2.51,1.52.18-.79-2.51-1.52-.18.79ZM38.47,209.94l2.79,1.69.17-.79-2.79-1.69-.18.79ZM35.25,207.09l-.17.79,2.48,1.5.18-.79-2.48-1.5ZM31.14,205.51l3.02,1.83.18-.79-3.02-1.83-.18.79ZM27.61,203.37l2.62,1.58.18-.79-2.62-1.58-.18.79ZM43.58,215.47l.69.42.18-.79-.69-.42-.18.79ZM35.91,210.84l6.75,4.08.18-.79-6.75-4.08-.18.79ZM32.32,207.76l-.17.79,2.86,1.73.18-.79-2.86-1.73Z"/>
              <path d="M37.02,235.55l2.51,1.52-.18.79-2.51-1.52.18-.79ZM33.14,234.11l2.79,1.69.17-.79-2.79-1.69-.18.79ZM29.93,231.26l-.17.79,2.48,1.5.18-.79-2.48-1.5ZM25.82,229.68l3.02,1.83.17-.79-3.02-1.83-.18.79ZM22.28,227.54l2.62,1.58.18-.79-2.62-1.58-.18.79ZM34.06,237.11l4.88,2.95.18-.79-4.88-2.95-.17.79ZM30.59,235.01l2.56,1.55.18-.79-2.56-1.55-.18.79ZM26.99,231.93l-.17.79,2.86,1.73.18-.79-2.86-1.73ZM37.15,241.42l1.26.76.18-.79-1.26-.76-.18.79ZM32.19,238.42l4.05,2.45.18-.79-4.05-2.45-.18.79ZM28.97,235.58l-.17.79,2.48,1.5.18-.79-2.48-1.5Z"/>
              <path d="M32.76,244.86l4.53,2.74-.18.79-4.53-2.74.18-.79ZM28.75,243.33l2.92,1.77.18-.79-2.92-1.77-.18.79ZM25.15,240.26l-.18.79,2.86,1.73.18-.79-2.86-1.73ZM22.03,239.27l2.03,1.23.17-.79-2.03-1.23-.18.79ZM19.97,238.03l1.15.69.17-.79-1.15-.69-.18.79ZM34.06,248.99l2.51,1.52.18-.79-2.51-1.52-.18.79ZM30.36,246.75l2.79,1.69.17-.79-2.79-1.69-.18.79ZM27.14,243.9l-.17.79,2.48,1.5.18-.79-2.48-1.5Z"/>
            </g>
            <g>
              <g>
                <g>
                  <polygon class="cls-2" points="87.74 283.57 89.9 268.28 98.86 273.7 94.56 287.7 87.74 283.57"/>
                  <path d="M89.99,268.49l8.72,5.27-4.23,13.75-6.62-4,2.12-15.03M89.8,268.08l-2.19,15.56,7.03,4.25,4.38-14.24-9.21-5.57h0Z"/>
                </g>
                <path d="M89.57,268.39l9.5,5.74c.27.16.55.04.62-.28s-.09-.71-.36-.87l-9.5-5.74c-.27-.16-.55-.04-.62.28s.09.71.36.87Z"/>
              </g>
              <g>
                <g>
                  <polygon class="cls-2" points="95.29 249.32 97.45 234.02 106.42 239.45 102.11 253.44 95.29 249.32"/>
                  <path d="M97.54,234.23l8.72,5.27-4.23,13.75-6.62-4,2.12-15.03M97.35,233.82l-2.19,15.56,7.03,4.25,4.38-14.24-9.21-5.57h0Z"/>
                </g>
                <path d="M97.12,234.13l9.5,5.74c.27.16.55.04.62-.28s-.09-.71-.36-.87l-9.5-5.74c-.27-.16-.55-.04-.62.28s.09.71.36.87Z"/>
              </g>
              <g>
                <g>
                  <polygon class="cls-2" points="102.84 215.06 105 199.77 113.96 205.19 109.67 219.19 102.84 215.06"/>
                  <path d="M105.09,199.97l8.72,5.27-4.23,13.75-6.62-4,2.12-15.03M104.9,199.56l-2.19,15.56,7.03,4.25,4.38-14.24-9.21-5.57h0Z"/>
                </g>
                <path d="M104.67,199.87l9.5,5.74c.27.16.55.04.62-.28s-.09-.71-.36-.87l-9.5-5.74c-.27-.16-.55-.04-.62.28s.09.71.36.87Z"/>
              </g>
              <path d="M95.29,192.52l4.53,2.74-.18.79-4.53-2.74.18-.79ZM91.28,190.99l2.92,1.77.18-.79-2.92-1.77-.18.79ZM87.69,187.92l-.18.79,2.86,1.73.18-.79-2.86-1.73ZM84.57,186.93l2.03,1.23.18-.79-2.03-1.23-.18.79ZM82.51,185.69l1.15.69.18-.79-1.15-.69-.18.79ZM96.59,196.65l2.51,1.52.18-.79-2.51-1.52-.18.79ZM92.89,194.41l2.79,1.69.18-.79-2.79-1.69-.17.79ZM89.67,191.56l-.17.79,2.48,1.5.18-.79-2.48-1.5ZM85.56,189.98l3.02,1.83.17-.79-3.02-1.83-.18.79ZM98,199.94l.69.42.18-.79-.69-.42-.17.79ZM90.33,195.31l6.75,4.08.18-.79-6.75-4.08-.18.79ZM86.73,192.23l-.18.79,2.86,1.73.18-.79-2.86-1.73ZM83.62,191.25l2.03,1.23.17-.79-2.03-1.23-.18.79ZM81.56,190l1.15.69.17-.79-1.15-.69-.18.79Z"/>
              <path d="M94.96,204.07l2.51,1.52-.17.79-2.51-1.52.18-.79ZM91.08,202.62l2.79,1.69.18-.79-2.79-1.69-.18.79ZM87.86,199.78l-.18.79,2.48,1.5.18-.79-2.48-1.5ZM83.75,198.2l3.02,1.83.18-.79-3.02-1.83-.17.79ZM80.22,196.06l2.62,1.58.17-.79-2.62-1.58-.18.79ZM92,205.63l4.88,2.95.17-.79-4.88-2.95-.18.79ZM88.52,203.52l2.56,1.55.18-.79-2.56-1.55-.17.79ZM84.92,200.45l-.18.79,2.86,1.73.17-.79-2.86-1.73ZM95.09,209.94l1.26.76.17-.79-1.26-.76-.18.79ZM90.13,206.94l4.05,2.45.18-.79-4.05-2.45-.18.79ZM86.13,203.62l-.18.79,3.26,1.97.17-.79-3.26-1.97Z"/>
              <path d="M87.69,226.99l4.53,2.74-.17.79-4.53-2.74.18-.79ZM83.68,225.47l2.92,1.77.18-.79-2.92-1.77-.17.79ZM80.09,222.4l-.18.79,2.86,1.73.18-.79-2.86-1.73ZM76.97,221.41l2.03,1.23.18-.79-2.03-1.23-.18.79ZM74.91,220.17l1.15.69.18-.79-1.15-.69-.18.79ZM88.99,231.13l2.51,1.52.18-.79-2.51-1.52-.18.79ZM85.29,228.89l2.79,1.69.18-.79-2.79-1.69-.17.79ZM82.07,226.04l-.18.79,2.48,1.5.17-.79-2.48-1.5Z"/>
              <path d="M85.87,235.25l4.53,2.74-.18.79-4.53-2.74.18-.79ZM81.86,233.73l2.92,1.77.17-.79-2.92-1.77-.18.79ZM78.27,230.65l-.17.79,2.86,1.73.18-.79-2.86-1.73ZM75.15,229.67l2.03,1.23.17-.79-2.03-1.23-.17.79ZM73.09,228.42l1.15.69.17-.79-1.15-.69-.17.79ZM87.17,239.38l2.51,1.52.18-.79-2.51-1.52-.18.79ZM83.47,237.14l2.79,1.69.17-.79-2.79-1.69-.18.79ZM80.25,234.3l-.17.79,2.48,1.5.18-.79-2.48-1.5ZM76.14,232.71l3.02,1.83.18-.79-3.02-1.83-.18.79ZM72.61,230.58l2.62,1.58.18-.79-2.62-1.58-.18.79ZM88.58,242.68l.69.42.18-.79-.69-.42-.18.79ZM80.91,238.04l6.75,4.08.18-.79-6.75-4.08-.18.79ZM77.32,234.97l-.17.79,2.86,1.73.18-.79-2.86-1.73Z"/>
              <path d="M82.02,262.76l2.51,1.52-.18.79-2.51-1.52.18-.79ZM78.14,261.31l2.79,1.69.17-.79-2.79-1.69-.18.79ZM74.93,258.47l-.17.79,2.48,1.5.18-.79-2.48-1.5ZM70.82,256.88l3.02,1.83.18-.79-3.02-1.83-.18.79ZM67.28,254.75l2.62,1.58.18-.79-2.62-1.58-.18.79ZM79.06,264.31l4.88,2.95.18-.79-4.88-2.95-.17.79ZM75.58,262.21l2.56,1.55.18-.79-2.56-1.55-.18.79ZM71.99,259.14l-.17.79,2.86,1.73.18-.79-2.86-1.73ZM82.15,268.63l1.26.76.18-.79-1.26-.76-.18.79ZM77.19,265.63l4.05,2.45.18-.79-4.05-2.45-.18.79ZM73.97,262.78l-.18.79,2.48,1.5.18-.79-2.48-1.5Z"/>
              <path d="M77.76,272.06l4.53,2.74-.18.79-4.53-2.74.18-.79ZM73.75,270.54l2.92,1.77.18-.79-2.92-1.77-.18.79ZM70.15,267.46l-.17.79,2.86,1.73.18-.79-2.86-1.73ZM67.03,266.48l2.03,1.23.17-.79-2.03-1.23-.18.79ZM64.97,265.23l1.15.69.17-.79-1.15-.69-.18.79ZM79.06,276.19l2.51,1.52.18-.79-2.51-1.52-.18.79ZM75.35,273.95l2.79,1.69.17-.79-2.79-1.69-.18.79ZM72.14,271.11l-.17.79,2.48,1.5.18-.79-2.48-1.5Z"/>
            </g>
          </g>
          <g>
            <g>
              <g>
                <g>
                  <polygon class="cls-2" points="65.92 151.23 68.07 135.93 77.04 141.35 72.74 155.35 65.92 151.23"/>
                  <path d="M68.17,136.14l8.72,5.27-4.23,13.75-6.61-4,2.12-15.02M67.97,135.73l-2.19,15.56,7.03,4.25,4.38-14.24-9.21-5.57h0Z"/>
                </g>
                <path d="M67.74,136.04l9.5,5.74c.27.16.55.04.62-.28s-.09-.71-.36-.87l-9.5-5.74c-.27-.16-.55-.04-.62.28s.09.71.36.87Z"/>
              </g>
              <g>
                <g>
                  <polygon class="cls-2" points="73.47 116.97 75.62 101.67 84.59 107.1 80.29 121.09 73.47 116.97"/>
                  <path d="M75.72,101.88l8.72,5.27-4.23,13.75-6.62-4,2.12-15.02M75.52,101.47l-2.19,15.56,7.03,4.25,4.38-14.24-9.21-5.57h0Z"/>
                </g>
                <path d="M75.3,101.78l9.5,5.74c.27.16.55.04.62-.28s-.09-.71-.36-.87l-9.5-5.74c-.27-.16-.55-.04-.62.28s.09.71.36.87Z"/>
              </g>
              <path d="M65.87,94.65l4.53,2.74-.18.79-4.53-2.74.17-.79ZM61.86,93.12l2.92,1.77.18-.79-2.92-1.77-.18.79ZM58.26,90.05l-.18.79,2.86,1.73.18-.79-2.86-1.73ZM55.14,89.06l2.03,1.23.18-.79-2.03-1.23-.18.79ZM53.08,87.82l1.15.69.18-.79-1.15-.69-.18.79ZM67.17,98.78l2.51,1.52.18-.79-2.51-1.52-.18.79ZM63.46,96.54l2.79,1.69.18-.79-2.79-1.69-.18.79ZM60.25,93.69l-.18.79,2.48,1.5.18-.79-2.48-1.5Z"/>
              <path d="M64.05,102.9l4.53,2.74-.17.79-4.53-2.74.18-.79ZM60.04,101.38l2.92,1.77.18-.79-2.92-1.77-.17.79ZM56.44,98.3l-.18.79,2.86,1.73.18-.79-2.86-1.73ZM53.32,97.32l2.03,1.23.18-.79-2.03-1.23-.18.79ZM51.26,96.07l1.15.69.18-.79-1.15-.69-.18.79ZM65.35,107.03l2.51,1.52.18-.79-2.51-1.52-.18.79ZM61.64,104.79l2.79,1.69.18-.79-2.79-1.69-.18.79ZM58.43,101.95l-.18.79,2.48,1.5.17-.79-2.48-1.5ZM54.32,100.36l3.02,1.83.18-.79-3.02-1.83-.17.79ZM50.79,98.23l2.62,1.58.18-.79-2.62-1.58-.17.79ZM66.76,110.33l.69.42.17-.79-.69-.42-.18.79ZM59.09,105.69l6.75,4.08.17-.79-6.75-4.08-.18.79ZM55.49,102.62l-.18.79,2.86,1.73.18-.79-2.86-1.73Z"/>
              <path d="M60.2,130.41l2.51,1.52-.17.79-2.51-1.52.18-.79ZM56.32,128.96l2.79,1.69.18-.79-2.79-1.69-.18.79ZM53.1,126.12l-.18.79,2.48,1.5.18-.79-2.48-1.5ZM48.99,124.53l3.02,1.83.18-.79-3.02-1.83-.17.79ZM45.46,122.4l2.62,1.58.17-.79-2.62-1.58-.17.79ZM57.24,131.96l4.88,2.95.17-.79-4.88-2.95-.18.79ZM53.76,129.86l2.56,1.55.18-.79-2.56-1.55-.17.79ZM50.16,126.79l-.18.79,2.86,1.73.18-.79-2.86-1.73ZM60.33,136.28l1.26.76.18-.79-1.26-.76-.18.79ZM55.37,133.28l4.05,2.45.17-.79-4.05-2.45-.18.79ZM52.15,130.43l-.18.79,2.48,1.5.17-.79-2.48-1.5Z"/>
              <path d="M55.93,139.71l4.53,2.74-.17.79-4.53-2.74.18-.79ZM51.92,138.19l2.92,1.77.18-.79-2.92-1.77-.17.79ZM48.33,135.11l-.18.79,2.86,1.73.17-.79-2.86-1.73ZM45.21,134.13l2.03,1.23.18-.79-2.03-1.23-.18.79ZM43.15,132.88l1.15.69.18-.79-1.15-.69-.18.79ZM57.24,143.84l2.51,1.52.17-.79-2.51-1.52-.18.79ZM53.53,141.6l2.79,1.69.18-.79-2.79-1.69-.18.79ZM50.31,138.76l-.18.79,2.48,1.5.17-.79-2.48-1.5Z"/>
            </g>
            <g>
              <g>
                <g>
                  <polygon class="cls-2" points="110.92 178.43 113.07 163.14 122.04 168.56 117.74 182.55 110.92 178.43"/>
                  <path d="M113.17,163.34l8.72,5.27-4.23,13.75-6.62-4,2.12-15.02M112.97,162.93l-2.19,15.56,7.03,4.25,4.38-14.24-9.21-5.57h0Z"/>
                </g>
                <path d="M112.74,163.24l9.5,5.74c.27.16.55.04.62-.28s-.09-.71-.36-.87l-9.5-5.74c-.27-.16-.55-.04-.62.28s.09.71.36.87Z"/>
              </g>
              <g>
                <g>
                  <polygon class="cls-2" points="118.47 144.17 120.62 128.88 129.59 134.3 125.29 148.3 118.47 144.17"/>
                  <path d="M120.72,129.08l8.72,5.27-4.23,13.75-6.62-4,2.12-15.02M120.52,128.67l-2.19,15.56,7.03,4.25,4.38-14.24-9.21-5.57h0Z"/>
                </g>
                <path d="M120.29,128.98l9.5,5.74c.27.16.55.04.62-.28s-.09-.71-.36-.87l-9.5-5.74c-.27-.16-.55-.04-.62.28s.09.71.36.87Z"/>
              </g>
              <path d="M110.87,121.85l4.53,2.74-.18.79-4.53-2.74.17-.79ZM106.86,120.33l2.92,1.77.18-.79-2.92-1.77-.18.79ZM103.26,117.25l-.18.79,2.86,1.73.18-.79-2.86-1.73ZM100.14,116.27l2.03,1.23.18-.79-2.03-1.23-.18.79ZM98.08,115.02l1.15.69.18-.79-1.15-.69-.18.79ZM112.17,125.98l2.51,1.52.18-.79-2.51-1.52-.18.79ZM108.46,123.74l2.79,1.69.18-.79-2.79-1.69-.18.79ZM105.25,120.9l-.18.79,2.48,1.5.18-.79-2.48-1.5Z"/>
              <path d="M109.05,130.11l4.53,2.74-.17.79-4.53-2.74.18-.79ZM105.04,128.58l2.92,1.77.18-.79-2.92-1.77-.17.79ZM101.44,125.51l-.18.79,2.86,1.73.18-.79-2.86-1.73ZM98.32,124.52l2.03,1.23.18-.79-2.03-1.23-.18.79ZM96.26,123.28l1.15.69.18-.79-1.15-.69-.18.79ZM110.35,134.24l2.51,1.52.18-.79-2.51-1.52-.18.79ZM106.64,132l2.79,1.69.18-.79-2.79-1.69-.18.79ZM103.43,129.15l-.18.79,2.48,1.5.17-.79-2.48-1.5ZM99.32,127.57l3.02,1.83.18-.79-3.02-1.83-.17.79ZM95.79,125.43l2.62,1.58.18-.79-2.62-1.58-.17.79ZM111.76,137.53l.69.42.18-.79-.69-.42-.18.79ZM104.09,132.9l6.75,4.08.17-.79-6.75-4.08-.18.79ZM100.49,129.82l-.18.79,2.86,1.73.18-.79-2.86-1.73Z"/>
              <path d="M105.2,157.61l2.51,1.52-.17.79-2.51-1.52.18-.79ZM101.32,156.17l2.79,1.69.18-.79-2.79-1.69-.18.79ZM98.1,153.32l-.18.79,2.48,1.5.18-.79-2.48-1.5ZM93.99,151.74l3.02,1.83.18-.79-3.02-1.83-.17.79ZM90.46,149.6l2.62,1.58.18-.79-2.62-1.58-.17.79ZM102.24,159.17l4.88,2.95.17-.79-4.88-2.95-.18.79ZM98.76,157.07l2.56,1.55.18-.79-2.56-1.55-.17.79ZM95.16,153.99l-.18.79,2.86,1.73.18-.79-2.86-1.73ZM105.33,163.48l1.26.76.18-.79-1.26-.76-.18.79ZM100.36,160.48l4.05,2.45.17-.79-4.05-2.45-.18.79ZM97.15,157.64l-.18.79,2.48,1.5.17-.79-2.48-1.5Z"/>
              <path d="M100.93,166.92l4.53,2.74-.17.79-4.53-2.74.18-.79ZM96.92,165.39l2.92,1.77.18-.79-2.92-1.77-.17.79ZM93.33,162.32l-.18.79,2.86,1.73.17-.79-2.86-1.73ZM90.21,161.33l2.03,1.23.18-.79-2.03-1.23-.18.79ZM88.15,160.09l1.15.69.18-.79-1.15-.69-.18.79ZM102.24,171.05l2.51,1.52.17-.79-2.51-1.52-.18.79ZM98.53,168.81l2.79,1.69.18-.79-2.79-1.69-.18.79ZM95.31,165.96l-.18.79,2.48,1.5.17-.79-2.48-1.5Z"/>
            </g>
          </g>
        </g>
        <g>
          <g id="Axonometric_Cylinder" data-name="Axonometric Cylinder">
            <g id="Cylinder_face" data-name="Cylinder face">
              <path d="M136.07,266.82c-2.62,0-5.07-.59-6.91-1.65-1.8-1.04-2.79-2.4-2.79-3.85s.99-2.81,2.79-3.85c1.84-1.06,4.3-1.65,6.91-1.65s5.07.59,6.91,1.65c1.8,1.04,2.79,2.4,2.79,3.85,0,1.44-.99,2.81-2.79,3.85-1.84,1.06-4.3,1.65-6.91,1.65Z"/>
              <path class="cls-2" d="M136.07,256.08c2.57,0,4.98.57,6.79,1.62,1.72.99,2.66,2.28,2.66,3.63s-.95,2.64-2.66,3.63c-1.8,1.04-4.21,1.62-6.79,1.62s-4.98-.57-6.79-1.62c-1.72-.99-2.66-2.28-2.66-3.63,0-1.35.95-2.64,2.66-3.63,1.8-1.04,4.21-1.62,6.79-1.62M136.07,255.58c-2.55,0-5.09.56-7.04,1.68-3.89,2.24-3.89,5.88,0,8.12,1.94,1.12,4.49,1.68,7.04,1.68s5.09-.56,7.04-1.68c3.89-2.24,3.89-5.88,0-8.12-1.94-1.12-4.49-1.68-7.04-1.68h0Z"/>
            </g>
          </g>
          <g>
            <g>
              <g>
                <path d="M100.61,275.04c-.43-.25-.47-1.06-.11-1.88.17-.34,26.09-50.24,26.35-50.74.14-.27.31-.51.49-.72.2-.23.43-.42.65-.55.21-.12.42-.18.59-.18.08,0,.16.01.23.04l.52.22c-.17.04-.34.11-.51.21-.27.16-.54.38-.78.65-.21.24-.4.52-.56.83l-26.23,50.49c-.31.69-.44,1.32-.39,1.82l-.27-.18Z"/>
                <path class="cls-2" d="M128.59,221.21s.07,0,.11.01c-.29.17-.57.4-.83.7-.23.26-.43.55-.6.87l-26.24,50.52c-.23.51-.37.99-.41,1.42-.17-.25-.18-.82.1-1.45.22-.45,26.09-50.24,26.35-50.75.13-.25.29-.48.46-.68.19-.21.39-.38.59-.5.17-.1.33-.15.47-.15M128.59,220.71c-.23,0-.47.08-.71.22-.25.14-.49.35-.71.6-.2.22-.38.49-.53.77,0,0-26.23,50.49-26.36,50.76-.42.95-.35,1.88.2,2.19l1.01.67c-.47-.36-.52-1.25,0-2.41l26.23-50.49c.15-.29.33-.55.53-.78.23-.26.47-.46.71-.6.24-.14.49-.22.71-.22.12,0,.23.02.33.06,0,0,4.8,1.99,4.9,2.04,0,0-1.09-.72-1.18-.76l-4.8-1.99c-.1-.04-.21-.06-.33-.06h0ZM101.48,275.92s.05.03.07.05l-.07-.05h0Z"/>
              </g>
              <g>
                <path d="M106.74,277.79c-.06,0-.12,0-.17-.03l-4.83-1.97c-.15-.06-.27-.19-.33-.39-.16-.45-.05-1.13.3-1.77l26.23-50.5c.29-.56.71-1.02,1.14-1.28.21-.12.41-.18.59-.18.08,0,.16.01.23.04l4.8,1.99c.12.05.21.14.26.28.14.35.05.91-.23,1.45l-26.6,51.17c-.24.45-.58.82-.93,1.03-.17.1-.34.15-.48.15Z"/>
                <path class="cls-2" d="M129.67,221.93c.05,0,.1,0,.14.02l4.82,2s.07.03.11.14c.08.22.08.67-.22,1.24l-26.59,51.16c-.22.41-.52.75-.83.93-.13.08-.26.12-.35.12-.03,0-.06,0-.07,0l-4.83-1.97s-.13-.05-.2-.24c-.1-.29-.09-.87.29-1.57l26.23-50.49c.27-.52.65-.95,1.05-1.18.17-.1.33-.15.46-.15M129.67,221.43c-.23,0-.47.08-.71.22-.46.27-.92.76-1.24,1.38l-26.23,50.49c-.58,1.08-.52,2.22.16,2.5l4.83,1.97c.08.03.17.04.26.04.19,0,.4-.07.6-.18.38-.22.75-.61,1.03-1.13l26.6-51.17c.49-.96.4-1.87-.16-2.08l-4.8-1.99c-.1-.04-.21-.06-.33-.06h0Z"/>
              </g>
            </g>
            <g>
              <g>
                <g>
                  <path d="M107.46,281.2l8.37-16.11c2.13,1.12,18.8,9.88,24.52,12.52l-9.04,17.41-23.84-13.82Z"/>
                  <path class="cls-2" d="M115.93,265.43c2.83,1.49,18.31,9.62,24.07,12.3l-8.8,16.95-23.41-13.57,8.14-15.67M115.72,264.75l-8.59,16.54,24.28,14.07,9.29-17.88c-5.88-2.68-24.97-12.74-24.97-12.74h0Z"/>
                </g>
                <g>
                  <polygon points="131.75 295.25 140.8 277.82 142.05 278.38 132.99 295.78 131.75 295.25"/>
                  <path class="cls-2" d="M140.92,278.15c.26.12.52.24.79.36l-8.83,16.96-.78-.34,8.82-16.98M140.69,277.49l-9.29,17.88,1.7.74,9.29-17.84c-.57-.26-1.13-.51-1.7-.77h0Z"/>
                </g>
              </g>
              <g>
                <path d="M103.36,276.24c-.42-.24-.46-1.05-.09-1.88.17-.34,26.09-50.24,26.35-50.74.14-.27.3-.51.49-.72.2-.23.43-.42.65-.55.21-.12.41-.18.59-.18.08,0,.16.01.23.04l4.8,1.99c.22.12,16.56,9.61,23.71,13.76-.62-.26-1.15-.48-1.39-.58-.13-.05-.27-.08-.42-.08-.27,0-.55.08-.84.25-.27.16-.54.38-.78.65-.22.25-.4.52-.56.82l-26.23,50.49c-.33.73-.46,1.38-.39,1.89l-26.12-15.17Z"/>
                <path class="cls-2" d="M131.35,222.41h0c.05,0,.1,0,.14.02l4.78,1.98c.64.37,14.13,8.2,21.79,12.65-.24.03-.49.12-.74.27-.3.17-.58.41-.84.71-.23.26-.43.55-.6.87l-26.24,50.52c-.25.56-.39,1.08-.42,1.54l-25.73-14.94c-.26-.15-.32-.82,0-1.54.22-.45,26.09-50.24,26.35-50.75.13-.25.28-.47.46-.68.19-.21.39-.38.59-.5.17-.1.33-.15.46-.15M131.35,221.91c-.23,0-.47.08-.71.22-.25.14-.49.35-.71.6-.2.22-.38.48-.53.77,0,0-26.23,50.49-26.36,50.76-.42.95-.35,1.88.2,2.19l26.92,15.64c-.54-.32-.62-1.25-.07-2.46l26.23-50.49c.15-.29.33-.55.53-.77.22-.26.47-.46.72-.6.24-.14.49-.22.71-.22.12,0,.23.02.33.06,0,0,4.8,1.99,4.9,2.04,0,0-26.92-15.64-27.02-15.68l-4.8-1.99c-.1-.04-.21-.06-.33-.06h0Z"/>
              </g>
              <g>
                <path d="M135.34,293.91c-.06,0-.12,0-.17-.03l-4.83-1.97c-.15-.06-.27-.19-.33-.38-.16-.45-.05-1.13.3-1.77l26.23-50.5c.29-.56.71-1.02,1.15-1.28.21-.12.41-.18.59-.18.08,0,.16.01.23.04l4.8,1.99c.12.05.21.14.26.28.14.35.05.91-.23,1.45l-26.6,51.17c-.24.45-.58.82-.93,1.02-.17.1-.34.15-.48.15Z"/>
                <path class="cls-2" d="M158.27,238.05h0c.05,0,.1,0,.14.02l4.82,2s.07.03.11.14c.08.22.08.67-.22,1.24l-26.59,51.16c-.22.41-.52.75-.83.93-.13.08-.26.12-.35.12-.03,0-.06,0-.07,0l-4.83-1.97s-.13-.05-.19-.24c-.1-.29-.09-.87.29-1.57l26.23-50.49c.27-.52.65-.95,1.05-1.18.17-.1.33-.15.46-.15M158.27,237.55c-.23,0-.47.08-.71.22-.46.27-.92.76-1.24,1.38l-26.23,50.49c-.59,1.08-.52,2.22.16,2.5l4.83,1.98c.08.03.17.04.26.04.19,0,.4-.07.6-.18.38-.22.75-.61,1.03-1.13l26.6-51.17c.49-.96.4-1.87-.16-2.08l-4.8-1.99c-.1-.04-.21-.06-.33-.06h0Z"/>
              </g>
              <g>
                <g>
                  <g>
                    <path d="M140.72,259.67c-.09,0-.17-.02-.25-.07l-19.1-11.03c-.23-.14-.32-.43-.2-.67l6.63-12.77c.09-.17.26-.27.45-.27.09,0,.18.02.25.07l19.08,11.08c.23.14.32.43.2.67l-6.61,12.72c-.09.17-.26.27-.45.27Z"/>
                    <path class="cls-2" d="M128.26,235.12s.09.01.13.03l19.07,11.08c.12.07.16.22.1.34l-6.61,12.72c-.05.1-.15.14-.23.14-.04,0-.09-.01-.13-.03l-19.1-11.03c-.12-.07-.16-.22-.1-.34l6.63-12.77c.05-.1.15-.14.23-.14M128.26,234.62c-.27,0-.54.15-.67.41l-6.63,12.77c-.19.36-.06.8.29,1l19.1,11.03c.12.07.25.1.38.1.27,0,.54-.15.67-.41l6.61-12.72c.19-.36.06-.8-.29-1l-19.08-11.08c-.12-.07-.25-.1-.38-.1h0Z"/>
                  </g>
                  <g>
                    <path d="M121.37,248.58c-.24-.14-.32-.43-.2-.67l6.63-12.77c.09-.17.26-.27.45-.27.09,0,.18.02.25.07l19.08,11.08c.23.14.32.43.2.67l-.17.34-18.12-10.52c-.15-.09-.33-.14-.5-.14-.38,0-.72.21-.89.54l-6.21,11.96-.5-.29Z"/>
                    <path class="cls-2" d="M128.26,235.12s.09.01.13.03l19.07,11.08c.12.07.16.22.1.34l-.05.1-17.89-10.39c-.19-.11-.41-.17-.63-.17-.47,0-.9.26-1.11.68l-6.09,11.73-.28-.16c-.12-.07-.16-.22-.1-.34l6.63-12.77c.05-.1.15-.14.23-.14M128.26,234.62c-.27,0-.54.15-.67.41l-6.63,12.77c-.19.36-.06.8.29,1l.73.42,6.33-12.2c.14-.26.4-.41.67-.41.13,0,.26.03.38.1l18.34,10.65.3-.57c.19-.36.06-.8-.29-1l-19.08-11.08c-.12-.07-.25-.1-.38-.1h0Z"/>
                  </g>
                </g>
                <g>
                  <path d="M128.46,279.9c-.24,0-.47-.06-.68-.18l-3.18-1.84c-.63-.36-.86-1.16-.53-1.8l.66-1.27c.23-.45.7-.73,1.21-.73.24,0,.47.06.68.18l3.18,1.85c.63.36.86,1.16.52,1.8l-.65,1.26c-.23.45-.7.73-1.21.73h0ZM121.96,276.15c-.24,0-.47-.06-.68-.18l-3.18-1.84c-.63-.37-.86-1.16-.53-1.8l.66-1.27c.23-.45.7-.73,1.21-.73.24,0,.47.06.68.18l3.18,1.85c.63.37.86,1.16.52,1.8l-.65,1.26c-.24.45-.7.73-1.21.73h0ZM131.18,274.86c-.24,0-.47-.06-.68-.18l-3.18-1.84c-.63-.36-.86-1.16-.53-1.8l.66-1.27c.23-.45.7-.73,1.21-.73.24,0,.47.06.68.18l3.18,1.85c.63.36.86,1.16.52,1.8l-.65,1.26c-.23.45-.7.73-1.21.73h0ZM115.46,272.4c-.24,0-.47-.06-.68-.18l-3.18-1.84c-.63-.36-.86-1.16-.53-1.8l.66-1.27c.24-.45.7-.73,1.21-.73.24,0,.47.06.68.18l3.18,1.85c.63.36.86,1.16.52,1.8l-.65,1.26c-.24.45-.7.73-1.21.73h0ZM124.68,271.11c-.24,0-.47-.06-.68-.18l-3.18-1.84c-.63-.37-.86-1.16-.53-1.8l.66-1.27c.24-.45.7-.73,1.21-.73.24,0,.47.06.68.18l3.18,1.85c.63.36.86,1.16.52,1.8l-.65,1.26c-.24.45-.7.73-1.21.73h0ZM133.9,269.83c-.24,0-.47-.06-.68-.18l-3.18-1.84c-.63-.36-.86-1.16-.53-1.8l.66-1.27c.23-.45.7-.73,1.21-.73.24,0,.47.06.68.18l3.18,1.85c.63.36.86,1.16.52,1.8l-.65,1.26c-.24.45-.7.73-1.21.73h0ZM118.18,267.36c-.24,0-.47-.06-.68-.18l-3.18-1.84c-.63-.36-.86-1.16-.53-1.8l.66-1.27c.23-.45.7-.73,1.21-.73.24,0,.47.06.68.18l3.18,1.85c.63.37.86,1.16.52,1.8l-.65,1.26c-.23.45-.7.73-1.21.73h0ZM127.4,266.08c-.24,0-.47-.06-.68-.18l-3.18-1.84c-.63-.36-.86-1.16-.53-1.8l.66-1.27c.23-.45.7-.73,1.21-.73.24,0,.47.06.68.18l3.18,1.85c.63.37.86,1.16.52,1.8l-.65,1.26c-.24.45-.7.73-1.21.73h0ZM136.62,264.79c-.24,0-.47-.06-.68-.18l-3.18-1.84c-.63-.36-.86-1.16-.53-1.8l.66-1.27c.23-.45.7-.73,1.21-.73.24,0,.47.06.68.18l3.18,1.85c.63.36.86,1.16.52,1.8l-.65,1.26c-.24.45-.7.73-1.21.73ZM120.91,262.32c-.24,0-.47-.06-.68-.18l-3.18-1.84c-.63-.36-.86-1.16-.53-1.8l.66-1.27c.23-.45.7-.73,1.21-.73.24,0,.47.06.68.18l3.18,1.85c.63.37.86,1.16.52,1.8l-.65,1.26c-.23.45-.7.73-1.21.73h0ZM130.12,261.04c-.24,0-.47-.06-.68-.18l-3.18-1.84c-.63-.36-.86-1.16-.53-1.8l.66-1.27c.23-.45.7-.73,1.21-.73.24,0,.47.06.68.18l3.18,1.85c.63.37.86,1.16.52,1.8l-.65,1.26c-.23.45-.7.73-1.21.73h0ZM123.63,257.29c-.24,0-.47-.06-.68-.18l-3.18-1.84c-.63-.36-.86-1.16-.53-1.8l.66-1.27c.24-.45.7-.73,1.21-.73.24,0,.47.06.68.18l3.18,1.85c.63.36.86,1.16.52,1.8l-.65,1.26c-.24.45-.7.73-1.21.73h0Z"/>
                  <path class="cls-2" d="M121.11,251.72c.19,0,.39.05.56.15l3.18,1.85c.51.3.7.94.43,1.47l-.65,1.26c-.19.37-.57.6-.99.6-.19,0-.38-.05-.55-.15l-3.18-1.84c-.52-.3-.7-.94-.43-1.47l.66-1.27c.19-.37.57-.6.99-.6M127.6,255.47c.19,0,.39.05.56.15l3.18,1.85c.51.3.7.94.43,1.47l-.65,1.26c-.19.37-.57.6-.99.6-.19,0-.38-.05-.55-.15l-3.18-1.84c-.52-.3-.7-.94-.43-1.47l.66-1.27c.19-.37.57-.6.99-.6M118.39,256.75c.19,0,.39.05.56.15l3.18,1.84c.51.3.7.94.43,1.47l-.65,1.26c-.19.37-.57.6-.99.6-.19,0-.38-.05-.55-.15l-3.18-1.84c-.52-.3-.7-.94-.43-1.47l.66-1.27c.19-.37.57-.6.99-.6M134.1,259.22h0c.19,0,.39.05.56.15l3.18,1.85c.51.3.7.94.43,1.47l-.65,1.26c-.19.37-.57.6-.99.6-.19,0-.38-.05-.55-.15l-3.18-1.84c-.52-.3-.7-.94-.43-1.47l.66-1.27c.19-.37.57-.6.99-.6M124.88,260.5c.19,0,.39.05.56.15l3.18,1.85c.51.3.7.94.43,1.47l-.65,1.26c-.19.37-.57.6-.99.6-.19,0-.38-.05-.55-.15l-3.18-1.84c-.52-.3-.7-.94-.43-1.47l.66-1.27c.19-.37.57-.6.99-.6M115.66,261.79c.19,0,.39.05.56.15l3.18,1.85c.51.3.7.94.43,1.47l-.65,1.26c-.19.37-.57.6-.98.6-.19,0-.38-.05-.55-.15l-3.18-1.84c-.52-.3-.7-.94-.43-1.47l.66-1.27c.19-.37.57-.6.99-.6M131.38,264.25c.19,0,.39.05.55.15l3.18,1.85c.51.3.7.94.43,1.47l-.65,1.26c-.19.37-.57.6-.98.6-.19,0-.38-.05-.55-.15l-3.18-1.84c-.52-.3-.7-.94-.43-1.47l.66-1.27c.19-.37.57-.6.99-.6M122.16,265.54c.19,0,.39.05.56.15l3.18,1.84c.51.3.7.94.43,1.47l-.65,1.26c-.19.37-.57.6-.99.6-.19,0-.38-.05-.55-.15l-3.18-1.84c-.52-.3-.7-.94-.43-1.47l.66-1.27c.19-.37.57-.6.99-.6M112.94,266.83c.19,0,.39.05.56.15l3.18,1.84c.51.3.7.94.43,1.47l-.65,1.26c-.19.37-.57.6-.99.6-.19,0-.38-.05-.55-.15l-3.18-1.84c-.51-.3-.7-.94-.43-1.47l.66-1.27c.19-.37.57-.6.99-.6M128.66,269.29c.19,0,.39.05.56.15l3.18,1.84c.51.3.7.94.43,1.47l-.65,1.26c-.19.37-.57.6-.99.6-.19,0-.38-.05-.55-.15l-3.18-1.84c-.52-.3-.7-.94-.43-1.47l.66-1.27c.19-.37.57-.6.99-.6M119.44,270.58c.19,0,.39.05.56.15l3.18,1.84c.51.3.7.94.43,1.47l-.65,1.26c-.19.37-.57.6-.99.6-.19,0-.38-.05-.55-.15l-3.18-1.84c-.51-.3-.7-.94-.43-1.47l.66-1.27c.19-.37.57-.6.99-.6M125.93,274.33c.19,0,.39.05.56.15l3.18,1.85c.51.3.7.94.43,1.47l-.65,1.26c-.19.37-.57.6-.99.6-.19,0-.38-.05-.55-.15l-3.18-1.84c-.52-.3-.7-.94-.43-1.47l.66-1.27c.19-.37.57-.6.99-.6M121.11,251.22c-.58,0-1.14.31-1.43.87l-.66,1.27c-.4.76-.12,1.71.62,2.14l3.18,1.84c.25.15.53.22.8.22.58,0,1.14-.31,1.43-.87l.65-1.26c.4-.76.12-1.7-.62-2.13l-3.18-1.85c-.25-.15-.53-.22-.81-.22h0ZM127.6,254.97c-.58,0-1.14.31-1.43.87l-.66,1.27c-.4.76-.12,1.7.62,2.14l3.18,1.84c.25.15.53.22.8.22.58,0,1.14-.31,1.43-.87l.65-1.26c.4-.76.12-1.7-.62-2.13l-3.18-1.85c-.25-.15-.53-.22-.81-.22h0ZM118.39,256.25c-.58,0-1.14.31-1.43.87l-.66,1.27c-.4.76-.12,1.7.62,2.14l3.18,1.84c.25.15.53.22.8.22.58,0,1.14-.31,1.43-.87l.65-1.26c.4-.76.12-1.7-.62-2.13l-3.18-1.85c-.25-.15-.53-.22-.81-.22h0ZM134.1,258.72c-.58,0-1.14.31-1.43.87l-.66,1.27c-.4.76-.12,1.7.62,2.14l3.18,1.84c.25.15.53.22.8.22.58,0,1.14-.31,1.43-.87l.65-1.26c.4-.76.12-1.7-.62-2.13l-3.18-1.85c-.25-.15-.53-.22-.81-.22h0ZM124.88,260c-.58,0-1.14.31-1.43.87l-.66,1.27c-.4.76-.12,1.7.62,2.14l3.18,1.84c.25.15.53.22.8.22.58,0,1.14-.31,1.43-.87l.65-1.26c.4-.76.12-1.7-.62-2.13l-3.18-1.85c-.25-.15-.53-.22-.81-.22h0ZM115.66,261.29c-.58,0-1.14.31-1.43.87l-.66,1.27c-.4.76-.12,1.71.62,2.14l3.18,1.84c.25.15.53.22.8.22.58,0,1.14-.31,1.43-.87l.65-1.26c.4-.76.12-1.7-.62-2.13l-3.18-1.85c-.25-.15-.53-.22-.81-.22h0ZM131.38,263.75c-.58,0-1.14.31-1.43.87l-.66,1.27c-.4.76-.12,1.71.62,2.14l3.18,1.84c.25.15.53.22.8.22.58,0,1.14-.31,1.43-.87l.65-1.26c.4-.76.12-1.7-.62-2.13l-3.18-1.85c-.25-.15-.53-.22-.81-.22h0ZM122.16,265.04c-.58,0-1.14.31-1.43.87l-.66,1.27c-.4.76-.12,1.71.62,2.14l3.18,1.84c.25.15.53.22.8.22.58,0,1.14-.31,1.43-.87l.65-1.26c.4-.76.12-1.7-.62-2.13l-3.18-1.85c-.25-.15-.53-.22-.81-.22h0ZM112.94,266.33c-.58,0-1.14.31-1.43.87l-.66,1.27c-.4.76-.12,1.7.62,2.14l3.18,1.84c.25.15.53.22.8.22.58,0,1.14-.31,1.43-.87l.65-1.26c.4-.76.12-1.7-.62-2.13l-3.18-1.85c-.25-.15-.53-.22-.81-.22h0ZM128.66,268.79c-.58,0-1.14.31-1.43.87l-.66,1.27c-.4.76-.12,1.7.62,2.14l3.18,1.84c.25.15.53.22.8.22.58,0,1.14-.31,1.43-.87l.65-1.26c.4-.76.12-1.7-.62-2.13l-3.18-1.85c-.25-.15-.53-.22-.81-.22h0ZM119.44,270.08c-.58,0-1.14.31-1.43.87l-.66,1.27c-.4.76-.12,1.7.62,2.14l3.18,1.84c.25.15.53.22.8.22.58,0,1.14-.31,1.43-.87l.65-1.26c.4-.76.12-1.7-.62-2.13l-3.18-1.85c-.25-.15-.53-.22-.81-.22h0ZM125.93,273.83c-.58,0-1.14.31-1.43.87l-.66,1.27c-.4.76-.12,1.7.62,2.14l3.18,1.84c.25.15.53.22.8.22.58,0,1.14-.31,1.43-.87l.65-1.26c.4-.76.12-1.7-.62-2.13l-3.18-1.85c-.25-.15-.53-.22-.81-.22h0Z"/>
                </g>
                <g>
                  <path d="M128.15,279.42c-.24,0-.47-.06-.68-.18l-3.18-1.84c-.11-.06-.2-.16-.29-.26-.12-.32-.11-.72.07-1.07l.66-1.27c.23-.45.7-.73,1.21-.73.24,0,.47.06.68.18l3.18,1.85c.1.06.19.15.28.25.12.33.11.73-.07,1.08l-.65,1.26c-.23.45-.7.73-1.21.73h0ZM121.65,275.67c-.24,0-.47-.06-.68-.18l-3.18-1.84c-.11-.06-.2-.16-.29-.26-.12-.32-.11-.72.07-1.07l.66-1.27c.23-.45.7-.73,1.21-.73.24,0,.47.06.68.18l3.18,1.85c.1.06.19.15.28.25.12.33.11.73-.07,1.07l-.65,1.26c-.24.45-.7.73-1.21.73h0ZM130.87,274.38c-.24,0-.47-.06-.68-.18l-3.18-1.84c-.11-.06-.2-.16-.29-.26-.11-.31-.1-.72.08-1.06l.66-1.27c.23-.45.7-.73,1.21-.73.24,0,.47.06.68.18l3.18,1.85c.1.06.19.15.28.25.12.33.11.73-.06,1.08l-.65,1.26c-.23.45-.7.73-1.21.73h0ZM115.16,271.92c-.24,0-.47-.06-.68-.18l-3.18-1.84c-.1-.06-.19-.15-.29-.25-.12-.33-.11-.73.07-1.08l.66-1.27c.24-.45.7-.73,1.21-.73.24,0,.47.06.68.18l3.18,1.85c.11.06.2.16.29.26.11.32.1.72-.08,1.06l-.65,1.26c-.24.45-.7.73-1.21.73h0ZM124.37,270.63c-.24,0-.47-.06-.68-.18l-3.18-1.84c-.11-.06-.19-.16-.29-.25-.12-.32-.11-.73.07-1.07l.66-1.27c.24-.45.7-.73,1.21-.73.24,0,.47.06.68.18l3.18,1.85c.11.06.2.16.29.26.11.31.1.72-.08,1.06l-.65,1.26c-.24.45-.7.73-1.21.73h0ZM133.59,269.35c-.24,0-.47-.06-.68-.18l-3.18-1.84c-.11-.06-.2-.16-.29-.26-.12-.32-.11-.72.07-1.07l.66-1.27c.23-.45.7-.73,1.21-.73.24,0,.47.06.68.18l3.18,1.84c.11.06.19.15.29.25.12.32.11.73-.07,1.07l-.65,1.26c-.24.45-.7.73-1.21.73h0ZM117.88,266.88c-.24,0-.47-.06-.68-.18l-3.18-1.84c-.11-.06-.19-.15-.29-.26-.12-.32-.11-.72.07-1.07l.66-1.27c.23-.45.7-.73,1.21-.73.24,0,.47.06.68.18l3.18,1.85c.11.06.2.16.29.26.11.31.1.72-.08,1.06l-.65,1.26c-.24.45-.7.73-1.21.73h0ZM127.09,265.6c-.24,0-.47-.06-.68-.18l-3.18-1.84c-.11-.06-.2-.16-.29-.26-.11-.31-.1-.72.08-1.06l.66-1.27c.23-.45.7-.73,1.21-.73.24,0,.47.06.68.18l3.18,1.85c.11.06.2.16.29.26.11.31.1.72-.08,1.06l-.65,1.26c-.24.45-.7.73-1.21.73h0ZM136.31,264.31c-.24,0-.47-.06-.68-.18l-3.18-1.84c-.11-.06-.2-.16-.29-.26-.11-.31-.11-.72.07-1.06l.66-1.27c.23-.45.7-.73,1.21-.73.24,0,.47.06.68.18l3.18,1.85c.11.06.2.16.29.26.12.32.11.72-.07,1.07l-.65,1.26c-.24.45-.7.73-1.21.73ZM120.6,261.85c-.24,0-.47-.06-.68-.18l-3.18-1.84c-.1-.06-.19-.15-.29-.25-.12-.33-.11-.73.07-1.07l.66-1.27c.23-.45.7-.73,1.21-.73.24,0,.47.06.68.18l3.18,1.85c.1.06.19.15.28.25.12.33.12.73-.06,1.08l-.65,1.26c-.24.45-.7.73-1.21.73h0ZM129.82,260.56c-.24,0-.47-.06-.68-.18l-3.18-1.84c-.11-.06-.2-.16-.29-.26-.12-.32-.11-.72.07-1.07l.66-1.27c.23-.45.7-.73,1.21-.73.24,0,.47.06.68.18l3.18,1.85c.11.06.19.16.29.26.12.32.11.72-.07,1.07l-.65,1.26c-.23.45-.7.73-1.21.73h0ZM123.32,256.81c-.24,0-.47-.06-.68-.18l-3.18-1.84c-.11-.06-.2-.16-.29-.26-.11-.31-.1-.72.08-1.06l.66-1.27c.24-.45.7-.73,1.21-.73.24,0,.47.06.68.18l3.18,1.85c.1.06.19.15.28.25.12.33.12.73-.06,1.08l-.65,1.26c-.24.45-.7.73-1.21.73h0Z"/>
                  <path class="cls-2" d="M121.11,251.72c.19,0,.39.05.56.15l3.18,1.85c.05.03.11.08.17.14.07.2.12.52-.05.85l-.65,1.26c-.19.37-.57.6-.99.6-.19,0-.38-.05-.55-.15l-3.18-1.84c-.06-.03-.11-.09-.17-.15-.07-.2-.12-.52.05-.85l.66-1.27c.19-.37.57-.6.99-.6M127.6,255.47c.19,0,.39.05.56.15l3.18,1.85c.05.03.11.08.17.14.07.2.12.52-.05.85l-.65,1.26c-.19.37-.57.6-.99.6-.19,0-.38-.05-.55-.15l-3.18-1.84c-.05-.03-.11-.08-.17-.15-.07-.2-.12-.52.05-.85l.66-1.27c.19-.37.57-.6.99-.6M118.38,256.75c.19,0,.39.05.56.15l3.18,1.84c.05.03.11.08.17.14.07.2.12.52-.05.85l-.65,1.26c-.19.37-.57.6-.99.6-.19,0-.38-.05-.55-.15l-3.18-1.84c-.06-.03-.11-.08-.17-.15-.07-.2-.12-.52.05-.85l.66-1.27c.19-.37.57-.6.98-.6M134.1,259.22h0c.19,0,.39.05.56.15l3.18,1.84c.05.03.11.08.17.14.07.2.12.52-.05.85l-.65,1.26c-.19.37-.57.6-.99.6-.19,0-.38-.05-.55-.15l-3.18-1.84c-.06-.03-.11-.08-.17-.15-.07-.2-.12-.52.05-.85l.66-1.27c.19-.37.57-.6.99-.6M124.88,260.5c.19,0,.39.05.56.15l3.18,1.85c.05.03.11.08.17.14.07.2.12.52-.05.85l-.65,1.26c-.19.37-.57.6-.99.6-.19,0-.38-.05-.55-.15l-3.18-1.84c-.05-.03-.11-.08-.17-.14-.07-.2-.12-.52.05-.85l.66-1.27c.19-.37.57-.6.99-.6M115.66,261.79c.19,0,.39.05.56.15l3.18,1.85c.05.03.11.08.17.14.07.2.12.52-.05.85l-.65,1.26c-.19.37-.57.6-.99.6-.19,0-.38-.05-.55-.15l-3.18-1.84c-.06-.03-.11-.09-.17-.14-.07-.2-.12-.52.05-.85l.66-1.27c.19-.37.57-.6.99-.6M131.38,264.25c.19,0,.39.05.56.15l3.18,1.85c.05.03.11.08.17.14.07.2.12.52-.05.85l-.65,1.26c-.19.37-.57.6-.98.6-.19,0-.38-.05-.55-.15l-3.18-1.84c-.05-.03-.11-.08-.17-.15-.07-.2-.12-.52.05-.85l.66-1.27c.19-.37.57-.6.99-.6M122.16,265.54c.19,0,.39.05.56.15l3.18,1.85c.06.03.11.08.17.14.07.2.12.52-.05.85l-.65,1.26c-.19.37-.57.6-.99.6-.19,0-.38-.05-.55-.15l-3.18-1.84c-.06-.03-.11-.08-.17-.15-.07-.2-.12-.52.05-.85l.66-1.27c.19-.37.57-.6.99-.6M112.94,266.83c.19,0,.39.05.56.15l3.18,1.85c.05.03.11.08.17.14.07.2.12.52-.05.85l-.65,1.26c-.19.37-.57.6-.99.6-.19,0-.38-.05-.55-.15l-3.18-1.84c-.05-.03-.11-.08-.17-.14-.07-.2-.12-.52.05-.85l.66-1.27c.19-.37.57-.6.99-.6M128.66,269.29c.19,0,.39.05.55.15l3.18,1.85c.05.03.11.08.17.14.07.2.12.52-.05.85l-.65,1.26c-.19.37-.57.6-.99.6-.19,0-.38-.05-.55-.15l-3.18-1.84c-.06-.03-.11-.08-.17-.15-.07-.2-.12-.52.05-.85l.66-1.27c.19-.37.57-.6.99-.6M119.44,270.58c.19,0,.39.05.56.15l3.18,1.84c.05.03.11.08.17.15.07.2.12.52-.05.85l-.65,1.26c-.19.37-.57.6-.99.6-.19,0-.38-.05-.55-.15l-3.18-1.84c-.05-.03-.11-.08-.17-.15-.07-.2-.12-.52.05-.85l.66-1.27c.19-.37.57-.6.99-.6M125.93,274.33c.19,0,.39.05.56.15l3.18,1.84c.05.03.11.08.17.14.07.2.12.52-.05.85l-.65,1.26c-.19.37-.57.6-.99.6-.19,0-.38-.05-.55-.15l-3.18-1.84c-.05-.03-.11-.08-.17-.15-.07-.2-.12-.52.05-.85l.66-1.27c.19-.37.57-.6.99-.6M121.11,251.22c-.58,0-1.14.31-1.43.87l-.66,1.27c-.23.44-.21.93-.04,1.35.11.11.21.23.35.31l3.18,1.84c.25.15.53.22.8.22.58,0,1.14-.31,1.43-.87l.65-1.26c.23-.44.21-.92.04-1.35-.1-.11-.21-.22-.35-.31l-3.18-1.85c-.25-.15-.53-.22-.81-.22h0ZM127.6,254.97c-.58,0-1.14.31-1.43.87l-.66,1.27c-.23.44-.21.93-.04,1.35.11.11.21.23.35.31l3.18,1.84c.25.15.53.22.8.22.58,0,1.14-.31,1.43-.87l.65-1.26c.23-.44.21-.93.04-1.35-.1-.11-.21-.22-.35-.31l-3.18-1.85c-.25-.15-.53-.22-.81-.22h0ZM118.38,256.25c-.58,0-1.14.31-1.43.87l-.66,1.27c-.23.44-.21.93-.04,1.35.11.11.21.23.35.31l3.18,1.84c.25.15.53.22.8.22.58,0,1.14-.31,1.43-.87l.65-1.26c.23-.44.21-.92.04-1.35-.1-.11-.21-.22-.35-.31l-3.18-1.85c-.25-.15-.53-.22-.81-.22h0ZM134.1,258.72c-.58,0-1.14.31-1.43.87l-.66,1.27c-.23.44-.21.93-.04,1.35.11.11.21.23.35.31l3.18,1.84c.25.15.53.22.8.22.58,0,1.14-.31,1.43-.87l.65-1.26c.23-.44.21-.93.04-1.35-.1-.11-.21-.22-.35-.31l-3.18-1.85c-.25-.15-.53-.22-.81-.22h0ZM124.88,260c-.58,0-1.14.31-1.43.87l-.66,1.27c-.23.44-.21.93-.04,1.35.11.11.21.23.35.31l3.18,1.84c.25.15.53.22.8.22.58,0,1.14-.31,1.43-.87l.65-1.26c.23-.44.21-.92.04-1.35-.1-.11-.21-.23-.35-.31l-3.18-1.85c-.25-.15-.53-.22-.81-.22h0ZM115.66,261.29c-.58,0-1.14.31-1.43.87l-.66,1.27c-.23.44-.21.93-.04,1.35.11.11.21.23.35.31l3.18,1.84c.25.15.53.22.8.22.58,0,1.14-.31,1.43-.87l.65-1.26c.23-.44.21-.92.04-1.35-.1-.11-.21-.22-.35-.31l-3.18-1.85c-.25-.15-.53-.22-.81-.22h0ZM131.38,263.75c-.58,0-1.14.31-1.43.87l-.66,1.27c-.23.44-.21.93-.04,1.35.11.11.21.23.35.31l3.18,1.84c.25.15.53.22.8.22.58,0,1.14-.31,1.43-.87l.65-1.26c.23-.44.21-.93.04-1.35-.1-.11-.21-.22-.35-.31l-3.18-1.85c-.25-.15-.53-.22-.81-.22h0ZM122.16,265.04c-.58,0-1.14.31-1.43.87l-.66,1.27c-.23.44-.21.93-.04,1.35.11.11.21.23.35.31l3.18,1.84c.25.15.53.22.8.22.58,0,1.14-.31,1.43-.87l.65-1.26c.23-.44.21-.93.04-1.35-.1-.11-.21-.22-.35-.31l-3.18-1.85c-.25-.15-.53-.22-.81-.22h0ZM112.94,266.33c-.58,0-1.14.31-1.43.87l-.66,1.27c-.23.44-.21.93-.04,1.35.11.11.21.23.35.31l3.18,1.84c.25.15.53.22.8.22.58,0,1.14-.31,1.43-.87l.65-1.26c.23-.44.21-.93.04-1.35-.1-.11-.21-.22-.35-.31l-3.18-1.85c-.25-.15-.53-.22-.81-.22h0ZM128.66,268.79c-.58,0-1.14.31-1.43.87l-.66,1.27c-.23.44-.21.93-.04,1.35.11.11.21.23.35.31l3.18,1.84c.25.15.53.22.8.22.58,0,1.14-.31,1.43-.87l.65-1.26c.23-.44.21-.92.04-1.35-.1-.11-.21-.22-.35-.31l-3.18-1.85c-.25-.15-.53-.22-.81-.22h0ZM119.44,270.08c-.58,0-1.14.31-1.43.87l-.66,1.27c-.23.44-.21.93-.04,1.35.11.11.21.23.35.31l3.18,1.84c.25.15.53.22.8.22.58,0,1.14-.31,1.43-.87l.65-1.26c.23-.44.21-.92.04-1.35-.1-.11-.21-.22-.35-.31l-3.18-1.85c-.25-.15-.53-.22-.81-.22h0ZM125.93,273.83c-.58,0-1.14.31-1.43.87l-.66,1.27c-.23.44-.21.93-.04,1.35.11.11.21.23.35.31l3.18,1.84c.25.15.53.22.8.22.58,0,1.14-.31,1.43-.87l.65-1.26c.23-.44.21-.93.04-1.35-.1-.11-.21-.22-.35-.31l-3.18-1.85c-.25-.15-.53-.22-.81-.22h0Z"/>
                </g>
                <g>
                  <g>
                    <g>
                      <path d="M125.73,284.93c-.24,0-.47-.06-.68-.18l-3.18-1.84c-.63-.37-.86-1.16-.53-1.8l.66-1.27c.24-.45.7-.73,1.21-.73.24,0,.47.06.68.18l3.18,1.84c.63.37.86,1.16.52,1.8l-.65,1.26c-.24.45-.7.73-1.21.73Z"/>
                      <path class="cls-2" d="M123.21,279.36h0c.19,0,.39.05.56.15l3.18,1.85c.51.3.7.94.43,1.47l-.65,1.26c-.19.37-.57.6-.99.6-.19,0-.38-.05-.55-.15l-3.18-1.84c-.51-.3-.7-.94-.43-1.47l.66-1.27c.19-.37.57-.6.99-.6M123.21,278.86c-.58,0-1.14.31-1.43.87l-.66,1.27c-.4.76-.12,1.7.62,2.14l3.18,1.84c.25.15.53.22.8.22.58,0,1.14-.31,1.43-.87l.65-1.26c.4-.76.12-1.7-.62-2.13l-3.18-1.85c-.25-.15-.53-.22-.81-.22h0Z"/>
                    </g>
                    <g>
                      <path d="M119.24,281.18c-.24,0-.47-.06-.68-.18l-3.18-1.84c-.63-.36-.86-1.16-.53-1.8l.66-1.27c.24-.45.7-.73,1.21-.73.24,0,.47.06.68.18l3.18,1.84c.63.36.86,1.16.52,1.8l-.65,1.26c-.23.45-.7.73-1.21.73Z"/>
                      <path class="cls-2" d="M116.72,275.61h0c.19,0,.39.05.56.15l3.18,1.85c.51.3.7.94.43,1.47l-.65,1.26c-.19.37-.57.6-.99.6-.19,0-.38-.05-.55-.15l-3.18-1.84c-.52-.3-.7-.94-.43-1.47l.66-1.27c.19-.37.57-.6.99-.6M116.72,275.11c-.58,0-1.14.31-1.43.87l-.66,1.27c-.4.76-.12,1.71.62,2.14l3.18,1.84c.25.15.53.22.8.22.58,0,1.14-.31,1.43-.87l.65-1.26c.4-.76.12-1.7-.62-2.13l-3.18-1.85c-.25-.15-.53-.22-.81-.22h0Z"/>
                    </g>
                    <g>
                      <path d="M112.74,277.43c-.24,0-.47-.06-.68-.18l-3.18-1.84c-.63-.36-.86-1.16-.53-1.8l.66-1.27c.24-.45.7-.73,1.21-.73.24,0,.47.06.68.18l3.18,1.85c.63.36.86,1.16.52,1.8l-.65,1.26c-.24.45-.7.73-1.21.73Z"/>
                      <path class="cls-2" d="M110.22,271.86h0c.19,0,.39.05.55.15l3.18,1.85c.51.3.7.94.43,1.47l-.65,1.26c-.19.37-.57.6-.99.6-.19,0-.38-.05-.55-.15l-3.18-1.84c-.52-.3-.7-.94-.43-1.47l.66-1.27c.19-.37.57-.6.99-.6M110.22,271.36c-.58,0-1.14.31-1.43.87l-.66,1.27c-.4.76-.12,1.71.62,2.14l3.18,1.84c.25.15.53.22.8.22.58,0,1.14-.31,1.43-.87l.65-1.26c.4-.76.12-1.7-.62-2.13l-3.18-1.85c-.25-.15-.53-.22-.81-.22h0Z"/>
                    </g>
                  </g>
                  <g>
                    <path d="M125.43,284.46c-.24,0-.47-.06-.68-.18l-3.18-1.84c-.11-.06-.2-.16-.29-.26-.11-.31-.1-.72.08-1.06l.66-1.27c.24-.45.7-.73,1.21-.73.24,0,.47.06.68.18l3.18,1.85c.11.06.2.16.29.26.11.31.1.72-.08,1.06l-.65,1.26c-.23.45-.7.73-1.21.73Z"/>
                    <path class="cls-2" d="M123.21,279.36h0c.19,0,.39.05.55.15l3.18,1.85c.05.03.11.08.17.14.07.2.12.52-.05.85l-.65,1.26c-.19.37-.57.6-.99.6-.19,0-.38-.05-.55-.15l-3.18-1.84c-.06-.03-.11-.08-.17-.15-.07-.2-.12-.52.05-.85l.66-1.27c.19-.37.57-.6.99-.6M123.21,278.86c-.58,0-1.14.31-1.43.87l-.66,1.27c-.23.44-.21.93-.04,1.35.11.11.21.23.35.31l3.18,1.84c.25.15.53.22.8.22.58,0,1.14-.31,1.43-.87l.65-1.26c.23-.44.21-.93.04-1.35-.1-.11-.21-.22-.35-.31l-3.18-1.85c-.25-.15-.53-.22-.81-.22h0Z"/>
                  </g>
                  <g>
                    <path d="M118.93,280.71c-.24,0-.47-.06-.68-.18l-3.18-1.84c-.11-.06-.2-.16-.29-.26-.11-.31-.1-.72.08-1.06l.66-1.27c.23-.45.7-.73,1.21-.73.24,0,.47.06.68.18l3.18,1.85c.11.06.19.15.29.25.12.32.11.73-.07,1.07l-.65,1.26c-.24.45-.7.73-1.21.73Z"/>
                    <path class="cls-2" d="M116.72,275.61c.19,0,.39.05.55.15l3.18,1.85c.05.03.11.08.17.14.07.2.12.52-.05.85l-.65,1.26c-.19.37-.57.6-.99.6-.19,0-.38-.05-.55-.15l-3.18-1.84c-.06-.03-.11-.08-.17-.14-.07-.2-.12-.52.05-.85l.66-1.27c.19-.37.57-.6.99-.6M116.72,275.11c-.58,0-1.14.31-1.43.87l-.66,1.27c-.23.44-.21.93-.04,1.35.11.11.21.23.35.31l3.18,1.84c.25.15.53.22.8.22.58,0,1.14-.31,1.43-.87l.65-1.26c.23-.44.21-.92.04-1.35-.1-.11-.21-.23-.35-.31l-3.18-1.85c-.25-.15-.53-.22-.81-.22h0Z"/>
                  </g>
                  <g>
                    <path d="M112.43,276.96c-.24,0-.47-.06-.68-.18l-3.18-1.84c-.11-.06-.2-.16-.29-.26-.11-.31-.1-.72.08-1.06l.66-1.27c.24-.45.7-.73,1.21-.73.24,0,.47.06.68.18l3.18,1.85c.11.06.2.16.29.26.11.31.1.72-.08,1.06l-.65,1.26c-.24.45-.7.73-1.21.73Z"/>
                    <path class="cls-2" d="M110.22,271.86h0c.19,0,.39.05.56.15l3.18,1.85c.05.03.11.08.17.14.07.2.12.52-.05.85l-.65,1.26c-.19.37-.57.6-.99.6-.19,0-.38-.05-.55-.15l-3.18-1.84c-.06-.03-.11-.09-.17-.14-.07-.2-.12-.52.05-.85l.66-1.27c.19-.37.57-.6.99-.6M110.22,271.36c-.58,0-1.14.31-1.43.87l-.66,1.27c-.23.44-.21.93-.04,1.35.11.11.21.23.35.31l3.18,1.84c.25.15.53.22.8.22.58,0,1.14-.31,1.43-.87l.65-1.26c.23-.44.21-.93.04-1.35-.1-.11-.21-.22-.35-.3l-3.18-1.85c-.25-.15-.53-.22-.81-.22h0Z"/>
                  </g>
                </g>
              </g>
            </g>
            <g>
              <path d="M151.2,245.48c-.08,0-.16-.02-.23-.06l-23.7-13.69c-.31-.18-.43-.58-.26-.9l3.48-6.7c.14-.26.3-.51.49-.73.2-.23.43-.42.65-.55.21-.12.41-.18.59-.18.08,0,.16.01.23.04l4.8,1.99c.21.12,15.1,8.77,21.86,12.69-.63-.26-1.16-.48-1.4-.58-.13-.05-.27-.08-.42-.08-.27,0-.55.08-.84.25-.27.16-.53.38-.78.65-.21.24-.4.52-.56.82l-3.51,6.77c-.08.15-.23.25-.4.25Z"/>
              <path class="cls-2" d="M132.23,222.92h0c.05,0,.1,0,.14.02l4.78,1.98c.61.35,12.76,7.41,19.94,11.58-.24.03-.49.12-.75.27-.3.17-.58.41-.84.71-.23.26-.43.55-.6.87l-3.51,6.77c-.04.08-.12.11-.18.11-.04,0-.07,0-.1-.03l-23.7-13.68c-.2-.11-.27-.36-.17-.57l3.48-6.7c.13-.25.28-.47.46-.68.19-.21.39-.38.59-.5.17-.1.33-.15.46-.15M132.23,222.42c-.23,0-.47.08-.71.22-.25.14-.49.35-.71.6-.2.22-.38.48-.53.77l-3.48,6.7c-.23.44-.07.98.36,1.23l23.7,13.68c.11.06.23.09.35.09.25,0,.5-.14.63-.38l3.51-6.77c.15-.29.33-.55.53-.78.22-.26.47-.46.72-.6.24-.14.49-.22.71-.22.12,0,.23.02.33.06,0,0,4.8,1.99,4.9,2.04,0,0-25.07-14.57-25.17-14.61l-4.8-1.99c-.1-.04-.21-.06-.33-.06h0Z"/>
            </g>
            <g>
              <g>
                <path d="M132.13,292.85c-.43-.25-.47-1.06-.11-1.88.17-.34,26.09-50.24,26.35-50.74.14-.26.3-.51.49-.73.21-.23.43-.42.65-.55.21-.12.41-.19.59-.19.08,0,.16.01.23.04l.52.22c-.17.04-.34.11-.51.21-.27.16-.53.38-.78.65-.22.25-.41.52-.56.82l-26.23,50.49c-.31.69-.44,1.32-.39,1.82l-.27-.18Z"/>
                <path class="cls-2" d="M160.11,239.02s.07,0,.11.01c-.29.17-.57.41-.83.7-.23.26-.43.55-.6.87l-26.24,50.52c-.23.51-.37.99-.41,1.42-.17-.25-.18-.82.1-1.44.22-.43,26.09-50.25,26.35-50.75.13-.25.29-.48.46-.68.19-.21.39-.39.59-.5.17-.1.33-.15.47-.15M160.11,238.52c-.23,0-.47.08-.72.22-.24.14-.49.35-.71.6-.2.22-.38.48-.53.77,0,0-26.23,50.49-26.36,50.76-.42.95-.35,1.88.2,2.19l1.01.67c-.47-.36-.51-1.26,0-2.41l26.23-50.49c.15-.29.33-.55.53-.77.22-.26.47-.46.72-.6.24-.14.49-.22.71-.22.12,0,.23.02.33.06,0,0,4.8,1.99,4.9,2.04,0,0-1.09-.72-1.18-.76l-4.8-1.99c-.1-.04-.21-.06-.33-.06h0ZM133.01,293.73s.05.03.08.05l-.08-.05h0Z"/>
              </g>
              <g>
                <path d="M138.27,295.6c-.06,0-.12,0-.17-.03l-4.83-1.97c-.15-.06-.27-.19-.33-.39-.16-.45-.05-1.13.3-1.77l26.23-50.5c.29-.56.71-1.02,1.15-1.28.21-.12.41-.18.59-.18.08,0,.16.01.23.04l4.8,1.99c.12.05.21.14.26.28.14.35.05.91-.23,1.45l-26.59,51.17c-.24.45-.58.82-.93,1.03-.17.1-.34.15-.48.15Z"/>
                <path class="cls-2" d="M161.2,239.74h0c.05,0,.1,0,.14.02l4.82,2s.07.03.11.14c.08.22.08.67-.22,1.24l-26.59,51.16c-.22.41-.52.75-.83.93-.13.08-.26.12-.35.12-.03,0-.06,0-.07,0l-4.83-1.97s-.13-.05-.19-.24c-.1-.29-.09-.87.29-1.57l26.23-50.49c.27-.52.65-.95,1.05-1.18.17-.1.33-.15.46-.15M161.2,239.24c-.23,0-.47.08-.71.22-.46.27-.92.76-1.24,1.38l-26.23,50.49c-.59,1.08-.52,2.22.16,2.5l4.83,1.97c.08.03.17.05.26.05.19,0,.4-.07.6-.18.38-.22.75-.61,1.03-1.13l26.6-51.17c.49-.96.4-1.87-.16-2.08l-4.8-1.99c-.1-.04-.21-.06-.33-.06h0Z"/>
              </g>
            </g>
          </g>
        </g>
      </g>
      <g id="_3" data-name="3">
        <g id="_13" data-name="13">
          <g>
            <path d="M284.88,508.82c-1.24,0-2.46-.33-3.54-.95l-120.23-69.42c-.81-.47-1.29-1.3-1.29-2.24,0-.93.48-1.77,1.29-2.24l35.12-20.28c1.07-.62,2.3-.95,3.54-.95s2.46.33,3.54.95l120.23,69.42c.81.47,1.29,1.3,1.29,2.24,0,.93-.48,1.77-1.29,2.24l-35.12,20.28c-1.07.62-2.3.95-3.54.95Z"/>
            <path class="cls-2" d="M199.77,412.87c1.22,0,2.42.32,3.47.93l120.23,69.42c.77.44,1.23,1.24,1.23,2.13,0,.89-.46,1.69-1.23,2.13l-35.12,20.28c-1.06.61-2.26.93-3.47.93s-2.42-.32-3.47-.93l-120.23-69.42c-.77-.44-1.23-1.24-1.23-2.13s.46-1.69,1.23-2.13l35.12-20.28c1.06-.61,2.26-.93,3.47-.93M199.77,412.62c-1.24,0-2.49.32-3.6.96l-35.12,20.28c-1.81,1.04-1.81,3.65,0,4.69l120.23,69.42c1.11.64,2.36.96,3.6.96s2.49-.32,3.6-.96l35.12-20.28c1.81-1.04,1.81-3.65,0-4.69l-120.23-69.42c-1.11-.64-2.36-.96-3.6-.96h0Z"/>
          </g>
          <g>
            <g>
              <path d="M278.44,484.86c-2,0-3.89-.44-5.32-1.24-1.47-.83-2.28-1.93-2.29-3.1l-.02-249.42,15.26-.04.02,249.42c0,1.13-.75,2.21-2.13,3.03-1.46.87-3.42,1.35-5.52,1.35Z"/>
              <path class="cls-2" d="M285.95,231.18l.02,249.29c0,1.09-.73,2.13-2.07,2.93-1.44.86-3.38,1.34-5.46,1.34s-3.84-.44-5.26-1.23c-1.43-.8-2.22-1.86-2.22-2.99l-.02-249.29,15.01-.04M286.2,230.93l-15.51.04.02,249.54c0,1.17.79,2.33,2.35,3.21,1.5.84,3.44,1.26,5.38,1.26s4.06-.46,5.59-1.37c1.47-.88,2.2-2.01,2.19-3.14l-.02-249.54h0Z"/>
            </g>
            <g>
              <path d="M210.24,445.48c-2,0-3.89-.44-5.32-1.24-1.47-.82-2.28-1.93-2.29-3.1l-.02-249.42,15.26-.04.02,249.42c0,1.13-.75,2.21-2.13,3.03-1.46.87-3.42,1.35-5.52,1.35Z"/>
              <path class="cls-2" d="M217.75,191.8l.02,249.29c0,1.09-.73,2.13-2.07,2.93-1.44.86-3.38,1.34-5.46,1.34s-3.84-.44-5.26-1.23c-1.43-.8-2.22-1.86-2.22-2.99l-.02-249.29,15.01-.04M218,191.55l-15.51.04.02,249.54c0,1.17.79,2.33,2.35,3.21,1.5.84,3.44,1.26,5.38,1.26s4.06-.46,5.59-1.37c1.47-.88,2.2-2.01,2.19-3.14l-.02-249.54h0Z"/>
            </g>
          </g>
          <g>
            <g class="cls-1">
              <g>
                <path d="M209.87,9.36c-2.79-1.6-5.47-2.41-7.96-2.41-.99,0-1.94.13-2.82.39l10.39-6.04c1.35-.79,2.9-1.18,4.61-1.18,2.41,0,5,.78,7.71,2.31l-11.93,6.93Z"/>
                <path class="cls-2" d="M214.1.25h0c2.33,0,4.83.73,7.45,2.18l-11.68,6.79c-2.79-1.59-5.46-2.39-7.95-2.39-.69,0-1.37.06-2.01.19l9.64-5.6c1.33-.77,2.86-1.17,4.55-1.17M214.1,0c-1.74,0-3.32.41-4.68,1.2l-12.18,7.08c1.36-.79,2.94-1.2,4.68-1.2,2.4,0,5.1.78,7.95,2.43l12.18-7.08C219.2.78,216.5,0,214.1,0h0Z"/>
              </g>
              <g>
                <path d="M312.85,336.08c2.3-2.21,3.56-5.76,3.57-10.23l.19-234.24,11.93-6.93-.19,234.09c-.01,5.37-1.83,9.37-5.12,11.28l-10.38,6.03Z"/>
                <path class="cls-2" d="M328.41,84.89l-.19,233.88c-.02,5.32-1.81,9.29-5.05,11.17l-9.63,5.6c1.94-2.25,2.99-5.59,3.01-9.69l.19-234.17,11.68-6.79M328.66,84.45l-12.18,7.08-.19,234.31c-.02,5.6-1.99,9.54-5.18,11.39l12.18-7.08c3.19-1.85,5.16-5.79,5.18-11.39l.19-234.31h0Z"/>
              </g>
              <g>
                <polygon points="210.12 9.51 222.05 2.57 310.69 53.75 298.76 60.68 210.12 9.51"/>
                <path class="cls-2" d="M222.05,2.72l88.38,51.03-11.68,6.79L210.37,9.51l11.68-6.79M222.05,2.43l-12.18,7.08,88.88,51.32,12.18-7.08L222.05,2.43h0Z"/>
              </g>
              <g>
                <path d="M316.61,91.31c-.07-11.2-7.91-24.78-17.6-30.49l11.93-6.93c9.72,5.65,17.6,19.3,17.6,30.49l-11.93,6.93Z"/>
                <path class="cls-2" d="M310.94,54.04c9.64,5.64,17.44,19.16,17.48,30.27l-11.68,6.79c-.17-11.12-7.9-24.52-17.48-30.27l11.69-6.79M310.94,53.75l-12.18,7.08c9.82,5.67,17.76,19.42,17.73,30.71l12.18-7.08c.03-11.28-7.91-25.04-17.73-30.71h0Z"/>
              </g>
              <g>
                <path d="M306.44,338.3c-2.47,0-5.14-.82-7.93-2.43l-88.88-51.32c-9.76-5.64-17.68-19.34-17.64-30.56l.19-234.31c.02-7.7,3.75-12.49,9.74-12.49,2.46,0,5.12.81,7.89,2.41l88.88,51.32c9.77,5.64,17.7,19.37,17.67,30.6l-.19,234.31c-.02,7.69-3.75,12.46-9.73,12.46Z"/>
                <path class="cls-2" d="M201.92,7.08v.25c2.44,0,5.07.81,7.83,2.4l88.88,51.32c9.74,5.62,17.63,19.3,17.6,30.49l-.19,234.31c-.02,7.61-3.7,12.34-9.6,12.34-2.45,0-5.1-.81-7.87-2.41l-88.88-51.32c-9.73-5.62-17.61-19.28-17.58-30.45l.19-234.31c.02-7.62,3.71-12.36,9.62-12.36v-.25M201.92,7.08c-5.83,0-9.84,4.62-9.87,12.61l-.19,234.31c-.03,11.28,7.91,25.01,17.71,30.67l88.88,51.32c2.87,1.66,5.59,2.44,7.99,2.44,5.82,0,9.83-4.6,9.85-12.59l.19-234.31c.03-11.28-7.91-25.04-17.73-30.71L209.87,9.51c-2.86-1.65-5.56-2.43-7.95-2.43h0Z"/>
              </g>
            </g>
            <g>
              <path d="M186.93,23.89l12.09-7.03c1.35-.79,2.9-1.18,4.61-1.18,2.46,0,5.12.81,7.89,2.41l81.7,47.17c9.77,5.64,17.7,19.37,17.67,30.6l-.19,226.02c-.01,5.37-1.83,9.37-5.12,11.28l-12.05,7L186.93,23.89Z"/>
              <path class="cls-2" d="M203.64,15.8c2.44,0,5.07.81,7.83,2.4l81.7,47.17c9.74,5.62,17.63,19.3,17.6,30.49l-.19,226.02c-.02,5.32-1.81,9.29-5.05,11.17l-11.91,6.92L187.08,23.94l12-6.98c1.33-.77,2.86-1.17,4.55-1.17M203.64,15.55c-1.74,0-3.32.41-4.68,1.2l-12.18,7.08,106.69,316.51,12.18-7.08c3.19-1.85,5.16-5.79,5.18-11.39l.19-226.02c.03-11.28-7.91-25.04-17.73-30.71l-81.7-47.17c-2.86-1.65-5.56-2.43-7.95-2.43h0Z"/>
            </g>
            <g class="cls-1">
              <g>
                <path d="M179.07,27.15c-2.79-1.6-5.46-2.41-7.95-2.41-.99,0-1.94.13-2.82.39l10.39-6.04c1.35-.79,2.9-1.18,4.61-1.18,2.41,0,5,.78,7.7,2.31l-11.93,6.93Z"/>
                <path class="cls-2" d="M183.3,18.03h0c2.33,0,4.83.73,7.45,2.18l-11.68,6.79c-2.79-1.59-5.46-2.39-7.95-2.39-.69,0-1.36.06-2.01.19l9.64-5.6c1.33-.77,2.86-1.17,4.55-1.17M183.3,17.78c-1.74,0-3.32.41-4.68,1.2l-12.18,7.08c1.36-.79,2.94-1.2,4.67-1.2,2.4,0,5.1.78,7.96,2.43l12.18-7.08c-2.86-1.65-5.56-2.43-7.95-2.43h0Z"/>
              </g>
              <g>
                <path d="M282.05,353.86c2.3-2.21,3.56-5.76,3.57-10.23l.19-234.24,11.93-6.93-.19,234.09c-.02,5.37-1.83,9.37-5.12,11.28l-10.38,6.03Z"/>
                <path class="cls-2" d="M297.61,102.67l-.19,233.88c-.01,5.32-1.81,9.29-5.05,11.17l-9.63,5.6c1.94-2.25,2.99-5.59,3.01-9.69l.19-234.17,11.68-6.79M297.86,102.24l-12.18,7.08-.19,234.31c-.02,5.6-1.99,9.54-5.18,11.39l12.18-7.08c3.19-1.85,5.16-5.79,5.18-11.39l.19-234.31h0Z"/>
              </g>
              <g>
                <polygon points="179.32 27.29 191.25 20.36 279.89 71.53 267.96 78.46 179.32 27.29"/>
                <path class="cls-2" d="M191.25,20.5l88.38,51.03-11.68,6.79-88.38-51.03,11.68-6.79M191.25,20.21l-12.18,7.08,88.88,51.32,12.18-7.08-88.88-51.32h0Z"/>
              </g>
              <g>
                <path d="M285.81,109.1c-.07-11.2-7.91-24.78-17.6-30.49l11.93-6.93c9.72,5.65,17.6,19.3,17.6,30.49l-11.93,6.93Z"/>
                <path class="cls-2" d="M280.14,71.82c9.64,5.64,17.44,19.16,17.48,30.27l-11.68,6.79c-.17-11.12-7.9-24.52-17.48-30.27l11.68-6.79M280.14,71.53l-12.18,7.08c9.82,5.67,17.76,19.42,17.73,30.71l12.18-7.08c.03-11.28-7.91-25.04-17.73-30.71h0Z"/>
              </g>
              <g>
                <path d="M275.64,356.09c-2.47,0-5.14-.82-7.93-2.43l-88.88-51.32c-9.76-5.63-17.67-19.34-17.64-30.56l.19-234.31c.02-7.7,3.75-12.49,9.74-12.49,2.46,0,5.12.81,7.89,2.41l88.88,51.32c9.77,5.64,17.7,19.37,17.67,30.6l-.19,234.31c-.02,7.69-3.75,12.46-9.73,12.46Z"/>
                <path class="cls-2" d="M171.12,25.11h0c2.44,0,5.07.81,7.83,2.4l88.88,51.32c9.74,5.62,17.63,19.3,17.6,30.49l-.19,234.31c-.02,7.61-3.7,12.34-9.6,12.34-2.45,0-5.1-.81-7.87-2.41l-88.88-51.32c-9.73-5.62-17.61-19.28-17.58-30.45l.19-234.31c.02-7.62,3.71-12.36,9.62-12.36M171.12,24.86c-5.83,0-9.84,4.62-9.87,12.61l-.19,234.31c-.03,11.28,7.91,25.01,17.71,30.67l88.88,51.32c2.87,1.66,5.59,2.44,7.99,2.44,5.82,0,9.83-4.6,9.85-12.59l.19-234.31c.03-11.28-7.91-25.04-17.73-30.71l-88.88-51.32c-2.86-1.65-5.56-2.43-7.95-2.43h0Z"/>
              </g>
            </g>
            <g>
              <path d="M271.09,299.43c-.38,0-.74-.1-1.07-.29l-93.85-54.19c-2.07-1.2-3.36-3.43-3.36-5.82V49.32c0-1.18.96-2.15,2.15-2.15.38,0,.74.1,1.07.29l93.85,54.19c2.07,1.2,3.36,3.43,3.36,5.82v189.82c0,.59-.23,1.14-.65,1.54-.4.38-.95.6-1.5.6h0Z"/>
              <path class="cls-2" d="M174.96,47.29c.35,0,.69.09,1.01.27l93.85,54.19c2.03,1.17,3.3,3.36,3.3,5.71v189.82c0,1.12-.91,2.02-2.02,2.02-.35,0-.69-.09-1.01-.27l-93.85-54.19c-2.03-1.17-3.3-3.36-3.3-5.71V49.32c0-1.25,1.05-2.02,2.02-2.02M174.96,47.04c-1.19,0-2.27.95-2.27,2.27v189.82c0,2.45,1.3,4.7,3.42,5.93l93.85,54.19c.37.21.75.31,1.13.31,1.19,0,2.27-.95,2.27-2.27V107.47c0-2.45-1.3-4.7-3.42-5.93l-93.85-54.19c-.37-.21-.75-.31-1.13-.31h0Z"/>
            </g>
            <g>
              <polygon class="cls-2" points="179.72 239.02 179.72 57.57 266.33 107.58 266.33 289.02 179.72 239.02"/>
              <path class="cls-2" d="M179.85,57.79l86.36,49.86v181.16l-86.36-49.86V57.79M179.6,57.36v181.74l86.86,50.14V107.5l-86.86-50.15h0Z"/>
            </g>
            <g>
              <polygon class="cls-2" points="179.72 239.02 179.72 214.97 266.33 264.98 266.33 289.02 179.72 239.02"/>
              <path class="cls-2" d="M179.85,215.19l86.36,49.86v23.76l-86.36-49.86v-23.76M179.6,214.76v24.34l86.86,50.14v-24.34l-86.86-50.15h0Z"/>
            </g>
            <g>
              <polygon points="175.95 266.5 175.95 257.15 204.31 273.52 204.31 282.87 175.95 266.5"/>
              <path class="cls-2" d="M176.08,257.36l28.11,16.23v9.07l-28.11-16.23v-9.07M175.83,256.93v9.64l28.61,16.52v-9.64l-28.61-16.52h0Z"/>
            </g>
            <g>
              <path d="M247.32,319.08v-23.77l20.95,12.1v23.77l-20.95-12.1ZM247.93,318.72l19.73,11.39v-22.35l-19.73-11.39v22.35Z"/>
              <path class="cls-2" d="M247.44,295.53l20.7,11.95v23.48l-20.7-11.95v-23.48M267.78,330.33v-22.64l-.12-.07-19.48-11.24-.38-.22v22.64l.12.07,19.48,11.24.38.22M247.19,295.09v24.06l21.2,12.24v-24.06l-21.2-12.24h0ZM267.53,329.89l-19.48-11.24v-22.06l19.48,11.24v22.06h0Z"/>
            </g>
            <g>
              <polygon points="183.56 279.62 183.56 275.74 204.31 287.72 204.31 291.61 183.56 279.62"/>
              <path class="cls-2" d="M183.68,275.95l20.5,11.84v3.6l-20.5-11.84v-3.6M183.43,275.52v4.17l21,12.13v-4.17l-21-12.13h0Z"/>
            </g>
            <g>
              <polygon points="210.83 318.12 210.83 268.15 238.04 283.86 238.04 333.83 210.83 318.12"/>
              <path class="cls-2" d="M210.96,268.37l26.95,15.56v49.68l-26.95-15.56v-49.68M210.71,267.94v50.26l27.45,15.85v-50.26l-27.45-15.85h0Z"/>
            </g>
            <g>
              <polygon points="221.95 311.7 221.95 274.57 238.04 283.86 238.04 320.99 221.95 311.7"/>
              <path class="cls-2" d="M222.07,274.79l15.84,9.14v36.85l-15.84-9.14v-36.85M221.82,274.35v37.43l16.34,9.43v-37.42l-16.34-9.43h0Z"/>
            </g>
            <g>
              <g>
                <path d="M203.2,321.22l6.02-11.6c1.3.68,13.53,7.11,17.61,8.99l-6.51,12.53-17.12-9.92Z"/>
                <path class="cls-2" d="M209.28,309.79c1.75.92,13.29,6.98,17.38,8.88l-6.39,12.3-16.9-9.8,5.91-11.38M209.17,309.46l-6.14,11.81,17.34,10.05,6.63-12.77c-4.2-1.91-17.83-9.1-17.83-9.1h0Z"/>
              </g>
              <g>
                <polygon points="220.54 331.26 227.06 318.72 228.04 319.16 221.53 331.68 220.54 331.26"/>
                <path class="cls-2" d="M227.12,318.88l.72.33.04.02-6.4,12.3-.75-.33,6.4-12.32M227,318.55l-6.63,12.77,1.21.53,6.63-12.74c-.4-.18-.81-.37-1.21-.55h0Z"/>
              </g>
            </g>
            <g>
              <polygon points="210.71 267.94 238.16 283.79 238.16 334.04 187.83 326.74 210.71 267.94"/>
              <g class="cls-4">
                <g>
                  <g>
                    <g>
                      <g>
                        <path d="M203.09,321.31l6.03-11.61c1.3.69,13.54,7.12,17.63,9l-6.52,12.55-17.14-9.94Z"/>
                        <path class="cls-2" d="M209.17,309.87c1.75.92,13.3,6.99,17.4,8.89l-6.4,12.32-16.92-9.81,5.92-11.39M209.07,309.53l-6.14,11.83,17.36,10.06,6.64-12.78c-4.2-1.91-17.85-9.11-17.85-9.11h0Z"/>
                      </g>
                      <g>
                        <polygon points="220.45 331.36 226.98 318.8 227.96 319.25 221.44 331.78 220.45 331.36"/>
                        <path class="cls-2" d="M227.03,318.96l.76.34-6.41,12.32-.75-.33,6.41-12.33M226.92,318.64l-6.64,12.78,1.21.53,6.64-12.76c-.41-.18-.81-.37-1.21-.55h0Z"/>
                      </g>
                    </g>
                    <g>
                      <path d="M200.2,317.79c-.32-.19-.36-.79-.09-1.41.11-.23,18.65-35.92,18.84-36.28.1-.19.22-.37.36-.53.15-.17.32-.31.48-.4.16-.09.31-.14.45-.14.07,0,.13.01.19.04l3.43,1.42c.15.08,13.01,7.55,17.66,10.25-.79-.33-1.58-.65-1.74-.72-.09-.04-.18-.05-.28-.05-.18,0-.37.06-.57.17-.19.11-.37.26-.54.46-.15.17-.28.36-.39.58l-18.75,36.1c-.25.56-.33,1.07-.25,1.43l-18.78-10.91Z"/>
                      <path class="cls-2" d="M220.24,279.15h0c.05,0,.1,0,.14.03l3.41,1.41c.18.1,10.58,6.14,16.04,9.31,0,0,0,0,0,0-.1-.04-.21-.06-.33-.06-.2,0-.42.06-.64.19-.2.11-.4.28-.57.48-.16.18-.3.38-.41.6l-18.76,36.11c-.21.47-.31.89-.29,1.24l-18.56-10.78c-.26-.15-.28-.7-.04-1.24.14-.28,18.65-35.93,18.84-36.29.1-.19.21-.35.34-.5.14-.16.3-.29.45-.38.14-.08.27-.12.39-.12M220.24,278.9c-.16,0-.34.06-.51.16-.18.1-.35.25-.51.43-.14.16-.27.35-.38.55,0,0-18.75,36.1-18.84,36.29-.3.68-.25,1.34.14,1.57l19.25,11.18c-.39-.23-.44-.89-.05-1.76l18.75-36.1c.11-.21.24-.39.38-.55.16-.18.34-.33.51-.43.17-.1.35-.16.51-.16.08,0,.16.01.24.04,0,0,3.43,1.42,3.5,1.46,0,0-19.25-11.18-19.32-11.21l-3.43-1.42c-.07-.03-.15-.04-.23-.04h0Z"/>
                    </g>
                    <g>
                      <path d="M223.09,330.43s-.1,0-.14-.02l-3.45-1.41c-.12-.05-.21-.15-.27-.31-.12-.34-.04-.84.22-1.31l18.75-36.1c.21-.41.52-.75.84-.93.16-.09.31-.14.45-.14.07,0,.13.01.19.04l3.43,1.42c.1.04.17.12.22.23.1.27.04.68-.17,1.08l-19.02,36.58c-.17.33-.42.6-.68.75-.13.08-.26.12-.37.12Z"/>
                      <path class="cls-2" d="M239.49,290.33h0c.05,0,.1,0,.14.03l3.44,1.43c.06.02.11.08.14.16.07.18.06.54-.16.98l-19.02,36.58c-.17.31-.4.57-.64.71-.11.06-.22.1-.31.1-.03,0-.07,0-.09-.01l-3.46-1.41c-.09-.04-.16-.12-.2-.23-.11-.3-.02-.77.21-1.21l18.75-36.1c.2-.39.49-.71.79-.88.14-.08.27-.12.39-.12M239.49,290.08c-.16,0-.34.06-.51.16-.33.19-.66.54-.89.98l-18.75,36.1c-.42.78-.37,1.59.12,1.79l3.46,1.41c.06.02.12.03.18.03.14,0,.28-.05.43-.13.27-.16.54-.44.73-.81l19.02-36.59c.35-.69.28-1.33-.12-1.48l-3.43-1.42c-.07-.03-.15-.04-.24-.04h0Z"/>
                    </g>
                    <g>
                      <g>
                        <g>
                          <path d="M226.94,305.95c-.07,0-.14-.02-.21-.06l-13.66-7.89c-.19-.11-.26-.35-.16-.55l4.74-9.13c.07-.14.21-.22.37-.22.07,0,.14.02.21.06l13.64,7.92c.19.11.26.35.16.55l-4.72,9.09c-.07.14-.21.22-.37.22Z"/>
                          <path class="cls-2" d="M218.03,288.23h0c.05,0,.1.01.15.04l13.64,7.92c.13.08.18.25.11.38l-4.72,9.09c-.05.1-.15.16-.26.16-.05,0-.1-.01-.14-.04l-13.66-7.89c-.13-.08-.18-.25-.11-.38l4.74-9.13c.05-.1.15-.16.26-.16M218.03,287.98c-.19,0-.38.11-.48.29l-4.74,9.13c-.13.26-.04.57.21.72l13.66,7.89c.08.05.18.07.27.07.19,0,.38-.11.48-.29l4.72-9.09c.13-.26.04-.57-.21-.72l-13.64-7.92c-.09-.05-.18-.07-.27-.07h0Z"/>
                        </g>
                        <g>
                          <path d="M213.08,298.01c-.19-.11-.26-.35-.16-.55l4.74-9.13c.07-.14.21-.22.37-.22.07,0,.14.02.21.06l13.64,7.92c.19.11.26.35.16.55l-.15.29-13-7.55c-.1-.06-.22-.09-.33-.09-.25,0-.48.14-.59.36l-4.47,8.6-.41-.24Z"/>
                          <path class="cls-2" d="M218.03,288.23h0c.05,0,.1.01.15.04l13.64,7.92c.13.08.18.25.11.38l-.09.17-12.89-7.48c-.12-.07-.26-.11-.4-.11-.3,0-.57.16-.7.43l-4.41,8.49-.3-.17c-.13-.08-.18-.25-.11-.39l4.74-9.13c.05-.1.15-.16.26-.16M218.03,287.98c-.19,0-.38.11-.48.29l-4.74,9.13c-.13.26-.04.57.21.72l.52.3,4.53-8.72c.1-.19.29-.29.48-.29.09,0,.19.02.27.07l13.11,7.62.21-.41c.13-.26.04-.57-.21-.72l-13.64-7.92c-.09-.05-.18-.07-.27-.07h0Z"/>
                        </g>
                      </g>
                      <g>
                        <path d="M218.17,320.41c-.18,0-.36-.05-.51-.14l-2.28-1.31c-.48-.27-.65-.87-.4-1.36l.47-.91c.18-.34.53-.55.91-.55.18,0,.36.05.51.14l2.27,1.32c.47.28.65.87.39,1.36l-.47.9c-.18.34-.53.55-.91.55ZM213.53,317.73c-.18,0-.36-.05-.51-.14l-2.27-1.31c-.48-.27-.65-.87-.4-1.36l.47-.9c.18-.34.53-.55.91-.55.18,0,.36.05.51.14l2.27,1.32c.47.28.65.87.39,1.36l-.47.9c-.18.34-.53.55-.91.55h0ZM220.12,316.81c-.18,0-.36-.05-.51-.14l-2.27-1.31c-.48-.27-.65-.87-.4-1.36l.47-.91c.18-.34.53-.55.91-.55.18,0,.36.05.51.14l2.27,1.32c.47.28.65.87.39,1.36l-.47.9c-.18.34-.53.55-.91.55h0ZM208.88,315.05c-.18,0-.36-.05-.51-.14l-2.27-1.31c-.48-.27-.65-.87-.4-1.36l.47-.91c.18-.34.53-.55.91-.55.18,0,.36.05.51.14l2.27,1.32c.47.28.65.87.39,1.36l-.47.9c-.18.34-.53.55-.91.55h0ZM215.47,314.13c-.18,0-.36-.05-.51-.14l-2.27-1.31c-.48-.27-.65-.87-.4-1.36l.47-.9c.18-.34.53-.55.91-.55.18,0,.36.05.51.14l2.27,1.32c.47.28.65.87.39,1.36l-.47.9c-.18.34-.53.55-.91.55h0ZM222.06,313.21c-.18,0-.36-.05-.51-.14l-2.28-1.31c-.48-.27-.65-.87-.4-1.36l.47-.91c.18-.34.53-.55.91-.55.18,0,.36.05.51.14l2.27,1.32c.47.28.65.87.39,1.36l-.47.9c-.18.34-.53.55-.91.55h0ZM210.83,311.45c-.18,0-.36-.05-.51-.14l-2.27-1.31c-.48-.27-.65-.87-.4-1.36l.47-.9c.18-.34.53-.55.91-.55.18,0,.36.05.51.14l2.27,1.32c.47.28.65.87.39,1.36l-.47.9c-.18.34-.53.55-.91.55h0ZM217.42,310.53c-.18,0-.35-.05-.51-.14l-2.28-1.31c-.48-.27-.65-.87-.4-1.36l.47-.91c.18-.34.53-.55.91-.55.18,0,.36.05.51.14l2.27,1.32c.47.28.65.87.39,1.36l-.47.9c-.18.34-.53.55-.91.55ZM224.01,309.61c-.18,0-.36-.05-.51-.14l-2.27-1.31c-.48-.27-.65-.87-.4-1.36l.47-.91c.18-.34.53-.55.91-.55.18,0,.36.05.51.14l2.27,1.32c.47.28.65.87.39,1.36l-.47.9c-.18.34-.53.55-.91.55ZM212.77,307.84c-.18,0-.36-.05-.51-.14l-2.27-1.31c-.48-.27-.65-.87-.4-1.36l.47-.91c.18-.34.53-.55.91-.55.18,0,.36.05.51.14l2.27,1.32c.47.28.65.87.39,1.36l-.47.9c-.18.34-.53.55-.91.55h0ZM219.36,306.92c-.18,0-.36-.05-.51-.14l-2.27-1.31c-.48-.27-.65-.87-.4-1.36l.47-.91c.18-.34.52-.55.91-.55.18,0,.36.05.51.14l2.27,1.32c.47.28.65.87.39,1.36l-.47.9c-.18.34-.53.55-.91.55h0ZM214.72,304.24c-.18,0-.36-.05-.51-.14l-2.28-1.31c-.48-.27-.65-.87-.4-1.36l.47-.91c.18-.34.53-.55.91-.55.18,0,.36.05.51.14l2.27,1.32c.47.28.65.87.39,1.36l-.47.9c-.18.34-.53.55-.91.55h0Z"/>
                        <path class="cls-2" d="M212.92,300.1c.16,0,.31.04.45.12l2.27,1.32c.42.24.57.77.35,1.19l-.47.9c-.16.3-.46.49-.8.49-.16,0-.31-.04-.45-.12l-2.27-1.31c-.42-.24-.57-.77-.35-1.2l.47-.91c.16-.3.46-.49.8-.49M217.56,302.78c.16,0,.31.04.45.12l2.27,1.32c.42.24.57.77.35,1.19l-.47.9c-.16.3-.46.49-.8.49-.16,0-.31-.04-.45-.12l-2.27-1.31c-.42-.24-.57-.77-.35-1.19l.47-.91c.16-.3.46-.49.8-.49M210.97,303.7c.16,0,.31.04.45.12l2.27,1.32c.42.24.57.77.35,1.19l-.47.9c-.16.3-.46.49-.8.49-.16,0-.31-.04-.45-.12l-2.27-1.31c-.42-.24-.57-.77-.35-1.2l.47-.91c.16-.3.46-.49.8-.49M222.21,305.46h0c.16,0,.31.04.45.12l2.27,1.32c.42.24.57.77.35,1.19l-.47.9c-.16.3-.46.49-.8.49-.16,0-.31-.04-.45-.12l-2.27-1.31c-.42-.24-.57-.77-.35-1.2l.47-.91c.16-.3.46-.49.8-.49M215.62,306.38c.16,0,.31.04.45.12l2.27,1.32c.42.24.57.77.35,1.19l-.47.9c-.16.3-.46.49-.8.49-.16,0-.31-.04-.45-.12l-2.27-1.31c-.42-.24-.57-.77-.35-1.19l.47-.91c.16-.3.46-.49.8-.49M209.03,307.3c.16,0,.31.04.45.12l2.27,1.32c.42.24.57.77.35,1.19l-.47.9c-.16.3-.46.49-.8.49-.16,0-.31-.04-.45-.12l-2.27-1.31c-.42-.24-.57-.77-.35-1.19l.47-.91c.16-.3.46-.49.8-.49M220.26,309.06c.16,0,.31.04.45.12l2.27,1.32c.42.24.57.77.35,1.19l-.47.9c-.16.3-.46.49-.8.49-.16,0-.31-.04-.45-.12l-2.28-1.31c-.42-.24-.57-.77-.35-1.19l.47-.91c.16-.3.46-.49.8-.49M213.67,309.98c.16,0,.31.04.45.12l2.27,1.32c.42.24.57.77.35,1.19l-.47.9c-.16.3-.46.49-.8.49-.16,0-.31-.04-.45-.12l-2.28-1.31c-.42-.24-.57-.77-.35-1.2l.47-.9c.16-.3.46-.49.8-.49M207.08,310.9c.16,0,.31.04.45.12l2.27,1.32c.42.24.57.77.35,1.19l-.47.9c-.16.3-.46.49-.8.49-.16,0-.31-.04-.45-.12l-2.27-1.31c-.42-.24-.57-.77-.35-1.19l.47-.91c.16-.3.46-.49.8-.49M218.31,312.66c.16,0,.31.04.45.12l2.27,1.32c.42.24.57.77.35,1.19l-.47.9c-.16.3-.46.49-.8.49-.16,0-.31-.04-.45-.12l-2.28-1.31c-.42-.24-.57-.77-.35-1.19l.47-.91c.16-.3.46-.49.8-.49M211.72,313.58c.16,0,.31.04.45.12l2.27,1.32c.42.24.57.77.35,1.19l-.47.9c-.16.3-.46.49-.8.49-.16,0-.31-.04-.45-.12l-2.27-1.31c-.42-.24-.57-.77-.35-1.2l.47-.91c.16-.3.46-.49.8-.49M216.37,316.26c.16,0,.31.04.45.12l2.27,1.32c.42.24.57.77.35,1.19l-.47.9c-.16.3-.46.49-.8.49-.16,0-.31-.04-.45-.12l-2.28-1.31c-.42-.24-.57-.77-.35-1.19l.47-.91c.16-.3.46-.49.8-.49M212.92,299.85c-.41,0-.82.22-1.02.62l-.47.91c-.28.55-.09,1.22.45,1.53l2.27,1.31c.18.1.38.15.57.15.42,0,.82-.22,1.02-.62l.47-.9c.28-.54.09-1.22-.44-1.52l-2.27-1.32c-.18-.11-.38-.16-.58-.16h0ZM217.56,302.53c-.41,0-.82.22-1.02.62l-.47.91c-.28.55-.09,1.22.45,1.53l2.27,1.31c.18.1.38.15.57.15.41,0,.82-.22,1.02-.62l.47-.9c.28-.54.09-1.22-.44-1.53l-2.27-1.32c-.18-.11-.38-.16-.58-.16h0ZM210.97,303.45c-.42,0-.82.22-1.02.62l-.47.91c-.28.55-.09,1.22.45,1.53l2.27,1.31c.18.1.38.15.57.15.42,0,.82-.22,1.02-.62l.47-.9c.28-.54.09-1.22-.44-1.52l-2.27-1.32c-.18-.11-.38-.16-.58-.16h0ZM222.21,305.21c-.42,0-.82.22-1.02.62l-.47.91c-.28.55-.09,1.22.45,1.53l2.27,1.31c.18.1.38.15.57.15.42,0,.82-.22,1.02-.62l.47-.9c.28-.54.09-1.22-.44-1.52l-2.27-1.32c-.18-.11-.38-.16-.58-.16h0ZM215.62,306.13c-.41,0-.82.22-1.02.62l-.47.91c-.28.55-.09,1.22.45,1.53l2.27,1.31c.18.1.38.15.57.15.41,0,.82-.22,1.02-.62l.47-.9c.28-.55.09-1.22-.44-1.53l-2.27-1.32c-.18-.11-.38-.16-.58-.16h0ZM209.03,307.05c-.42,0-.82.22-1.02.62l-.47.91c-.28.55-.09,1.22.45,1.53l2.27,1.31c.18.1.38.15.57.15.42,0,.82-.22,1.02-.62l.47-.9c.28-.54.09-1.22-.44-1.53l-2.27-1.32c-.18-.11-.38-.16-.58-.16h0ZM220.26,308.81c-.41,0-.82.22-1.02.62l-.47.91c-.28.55-.09,1.22.45,1.53l2.28,1.31c.18.1.38.15.57.15.41,0,.82-.22,1.02-.62l.47-.9c.28-.54.09-1.22-.44-1.53l-2.27-1.32c-.18-.11-.38-.16-.58-.16h0ZM213.67,309.73c-.41,0-.82.22-1.02.62l-.47.9c-.28.55-.09,1.22.45,1.53l2.28,1.31c.18.1.38.15.57.15.41,0,.82-.22,1.02-.62l.47-.9c.28-.55.09-1.22-.44-1.53l-2.27-1.32c-.18-.11-.38-.16-.58-.16h0ZM207.08,310.65c-.41,0-.82.22-1.02.62l-.47.91c-.28.55-.09,1.22.45,1.53l2.27,1.31c.18.1.38.15.57.15.42,0,.82-.22,1.02-.62l.47-.9c.28-.54.09-1.22-.44-1.53l-2.27-1.32c-.18-.11-.38-.16-.58-.16h0ZM218.31,312.41c-.42,0-.82.22-1.02.62l-.47.91c-.28.55-.09,1.22.45,1.53l2.28,1.31c.18.1.38.15.57.15.41,0,.82-.22,1.02-.62l.47-.9c.28-.54.09-1.22-.44-1.53l-2.27-1.32c-.18-.11-.38-.16-.58-.16h0ZM211.72,313.33c-.41,0-.82.22-1.02.62l-.47.91c-.28.55-.09,1.22.45,1.53l2.27,1.31c.18.1.38.15.57.15.42,0,.82-.22,1.02-.62l.47-.9c.28-.54.09-1.22-.44-1.52l-2.27-1.32c-.18-.11-.38-.16-.58-.16h0ZM216.37,316.01c-.41,0-.82.22-1.02.62l-.47.91c-.28.55-.09,1.22.45,1.53l2.28,1.31c.18.1.38.15.57.15.41,0,.82-.22,1.02-.62l.47-.9c.28-.54.09-1.22-.44-1.53l-2.27-1.32c-.18-.11-.38-.16-.58-.16h0Z"/>
                      </g>
                      <g>
                        <path d="M217.95,320.07c-.18,0-.35-.05-.51-.14l-2.28-1.31c-.08-.05-.15-.12-.21-.19-.11-.27-.1-.57.04-.83l.47-.91c.18-.34.53-.55.91-.55.18,0,.36.05.51.14l2.27,1.32c.08.05.15.12.22.19.1.26.09.56-.04.82l-.47.9c-.18.34-.53.55-.91.55h0ZM213.31,317.39c-.18,0-.36-.05-.51-.14l-2.27-1.31c-.09-.05-.16-.12-.22-.2-.1-.26-.09-.56.05-.82l.47-.9c.18-.34.53-.55.91-.55.18,0,.36.05.51.14l2.27,1.32c.08.05.15.12.21.19.1.26.1.57-.04.83l-.47.9c-.18.34-.53.55-.91.55h0ZM219.9,316.47c-.18,0-.36-.05-.51-.14l-2.27-1.31c-.08-.05-.15-.12-.22-.19-.1-.26-.1-.57.04-.83l.47-.91c.18-.34.53-.55.91-.55.18,0,.36.05.51.14l2.27,1.32c.08.05.15.12.22.2.1.26.09.56-.04.82l-.47.9c-.18.34-.53.55-.91.55h0ZM208.66,314.7c-.18,0-.36-.05-.51-.14l-2.27-1.31c-.08-.05-.15-.12-.22-.19-.1-.26-.1-.57.04-.83l.47-.91c.18-.34.53-.55.91-.55.18,0,.36.05.51.14l2.27,1.32c.08.05.14.11.21.19.11.27.1.57-.04.83l-.47.9c-.18.34-.53.55-.91.55ZM215.25,313.79c-.18,0-.36-.05-.51-.14l-2.28-1.31c-.08-.05-.15-.12-.22-.19-.1-.26-.09-.57.04-.83l.47-.91c.18-.34.53-.55.91-.55.18,0,.36.05.51.14l2.27,1.32c.08.05.15.12.22.19.1.26.09.57-.04.83l-.47.9c-.18.34-.53.55-.91.55h0ZM221.84,312.87c-.18,0-.36-.05-.51-.14l-2.27-1.31c-.08-.05-.15-.12-.21-.19-.11-.26-.1-.57.04-.83l.47-.91c.18-.34.53-.55.91-.55.18,0,.36.05.51.14l2.27,1.32c.08.05.14.11.21.19.11.27.1.57-.04.83l-.47.9c-.18.34-.53.55-.91.55ZM210.61,311.1c-.18,0-.36-.05-.51-.14l-2.28-1.31c-.09-.05-.16-.12-.22-.2-.1-.26-.09-.56.05-.82l.47-.9c.18-.34.53-.55.91-.55.18,0,.36.05.51.14l2.27,1.32c.08.05.15.12.21.19.1.26.1.57-.04.83l-.47.9c-.18.34-.53.55-.91.55h0ZM217.2,310.18c-.18,0-.36-.05-.51-.14l-2.27-1.31c-.09-.05-.16-.12-.22-.2-.1-.26-.09-.56.05-.82l.47-.91c.18-.34.53-.55.91-.55.18,0,.36.05.51.14l2.27,1.32c.08.05.15.12.22.19.1.26.09.57-.04.83l-.47.9c-.18.34-.53.55-.91.55h0ZM223.79,309.26c-.18,0-.36-.05-.51-.14l-2.27-1.31c-.08-.05-.15-.12-.22-.19-.1-.26-.1-.57.04-.83l.47-.91c.18-.34.53-.55.91-.55.18,0,.36.05.51.14l2.27,1.32c.08.05.15.12.22.19.1.26.09.56-.04.82l-.47.9c-.18.34-.53.55-.91.55ZM212.55,307.5c-.18,0-.36-.05-.51-.14l-2.27-1.31c-.09-.05-.16-.12-.22-.2-.1-.25-.09-.56.04-.82l.47-.91c.18-.34.53-.55.91-.55.18,0,.36.05.51.14l2.27,1.32c.08.05.15.12.22.19.1.26.09.56-.04.82l-.47.9c-.18.34-.53.55-.91.55h0ZM219.14,306.58c-.18,0-.36-.05-.51-.14l-2.27-1.31c-.08-.05-.15-.12-.22-.19-.1-.26-.09-.56.04-.82l.47-.91c.18-.34.53-.55.91-.55.18,0,.36.05.51.14l2.27,1.32c.08.05.14.11.21.19.11.27.1.57-.04.83l-.47.9c-.18.34-.53.55-.91.55h0ZM214.5,303.9c-.18,0-.36-.05-.51-.14l-2.28-1.31c-.08-.05-.15-.12-.22-.19-.1-.26-.09-.57.04-.83l.47-.91c.18-.34.53-.55.91-.55.18,0,.36.05.51.14l2.27,1.32c.08.05.14.11.21.19.11.27.1.57-.04.83l-.47.9c-.18.34-.53.55-.91.55h0Z"/>
                        <path class="cls-2" d="M212.92,300.1c.16,0,.31.04.45.12l2.27,1.32c.06.03.1.08.16.14.09.25.08.5-.03.71l-.47.9c-.16.3-.46.49-.8.49-.16,0-.31-.04-.45-.12l-2.28-1.31c-.06-.03-.1-.08-.16-.14-.09-.25-.08-.5.03-.71l.47-.91c.16-.3.46-.49.8-.49M217.56,302.78c.16,0,.31.04.45.12l2.27,1.32c.06.03.1.08.16.14.09.25.08.5-.03.71l-.47.9c-.16.3-.46.49-.8.49-.16,0-.31-.04-.45-.12l-2.27-1.31c-.06-.03-.11-.08-.16-.14-.09-.25-.08-.5.03-.71l.47-.91c.16-.3.46-.49.8-.49M210.97,303.7c.16,0,.31.04.45.12l2.27,1.32c.06.03.1.08.16.14.09.25.08.5-.03.71l-.47.9c-.16.3-.46.49-.8.49-.16,0-.31-.04-.45-.12l-2.27-1.31c-.06-.03-.11-.08-.16-.14-.09-.25-.08-.5.03-.71l.47-.91c.16-.3.46-.49.8-.49M222.21,305.46h0c.16,0,.31.04.45.12l2.27,1.32c.06.03.11.08.16.14.09.25.08.5-.03.71l-.47.9c-.16.3-.46.49-.8.49-.16,0-.31-.04-.45-.12l-2.27-1.31c-.06-.03-.11-.08-.16-.14-.09-.25-.08-.5.03-.71l.47-.91c.16-.3.46-.49.8-.49M215.62,306.38c.16,0,.31.04.45.12l2.27,1.32c.06.03.1.08.16.14.09.25.08.5-.03.71l-.47.9c-.16.3-.46.49-.8.49-.16,0-.31-.04-.45-.12l-2.28-1.31c-.06-.03-.11-.08-.16-.14-.09-.25-.08-.5.03-.71l.47-.91c.16-.3.46-.49.8-.49M209.03,307.3c.16,0,.31.04.45.12l2.27,1.32c.06.03.11.08.16.14.09.25.08.5-.03.71l-.47.9c-.16.3-.46.49-.8.49-.16,0-.31-.04-.45-.12l-2.27-1.31c-.06-.03-.11-.08-.16-.14-.09-.25-.08-.5.03-.71l.47-.91c.16-.3.46-.49.8-.49M220.26,309.06c.16,0,.31.04.45.12l2.27,1.32c.05.03.1.08.16.14.09.25.08.5-.03.71l-.47.9c-.16.3-.46.49-.8.49-.16,0-.31-.04-.45-.12l-2.27-1.31c-.06-.03-.11-.08-.16-.14-.09-.25-.08-.5.03-.71l.47-.91c.16-.3.46-.49.8-.49M213.67,309.98c.16,0,.31.04.45.12l2.27,1.32c.06.03.1.08.16.14.09.25.08.5-.03.71l-.47.9c-.16.3-.46.49-.8.49-.16,0-.31-.04-.45-.12l-2.28-1.31c-.06-.03-.1-.08-.16-.14-.09-.25-.08-.5.03-.71l.47-.91c.16-.3.46-.49.8-.49M207.08,310.9c.16,0,.31.04.45.12l2.27,1.32c.06.03.1.08.16.14.09.25.08.5-.03.71l-.47.9c-.16.3-.46.49-.8.49-.16,0-.31-.04-.45-.12l-2.27-1.31c-.06-.03-.11-.08-.16-.14-.09-.25-.08-.5.03-.71l.47-.91c.16-.3.46-.49.8-.49M218.31,312.66c.16,0,.31.04.45.12l2.27,1.32c.05.03.1.08.16.14.09.25.08.5-.03.71l-.47.9c-.16.3-.46.49-.8.49-.16,0-.31-.04-.45-.12l-2.27-1.31c-.06-.03-.11-.08-.16-.14-.09-.25-.08-.5.03-.71l.47-.91c.16-.3.46-.49.8-.49M211.72,313.58c.16,0,.31.04.45.12l2.27,1.32c.05.03.1.08.16.14.09.25.08.5-.03.71l-.47.9c-.16.3-.46.49-.8.49-.16,0-.31-.04-.45-.12l-2.27-1.31c-.06-.03-.11-.08-.16-.14-.09-.25-.08-.5.03-.71l.47-.9c.16-.3.46-.49.8-.49M216.37,316.26c.16,0,.31.04.45.12l2.27,1.32c.05.03.1.08.16.14.09.25.08.5-.03.71l-.47.9c-.16.3-.46.49-.8.49-.16,0-.31-.04-.45-.12l-2.27-1.31c-.06-.03-.11-.08-.16-.14-.09-.25-.08-.5.03-.71l.47-.91c.16-.3.46-.49.8-.49M212.92,299.85c-.41,0-.82.22-1.02.62l-.47.91c-.16.31-.15.66-.03.97.08.08.15.16.25.22l2.28,1.31c.18.1.38.15.57.15.41,0,.82-.22,1.02-.62l.47-.9c.16-.31.15-.66.03-.96-.07-.08-.15-.16-.25-.22l-2.27-1.32c-.18-.11-.38-.16-.58-.16h0ZM217.56,302.53c-.41,0-.82.22-1.02.62l-.47.91c-.16.31-.15.66-.03.96.08.08.15.16.25.22l2.27,1.31c.18.1.38.15.57.15.42,0,.82-.22,1.02-.62l.47-.9c.16-.31.15-.66.03-.96-.07-.08-.15-.16-.25-.22l-2.27-1.32c-.18-.11-.38-.16-.58-.16h0ZM210.97,303.45c-.42,0-.82.22-1.02.62l-.47.91c-.16.31-.15.66-.03.97.08.08.15.16.25.22l2.28,1.31c.18.1.38.15.57.15.41,0,.82-.22,1.02-.62l.47-.9c.16-.31.15-.66.03-.96-.07-.08-.15-.16-.25-.22l-2.27-1.32c-.18-.11-.38-.16-.58-.16h0ZM222.21,305.21c-.41,0-.82.22-1.02.62l-.47.91c-.16.31-.15.66-.03.97.08.08.15.16.25.22l2.27,1.31c.18.1.38.15.57.15.41,0,.82-.22,1.02-.62l.47-.9c.16-.31.15-.66.03-.97-.07-.08-.15-.16-.25-.22l-2.27-1.32c-.18-.11-.38-.16-.58-.16h0ZM215.62,306.13c-.41,0-.82.22-1.02.62l-.47.91c-.16.31-.15.66-.03.96.08.08.15.16.25.22l2.27,1.31c.18.1.38.15.57.15.41,0,.82-.22,1.02-.62l.47-.9c.16-.31.15-.66.03-.96-.07-.08-.15-.16-.25-.22l-2.27-1.32c-.18-.11-.38-.16-.58-.16h0ZM209.03,307.05c-.41,0-.82.22-1.02.62l-.47.91c-.16.31-.15.66-.03.97.08.08.15.16.25.22l2.27,1.31c.18.1.38.15.57.15.41,0,.82-.22,1.02-.62l.47-.9c.16-.31.15-.66.03-.96-.07-.08-.15-.16-.25-.22l-2.27-1.32c-.18-.11-.38-.16-.58-.16h0ZM220.26,308.81c-.42,0-.82.22-1.02.62l-.47.91c-.16.31-.15.66-.03.97.08.08.15.16.25.22l2.27,1.31c.18.1.38.15.57.15.41,0,.82-.22,1.02-.62l.47-.9c.16-.31.15-.66.03-.97-.07-.08-.15-.16-.25-.22l-2.27-1.32c-.18-.11-.38-.16-.58-.16h0ZM213.67,309.73c-.41,0-.82.22-1.02.62l-.47.91c-.16.31-.15.66-.03.97.08.08.15.16.25.22l2.27,1.31c.18.1.38.15.57.15.41,0,.82-.22,1.02-.62l.47-.9c.16-.31.15-.66.03-.97-.08-.08-.15-.16-.25-.22l-2.27-1.32c-.18-.11-.38-.16-.58-.16h0ZM207.08,310.65c-.41,0-.82.22-1.02.62l-.47.91c-.16.31-.15.66-.03.97.08.08.15.16.25.22l2.27,1.31c.18.1.38.15.57.15.41,0,.82-.22,1.02-.62l.47-.9c.16-.31.15-.66.03-.97-.07-.08-.15-.16-.25-.22l-2.27-1.32c-.18-.11-.38-.16-.58-.16h0ZM218.31,312.41c-.41,0-.82.22-1.02.62l-.47.91c-.16.31-.15.66-.03.97.08.08.15.16.25.22l2.27,1.31c.18.1.38.15.57.15.42,0,.82-.22,1.02-.62l.47-.9c.16-.31.15-.66.03-.97-.08-.08-.15-.16-.25-.22l-2.27-1.32c-.18-.11-.38-.16-.58-.16h0ZM211.72,313.33c-.42,0-.82.22-1.02.62l-.47.9c-.16.31-.15.66-.03.97.08.08.15.16.25.22l2.27,1.31c.18.1.38.15.57.15.41,0,.82-.22,1.02-.62l.47-.9c.16-.31.15-.66.03-.96-.08-.08-.15-.16-.25-.22l-2.27-1.32c-.18-.11-.38-.16-.58-.16h0ZM216.37,316.01c-.41,0-.82.22-1.02.62l-.47.91c-.16.31-.15.66-.03.97.08.08.15.16.25.22l2.27,1.31c.18.1.38.15.57.15.41,0,.82-.22,1.02-.62l.47-.9c.16-.31.15-.66.03-.96-.08-.08-.15-.16-.25-.22l-2.27-1.32c-.18-.11-.38-.16-.58-.16h0Z"/>
                      </g>
                      <g>
                        <g>
                          <g>
                            <path d="M216.23,324.01c-.18,0-.36-.05-.51-.14l-2.27-1.31c-.48-.27-.65-.87-.4-1.36l.47-.91c.18-.34.53-.55.91-.55.18,0,.36.05.51.14l2.27,1.32c.47.28.65.87.39,1.36l-.47.9c-.18.34-.53.55-.91.55Z"/>
                            <path class="cls-2" d="M214.42,319.86h0c.16,0,.31.04.45.12l2.27,1.32c.42.24.57.77.35,1.19l-.47.9c-.16.3-.46.49-.8.49-.16,0-.31-.04-.45-.12l-2.27-1.31c-.42-.24-.57-.77-.35-1.19l.47-.91c.16-.3.46-.49.8-.49M214.42,319.61c-.41,0-.82.22-1.02.62l-.47.91c-.28.55-.09,1.22.45,1.53l2.27,1.31c.18.1.38.15.57.15.41,0,.82-.22,1.02-.62l.47-.9c.28-.55.09-1.22-.44-1.53l-2.27-1.32c-.18-.11-.38-.16-.58-.16h0Z"/>
                          </g>
                          <g>
                            <path d="M211.58,321.33c-.18,0-.36-.05-.51-.14l-2.27-1.31c-.48-.27-.65-.87-.4-1.36l.47-.91c.18-.34.53-.55.91-.55.18,0,.36.05.51.14l2.27,1.32c.47.27.65.87.39,1.36l-.47.9c-.18.34-.53.55-.91.55Z"/>
                            <path class="cls-2" d="M209.78,317.18h0c.16,0,.31.04.45.12l2.27,1.32c.42.24.57.77.35,1.19l-.47.9c-.16.3-.46.49-.8.49-.16,0-.31-.04-.45-.12l-2.27-1.31c-.42-.24-.57-.77-.35-1.2l.47-.91c.16-.3.46-.49.8-.49M209.78,316.93c-.41,0-.82.22-1.02.62l-.47.91c-.28.55-.09,1.22.45,1.53l2.27,1.31c.18.1.38.15.57.15.42,0,.82-.22,1.02-.62l.47-.9c.28-.54.09-1.22-.44-1.52l-2.27-1.32c-.18-.11-.38-.16-.58-.16h0Z"/>
                          </g>
                          <g>
                            <path d="M206.94,318.65c-.18,0-.36-.05-.51-.14l-2.28-1.31c-.48-.27-.65-.87-.4-1.36l.47-.91c.18-.34.53-.55.91-.55.18,0,.36.05.51.14l2.27,1.32c.47.28.65.87.39,1.36l-.47.9c-.18.34-.53.55-.91.55Z"/>
                            <path class="cls-2" d="M205.13,314.5h0c.16,0,.31.04.45.12l2.27,1.32c.42.24.57.77.35,1.19l-.47.9c-.16.3-.46.49-.8.49-.16,0-.31-.04-.45-.12l-2.28-1.31c-.42-.24-.57-.77-.35-1.19l.47-.91c.16-.3.46-.49.8-.49M205.13,314.25c-.42,0-.82.22-1.02.62l-.47.91c-.28.55-.09,1.22.45,1.53l2.28,1.31c.18.1.38.15.57.15.41,0,.82-.22,1.02-.62l.47-.9c.28-.54.09-1.22-.44-1.53l-2.27-1.32c-.18-.11-.38-.16-.58-.16h0Z"/>
                          </g>
                        </g>
                        <g>
                          <path d="M216.01,323.67c-.18,0-.36-.05-.51-.14l-2.27-1.31c-.09-.05-.16-.12-.22-.2-.1-.26-.09-.56.05-.82l.47-.9c.18-.34.53-.55.91-.55.18,0,.36.05.51.14l2.27,1.32c.08.05.15.12.22.19.1.26.09.56-.04.82l-.47.9c-.18.34-.53.55-.91.55Z"/>
                          <path class="cls-2" d="M214.42,319.61v.25c.16,0,.31.04.45.12l2.27,1.32c.05.03.1.08.16.14.09.25.08.5-.03.71l-.47.9c-.16.3-.46.49-.8.49-.16,0-.31-.04-.45-.12l-2.27-1.31c-.06-.03-.11-.08-.16-.14-.09-.25-.08-.5.03-.71l.47-.9c.16-.3.46-.49.8-.49v-.25M214.42,319.61c-.41,0-.82.22-1.02.62l-.47.9c-.16.31-.15.66-.03.97.08.08.15.16.25.22l2.27,1.31c.18.1.38.15.57.15.41,0,.82-.22,1.02-.62l.47-.9c.16-.31.15-.66.03-.96-.08-.08-.15-.16-.25-.22l-2.27-1.32c-.18-.11-.38-.16-.58-.16h0Z"/>
                        </g>
                        <g>
                          <path d="M211.36,320.99c-.18,0-.36-.05-.51-.14l-2.28-1.31c-.08-.05-.15-.12-.22-.19-.1-.26-.1-.57.04-.83l.47-.91c.18-.34.53-.55.91-.55.18,0,.36.05.51.14l2.27,1.32c.08.05.15.12.22.2.1.26.09.56-.04.82l-.47.9c-.18.34-.53.55-.91.55Z"/>
                          <path class="cls-2" d="M209.78,317.18h0c.16,0,.31.04.45.12l2.27,1.32c.06.03.1.08.16.14.09.25.08.5-.03.71l-.47.9c-.16.3-.46.49-.8.49-.16,0-.31-.04-.45-.12l-2.27-1.31c-.06-.03-.11-.08-.16-.14-.09-.25-.08-.5.03-.71l.47-.91c.15-.3.46-.49.8-.49M209.78,316.93c-.42,0-.82.22-1.02.62l-.47.91c-.16.31-.15.66-.03.97.08.08.15.16.25.22l2.27,1.31c.18.1.38.15.57.15.41,0,.82-.22,1.02-.62l.47-.9c.16-.31.15-.66.03-.96-.08-.08-.15-.16-.25-.22l-2.27-1.32c-.18-.11-.38-.16-.58-.16h0Z"/>
                        </g>
                        <g>
                          <path d="M206.72,318.3c-.18,0-.36-.05-.51-.14l-2.27-1.31c-.08-.05-.15-.12-.21-.19-.11-.27-.1-.57.04-.83l.47-.91c.18-.34.53-.55.91-.55.18,0,.36.05.51.14l2.27,1.32c.08.05.15.12.21.19.1.26.1.57-.04.83l-.47.9c-.18.34-.53.55-.91.55Z"/>
                          <path class="cls-2" d="M205.13,314.25v.25c.16,0,.31.04.45.12l2.27,1.32c.05.03.1.08.16.14.09.25.08.5-.03.71l-.47.9c-.16.3-.46.49-.8.49-.16,0-.31-.04-.45-.12l-2.27-1.31c-.06-.03-.11-.08-.16-.14-.09-.25-.08-.5.03-.71l.47-.91c.16-.3.46-.49.8-.49v-.25M205.13,314.25c-.41,0-.82.22-1.02.62l-.47.91c-.16.31-.15.66-.03.97.08.08.15.16.25.22l2.27,1.31c.18.1.38.15.57.15.41,0,.82-.22,1.02-.62l.47-.9c.16-.31.15-.66.03-.97-.08-.08-.15-.16-.25-.22l-2.27-1.32c-.18-.11-.38-.16-.58-.16h0Z"/>
                        </g>
                      </g>
                    </g>
                  </g>
                  <g>
                    <path d="M234.43,295.8c-.07,0-.13-.02-.19-.05l-16.95-9.78c-.25-.14-.34-.46-.21-.71l2.49-4.79c.1-.19.22-.37.36-.53.15-.17.32-.31.48-.41.16-.09.31-.14.45-.14.07,0,.13.01.19.04l3.43,1.42c.16.08,11.93,6.93,16.34,9.49-.79-.33-1.58-.66-1.75-.73-.09-.04-.18-.05-.28-.05-.18,0-.38.06-.57.17-.19.11-.37.26-.54.46-.15.17-.28.37-.39.58l-2.51,4.84c-.06.13-.19.2-.34.2Z"/>
                    <path class="cls-2" d="M220.87,279.51h0c.05,0,.1,0,.14.03l3.41,1.41c.18.1,9.58,5.56,14.72,8.54,0,0,0,0-.01,0-.1-.04-.21-.06-.33-.06-.2,0-.42.06-.64.19-.2.12-.39.28-.57.48-.16.18-.3.38-.41.6l-2.51,4.84c-.04.08-.13.14-.23.14-.04,0-.09-.01-.13-.03l-16.95-9.78c-.19-.11-.26-.35-.16-.55l2.49-4.79c.1-.19.21-.35.34-.5.14-.16.3-.29.45-.38.14-.08.27-.12.39-.12M220.87,279.26c-.16,0-.34.06-.51.16-.18.1-.35.25-.51.43-.14.16-.27.35-.38.55l-2.49,4.79c-.16.31-.05.7.26.88l16.95,9.78c.08.05.17.07.25.07.18,0,.36-.1.45-.27l2.51-4.84c.11-.21.24-.39.38-.55.16-.18.34-.33.51-.43.17-.1.35-.16.51-.16.08,0,.16.01.23.04,0,0,3.43,1.42,3.5,1.46,0,0-17.93-10.42-17.99-10.45l-3.43-1.43c-.07-.03-.15-.04-.23-.04h0Z"/>
                  </g>
                </g>
              </g>
            </g>
          </g>
          <g>
            <g>
              <path d="M213.29,97.82c-.56,0-1.2-.2-1.85-.58l-18.05-10.42c-2.08-1.2-3.77-3.86-3.77-5.94v-3.71c0-1.31.67-2.09,1.79-2.09.56,0,1.2.2,1.85.58l18.05,10.42c2.08,1.2,3.77,3.86,3.77,5.94v3.71c0,.65-.17,1.19-.5,1.56-.31.35-.76.53-1.3.53h0Z"/>
              <path class="cls-2" d="M191.41,75.21c.54,0,1.15.19,1.79.56l18.05,10.42c2.04,1.18,3.71,3.79,3.71,5.83v3.71c0,1.23-.62,1.96-1.67,1.96-.54,0-1.15-.19-1.79-.56l-18.05-10.42c-2.04-1.18-3.71-3.79-3.71-5.83v-3.71c0-1.23.62-1.96,1.67-1.96M191.41,74.96c-1.15,0-1.92.79-1.92,2.21v3.71c0,2.12,1.72,4.82,3.83,6.04l18.05,10.42c.7.4,1.35.59,1.91.59,1.15,0,1.92-.79,1.92-2.21v-3.71c0-2.12-1.72-4.82-3.83-6.04l-18.05-10.42c-.7-.4-1.35-.59-1.91-.59h0Z"/>
            </g>
            <g>
              <path d="M213.29,122.23c-.56,0-1.2-.2-1.85-.58l-18.05-10.42c-2.08-1.2-3.77-3.86-3.77-5.94v-3.71c0-1.31.67-2.09,1.79-2.09.56,0,1.2.2,1.85.58l18.05,10.42c2.08,1.2,3.77,3.86,3.77,5.94v3.71c0,.65-.17,1.19-.5,1.56-.31.35-.76.53-1.3.53h0Z"/>
              <path class="cls-2" d="M191.41,99.62c.54,0,1.15.19,1.79.56l18.05,10.42c2.04,1.18,3.71,3.8,3.71,5.83v3.71c0,1.23-.62,1.96-1.67,1.96-.54,0-1.15-.19-1.79-.56l-18.05-10.42c-2.04-1.18-3.71-3.79-3.71-5.83v-3.71c0-1.23.62-1.96,1.67-1.96M191.41,99.37c-1.15,0-1.92.79-1.92,2.21v3.71c0,2.12,1.72,4.82,3.83,6.05l18.05,10.42c.7.4,1.35.59,1.91.59,1.15,0,1.92-.79,1.92-2.21v-3.71c0-2.12-1.72-4.82-3.83-6.05l-18.05-10.42c-.7-.4-1.35-.59-1.91-.59h0Z"/>
            </g>
            <g>
              <path d="M213.29,146.63c-.56,0-1.2-.2-1.85-.58l-18.05-10.42c-2.08-1.2-3.77-3.86-3.77-5.94v-3.71c0-1.31.67-2.09,1.79-2.09.56,0,1.2.2,1.85.58l18.05,10.42c2.08,1.2,3.77,3.86,3.77,5.94v3.71c0,.65-.17,1.19-.5,1.56-.31.35-.76.53-1.3.53h0Z"/>
              <path class="cls-2" d="M191.41,124.02c.54,0,1.15.19,1.79.56l18.05,10.42c2.04,1.18,3.71,3.79,3.71,5.83v3.71c0,1.23-.62,1.96-1.67,1.96-.54,0-1.15-.19-1.79-.56l-18.05-10.42c-2.04-1.18-3.71-3.79-3.71-5.83v-3.71c0-1.23.62-1.96,1.67-1.96M191.41,123.77c-1.15,0-1.92.79-1.92,2.21v3.71c0,2.12,1.72,4.82,3.83,6.04l18.05,10.42c.7.4,1.35.59,1.91.59,1.15,0,1.92-.79,1.92-2.21v-3.71c0-2.12-1.72-4.82-3.83-6.04l-18.05-10.42c-.7-.4-1.35-.59-1.91-.59h0Z"/>
            </g>
            <g>
              <path d="M213.29,171.04c-.56,0-1.2-.2-1.85-.58l-18.05-10.42c-2.08-1.2-3.77-3.86-3.77-5.94v-3.71c0-1.31.67-2.09,1.79-2.09.56,0,1.2.2,1.85.58l18.05,10.42c2.08,1.2,3.77,3.86,3.77,5.94v3.71c0,.65-.17,1.19-.5,1.56-.31.35-.76.53-1.3.53h0Z"/>
              <path class="cls-2" d="M191.41,148.43c.54,0,1.15.19,1.79.56l18.05,10.42c2.04,1.18,3.71,3.8,3.71,5.83v3.71c0,1.23-.62,1.96-1.67,1.96-.54,0-1.15-.19-1.79-.56l-18.05-10.42c-2.04-1.18-3.71-3.79-3.71-5.83v-3.71c0-1.23.62-1.96,1.67-1.96M191.41,148.18c-1.15,0-1.92.79-1.92,2.21v3.71c0,2.12,1.72,4.82,3.83,6.05l18.05,10.42c.7.4,1.35.59,1.91.59,1.15,0,1.92-.79,1.92-2.21v-3.71c0-2.12-1.72-4.82-3.83-6.05l-18.05-10.42c-.7-.4-1.35-.59-1.91-.59h0Z"/>
            </g>
            <g>
              <path class="cls-2" d="M248.93,115.99v-1.43l7.43,4.29v1.43l-7.43-4.29ZM226.39,98.47v-1.43l29.96,17.3v1.43l-29.96-17.3Z"/>
              <path d="M226.52,97.26l29.71,17.16v1.14l-29.71-17.16v-1.14M249.05,114.78l7.18,4.15v1.14l-7.18-4.15v-1.14M226.27,96.83v1.72l30.21,17.44v-1.72l-30.21-17.44h0ZM248.8,114.34v1.72l7.68,4.43v-1.72l-7.68-4.43h0Z"/>
            </g>
            <g>
              <path class="cls-2" d="M235.4,132.34v-1.43l20.96,12.1v1.43l-20.96-12.1ZM228.46,123.83v-1.43l27.9,16.11v1.43l-27.9-16.11Z"/>
              <path d="M228.58,122.62l27.65,15.96v1.14l-27.65-15.96v-1.14M235.52,131.13l20.71,11.96v1.14l-20.71-11.96v-1.14M228.33,122.19v1.72l28.15,16.25v-1.72l-28.15-16.25h0ZM235.27,130.7v1.72l21.21,12.25v-1.72l-21.21-12.25h0Z"/>
            </g>
            <g>
              <path class="cls-2" d="M243.41,161.14v-1.43l12.95,7.48v1.43l-12.95-7.48ZM237.05,152.97v-1.43l19.31,11.15v1.43l-19.31-11.15Z"/>
              <path d="M237.17,151.75l19.06,11v1.14l-19.06-11v-1.14M243.53,159.93l12.7,7.33v1.14l-12.7-7.33v-1.14M236.92,151.32v1.72l19.56,11.29v-1.72l-19.56-11.29h0ZM243.28,159.49v1.72l13.2,7.62v-1.72l-13.2-7.62h0Z"/>
            </g>
            <g>
              <polygon class="cls-2" points="238.7 182.59 238.7 181.17 256.36 191.36 256.36 192.79 238.7 182.59"/>
              <path d="M238.83,181.38l17.4,10.05v1.14l-17.4-10.05v-1.14M238.58,180.95v1.72l17.9,10.34v-1.72l-17.9-10.34h0Z"/>
            </g>
            <g>
              <path d="M213.29,195.44c-.56,0-1.2-.2-1.85-.58l-18.05-10.42c-2.08-1.2-3.77-3.86-3.77-5.94v-3.71c0-1.31.67-2.09,1.79-2.09.56,0,1.2.2,1.85.58l18.05,10.42c2.08,1.2,3.77,3.86,3.77,5.94v3.71c0,.65-.17,1.19-.5,1.56-.31.35-.76.53-1.3.53h0Z"/>
              <path class="cls-2" d="M191.41,172.83c.54,0,1.15.19,1.79.56l18.05,10.42c2.04,1.18,3.71,3.79,3.71,5.83v3.71c0,1.23-.62,1.96-1.67,1.96-.54,0-1.15-.19-1.79-.56l-18.05-10.42c-2.04-1.18-3.71-3.79-3.71-5.83v-3.71c0-1.23.62-1.96,1.67-1.96M191.41,172.58c-1.15,0-1.92.79-1.92,2.21v3.71c0,2.12,1.72,4.82,3.83,6.04l18.05,10.42c.7.4,1.35.59,1.91.59,1.15,0,1.92-.79,1.92-2.21v-3.71c0-2.12-1.72-4.82-3.83-6.04l-18.05-10.42c-.7-.4-1.35-.59-1.91-.59h0Z"/>
            </g>
            <g>
              <path d="M213.29,219.85c-.56,0-1.2-.2-1.85-.58l-18.05-10.42c-2.08-1.2-3.77-3.86-3.77-5.94v-3.71c0-1.31.67-2.09,1.79-2.09.56,0,1.2.2,1.85.58l18.05,10.42c2.08,1.2,3.77,3.86,3.77,5.94v3.71c0,.65-.17,1.19-.5,1.56-.31.35-.76.53-1.3.53h0Z"/>
              <path class="cls-2" d="M191.41,197.24c.54,0,1.15.19,1.79.56l18.05,10.42c2.04,1.18,3.71,3.8,3.71,5.83v3.71c0,1.23-.62,1.96-1.67,1.96-.54,0-1.15-.19-1.79-.56l-18.05-10.42c-2.04-1.18-3.71-3.79-3.71-5.83v-3.71c0-1.23.62-1.96,1.67-1.96M191.41,196.99c-1.15,0-1.92.79-1.92,2.21v3.71c0,2.12,1.72,4.82,3.83,6.05l18.05,10.42c.7.4,1.35.59,1.91.59,1.15,0,1.92-.79,1.92-2.21v-3.71c0-2.12-1.72-4.82-3.83-6.05l-18.05-10.42c-.7-.4-1.35-.59-1.91-.59h0Z"/>
            </g>
            <g>
              <polygon class="cls-2" points="228.46 172.65 228.46 171.22 256.36 187.33 256.36 188.75 228.46 172.65"/>
              <path d="M228.58,171.43l27.65,15.96v1.14l-27.65-15.96v-1.14M228.33,171v1.72l28.15,16.25v-1.72l-28.15-16.25h0Z"/>
            </g>
            <g>
              <path class="cls-2" d="M243.41,209.95v-1.43l12.95,7.48v1.43l-12.95-7.48ZM237.05,201.78v-1.43l19.31,11.15v1.43l-19.31-11.15Z"/>
              <path d="M237.17,200.56l19.06,11v1.14l-19.06-11v-1.14M243.53,208.74l12.7,7.33v1.14l-12.7-7.33v-1.14M236.92,200.13v1.72l19.56,11.29v-1.72l-19.56-11.29h0ZM243.28,208.31v1.72l13.2,7.62v-1.72l-13.2-7.62h0Z"/>
            </g>
            <g>
              <path class="cls-2" d="M238.7,231.4v-1.43l17.65,10.19v1.43l-17.65-10.19ZM226.39,219.79v-1.43l29.96,17.3v1.43l-29.96-17.3Z"/>
              <path d="M226.52,218.58l29.71,17.16v1.14l-29.71-17.16v-1.14M238.83,230.19l17.4,10.05v1.14l-17.4-10.05v-1.14M226.27,218.15v1.72l30.21,17.44v-1.72l-30.21-17.44h0ZM238.58,229.76v1.72l17.9,10.34v-1.72l-17.9-10.34h0Z"/>
            </g>
          </g>
        </g>
      </g>
    </g>
  </g>
</svg>