<?xml version="1.0" encoding="UTF-8"?>
<svg id="Capa_2" data-name="Capa 2" xmlns="http://www.w3.org/2000/svg" xmlns:xlink="http://www.w3.org/1999/xlink" viewBox="0 0 187.33 234.19">
  <defs>
    <style>
      .cls-1 {
        fill: none;
      }

      .cls-2 {
        isolation: isolate;
      }

      .cls-3 {
        fill: #fff;
      }

      .cls-4 {
        fill: #0a0a0a;
      }

      .cls-5 {
        clip-path: url(#clippath);
      }
    </style>
    <clipPath id="clippath">
      <polygon class="cls-1" points="133.11 25.01 96.19 3.55 76.64 87.59 113.56 109.04 133.11 25.01"/>
    </clipPath>
  </defs>
  <g id="Capa_2-2" data-name="Capa 2">
    <g>
      <g id="_10" data-name="10">
        <g id="_10-2" data-name="10">
          <g>
            <g>
              <g>
                <path d="M67.35,189.65c-1.08-.71-1.67-1.6-1.67-2.53v-72.66c.37.55.91,1.05,1.62,1.48l5.55,45.15-5.51,28.55Z"/>
                <path class="cls-3" d="M65.94,115.18c.31.33.69.64,1.13.91l5.53,44.95-5.42,28.17c-.81-.62-1.24-1.35-1.25-2.1v-71.94M65.44,112.86v74.26c0,1.06.69,2.12,2.08,2.93l5.58-28.98-5.57-45.27c-1.39-.81-2.09-1.87-2.09-2.93h0Z"/>
              </g>
              <g>
                <path d="M185.46,139.51c.72-.43,1.27-.94,1.63-1.5v72.64c0,.93-.58,1.81-1.64,2.52v-73.67Z"/>
                <path class="cls-3" d="M186.83,138.74v71.92c0,.72-.4,1.42-1.14,2.02v-73.03c.45-.28.83-.59,1.14-.92M187.33,136.4h0s0,0,0,0h0ZM187.33,136.41c0,1.07-.71,2.14-2.13,2.96v74.26c1.41-.82,2.12-1.9,2.12-2.97v-74.24h.01Z"/>
              </g>
              <g>
                <polygon points="67.78 189.91 67.79 116.22 141.27 158.85 141.26 232.53 67.78 189.91"/>
                <path class="cls-3" d="M68.04,116.66l72.98,42.34v73.1s-73-42.34-73-42.34v-73.1M67.54,115.79v74.26s73.97,42.92,73.97,42.92v-74.26s-73.97-42.92-73.97-42.92h0Z"/>
              </g>
              <g>
                <polygon points="151.97 158.85 184.96 139.8 184.94 213.49 151.96 232.53 151.97 158.85"/>
                <path class="cls-3" d="M184.71,140.24v73.1s-32.5,18.76-32.5,18.76v-73.1s32.5-18.76,32.5-18.76M185.21,139.37l-33.49,19.33v74.26s33.48-19.33,33.48-19.33v-74.26h.01Z"/>
              </g>
              <g>
                <path d="M146.6,233.94c-1.82,0-3.54-.4-4.84-1.12v-73.69c1.35.68,3.05,1.05,4.85,1.05s3.5-.37,4.86-1.05v73.69c-1.33.72-3.04,1.12-4.87,1.12Z"/>
                <path class="cls-3" d="M151.22,159.52v22.31s-.01,50.84-.01,50.84c-1.26.66-2.88,1.02-4.6,1.02s-3.34-.36-4.59-1.02v-73.15c1.33.59,2.92.91,4.6.91s3.28-.32,4.6-.91M151.72,158.71c-1.41.82-3.26,1.22-5.11,1.22s-3.69-.41-5.09-1.22v74.26c1.39.82,3.23,1.22,5.08,1.22s3.69-.41,5.1-1.22v-51.14s.01-23.12.01-23.12h0Z"/>
              </g>
            </g>
            <g>
              <g>
                <path d="M67.58,117.06c-1.22-.73-1.89-1.68-1.9-2.67v-8.28c.38.56.94,1.08,1.68,1.52l5.33,8.78-5.11.67Z"/>
                <path class="cls-3" d="M65.94,106.82c.33.36.75.69,1.24.98l5.1,8.39-4.64.61c-1.1-.68-1.7-1.53-1.7-2.41v-7.57M65.44,104.5v9.88c0,1.06.69,2.12,2.08,2.93l5.58-.73-5.57-9.16c-1.39-.81-2.09-1.87-2.09-2.93h0Z"/>
              </g>
              <g>
                <path d="M185.46,131.16c.72-.43,1.27-.94,1.63-1.5v8.26c0,.93-.58,1.81-1.64,2.52v-9.29Z"/>
                <path class="cls-3" d="M186.83,130.38v7.54c0,.72-.4,1.42-1.14,2.02v-8.65c.45-.28.83-.59,1.14-.91M187.33,128.04v.02-.02h0ZM187.33,128.06c0,1.07-.72,2.14-2.13,2.95v9.88c1.41-.82,2.12-1.9,2.12-2.97v-9.86h.01Z"/>
              </g>
              <g>
                <polygon points="67.78 117.17 67.79 107.87 141.27 150.49 141.26 159.8 67.78 117.17"/>
                <path class="cls-3" d="M68.04,108.3l72.98,42.34v8.73s-72.99-42.34-72.99-42.34v-8.73M67.54,107.43v9.88s73.97,42.92,73.97,42.92v-9.88s-73.97-42.92-73.97-42.92h0Z"/>
              </g>
              <g>
                <polygon points="151.97 150.49 184.96 131.45 184.94 140.75 151.96 159.8 151.97 150.49"/>
                <path class="cls-3" d="M184.71,131.88v8.73s-32.5,18.76-32.5,18.76v-8.73s32.5-18.76,32.5-18.76M185.21,131.02l-33.49,19.33v9.88s33.48-19.33,33.48-19.33v-9.88h.01Z"/>
              </g>
              <g>
                <path d="M146.6,161.21c-1.82,0-3.54-.4-4.84-1.12v-9.32c1.35.68,3.05,1.05,4.85,1.05s3.5-.37,4.85-1.05v9.32c-1.32.72-3.04,1.12-4.87,1.12Z"/>
                <path class="cls-3" d="M151.22,151.16v8.77c-1.27.66-2.89,1.02-4.62,1.02s-3.34-.36-4.59-1.02v-8.77c1.33.59,2.92.91,4.6.91s3.28-.32,4.6-.91M151.72,150.35c-1.41.82-3.26,1.22-5.11,1.22s-3.69-.41-5.09-1.22v9.88c1.39.82,3.23,1.22,5.08,1.22s3.69-.41,5.1-1.22v-9.88h.01Z"/>
              </g>
              <g>
                <path d="M146.61,151.32c-1.88,0-3.65-.42-4.97-1.19l-73.98-42.92c-1.27-.74-1.97-1.71-1.97-2.73,0-1.03.71-2,2-2.75l33.49-19.33c1.33-.77,3.1-1.19,4.98-1.19s3.65.42,4.97,1.19l73.98,42.92c1.27.74,1.97,1.71,1.97,2.73,0,1.03-.71,2-2,2.75l-33.49,19.33c-1.33.77-3.1,1.19-4.98,1.19Z"/>
                <path class="cls-3" d="M106.16,81.47c1.84,0,3.56.41,4.84,1.16l73.98,42.92c1.19.69,1.85,1.58,1.85,2.51,0,.93-.67,1.83-1.88,2.53l-33.49,19.33c-1.29.75-3.02,1.16-4.86,1.16s-3.56-.41-4.84-1.16l-73.98-42.92c-1.19-.69-1.85-1.58-1.85-2.51,0-.93.67-1.83,1.88-2.53l33.49-19.33c1.29-.75,3.02-1.16,4.86-1.16M106.16,80.97c-1.85,0-3.69.41-5.11,1.22l-33.49,19.33c-2.82,1.63-2.84,4.28-.03,5.91l73.98,42.92c1.4.82,3.25,1.22,5.09,1.22s3.69-.41,5.11-1.22l33.49-19.33c2.82-1.63,2.84-4.28.03-5.91l-73.98-42.92c-1.4-.82-3.25-1.22-5.09-1.22h0Z"/>
              </g>
            </g>
            <g id="Axonometric_Cube" data-name="Axonometric Cube">
              <g id="Cube_face_-_left" data-name="Cube face - left">
                <polygon points="125.2 179.47 141.27 170.19 141.27 172.12 125.2 181.4 125.2 179.47"/>
                <path class="cls-3" d="M141.02,170.62v1.35l-15.57,8.99v-1.35l15.57-8.99M141.52,169.76l-16.57,9.57v2.5l16.57-9.57v-2.5h0Z"/>
              </g>
              <g id="Cube_face_-_right" data-name="Cube face - right">
                <polygon points="51.19 138.95 51.19 137.03 124.7 179.47 124.7 181.4 51.19 138.95"/>
                <path class="cls-3" d="M51.44,137.46l73.01,42.15v1.35l-73.01-42.15v-1.35M50.94,136.59v2.5l74.01,42.73v-2.5l-74.01-42.73h0Z"/>
              </g>
              <g id="Cube_face_-_top" data-name="Cube face - top">
                <polygon points="51.44 136.59 67.51 127.32 141.02 169.76 124.95 179.04 51.44 136.59"/>
                <path class="cls-3" d="M67.51,127.61l73.01,42.15-15.57,8.99-73.01-42.15,15.57-8.99M67.51,127.03l-16.57,9.57,74.01,42.73,16.57-9.57-74.01-42.73h0Z"/>
              </g>
            </g>
          </g>
          <g>
            <path d="M143.34,139.6c-2.5,0-4.85-.56-6.61-1.58-1.72-.99-2.67-2.3-2.67-3.67s.95-2.68,2.67-3.67c1.76-1.02,4.11-1.58,6.61-1.58s4.85.56,6.61,1.58c1.72.99,2.67,2.3,2.67,3.67s-.95,2.68-2.67,3.67c-1.76,1.02-4.11,1.58-6.61,1.58Z"/>
            <path class="cls-3" d="M143.34,129.35c2.46,0,4.76.55,6.49,1.54,1.64.95,2.54,2.17,2.54,3.46s-.9,2.51-2.54,3.46c-1.72,1-4.03,1.54-6.49,1.54s-4.76-.55-6.49-1.54c-1.64-.95-2.54-2.17-2.54-3.46s.9-2.51,2.54-3.46c1.72-1,4.03-1.54,6.49-1.54M143.34,128.85c-2.44,0-4.88.54-6.74,1.61-3.72,2.15-3.72,5.63,0,7.78,1.86,1.07,4.3,1.61,6.74,1.61s4.88-.54,6.74-1.61c3.72-2.15,3.72-5.63,0-7.78-1.86-1.07-4.3-1.61-6.74-1.61h0Z"/>
          </g>
          <g>
            <g class="cls-2">
              <g>
                <path d="M92.15,111.47c-.25-.14-.36-.49-.31-.95.74-7.32,4.8-18.23,5.64-20.42l26.96,15.64c-.78,2.02-4.95,13.16-5.7,20.62-.02.19-.02.38,0,.54l-26.6-15.43Z"/>
                <path class="cls-3" d="M97.61,90.46l26.53,15.39c-.94,2.47-4.9,13.21-5.64,20.48,0,.04,0,.09-.01.13l-26.21-15.2c-.15-.09-.22-.36-.18-.71.71-7.01,4.5-17.37,5.52-20.08M97.36,89.73c-.25.64-4.96,12.81-5.76,20.76-.07.59.11,1.01.43,1.19l27.4,15.89c-.32-.18-.5-.6-.43-1.2.81-7.95,5.52-20.12,5.76-20.76l-27.4-15.89h0Z"/>
              </g>
              <g>
                <path d="M119.84,127.43c-.17,0-.31-.06-.42-.17-.16-.18-.22-.48-.18-.85.78-7.7,5.24-19.39,5.75-20.7l.17-.44-9.98,2.24,17.77-64.69v77.19s-12.52,7.24-12.52,7.24c-.21.12-.41.18-.58.18h0Z"/>
                <path class="cls-3" d="M132.7,44.68v75.19s-12.4,7.17-12.4,7.17c-.21.12-.37.15-.46.15-.13,0-.19-.05-.23-.09-.11-.12-.15-.36-.12-.66.78-7.66,5.23-19.32,5.73-20.63l.34-.87-.91.21-9.12,2.04,17.17-62.5M133.2,40.97l-18.37,66.88,9.93-2.23c-.25.64-4.96,12.81-5.76,20.76-.09.82.28,1.3.85,1.3.21,0,.45-.07.71-.22l12.66-7.31V40.97h-.01Z"/>
              </g>
            </g>
            <g>
              <g>
                <polygon points="74.76 88.48 95.15 .83 135.28 24.15 114.9 111.8 74.76 88.48"/>
                <path class="cls-3" d="M95.31,1.22l39.68,23.06-20.27,87.14-39.68-23.06L95.31,1.22M94.98.44l-20.5,88.16,40.59,23.59,20.51-88.16L94.98.44h0Z"/>
              </g>
              <g>
                <polygon class="cls-3" points="77.07 87.48 96.5 3.96 132.97 25.15 113.54 108.68 77.07 87.48"/>
                <path class="cls-3" d="M96.67,4.34l36.02,20.93-19.31,83.01-36.02-20.93L96.67,4.34M96.33,3.57l-19.55,84.03,36.92,21.46,19.54-84.03L96.33,3.57h0Z"/>
              </g>
              <g>
                <polygon points="95.66 .55 96.99 .26 136.93 23.48 135.61 23.76 95.66 .55"/>
                <path class="cls-3" d="M96.95.53l39.3,22.84-.6.13L96.35.66l.6-.13M97.03,0l-2.05.44,40.59,23.59,2.05-.44L97.03,0h0Z"/>
              </g>
              <g>
                <polygon points="135.78 24.24 137.28 23.91 116.9 111.54 115.4 111.86 135.78 24.24"/>
                <path class="cls-3" d="M136.95,24.24l-20.25,87.08-.97.21,20.25-87.08.97-.21M137.62,23.59l-2.05.44-20.51,88.16,2.05-.44,20.51-88.16h0Z"/>
              </g>
            </g>
          </g>
          <g>
            <g id="Axonometric_Cylinder" data-name="Axonometric Cylinder">
              <g id="Cylinder_face" data-name="Cylinder face">
                <path d="M143.35,119.31c-.69,0-1.33-.15-1.82-.43-.44-.25-.68-.57-.68-.9s.24-.65.68-.9c.48-.28,1.13-.43,1.82-.43s1.33.15,1.82.43c.44.25.68.57.68.9s-.24.65-.68.9c-.48.28-1.13.43-1.82.43Z"/>
                <path class="cls-3" d="M143.35,116.89c.64,0,1.25.14,1.69.4.35.2.55.45.55.69s-.2.48-.55.69c-.44.25-1.05.4-1.69.4s-1.25-.14-1.69-.4c-.35-.2-.55-.45-.55-.69,0-.23.2-.48.55-.69.44-.25,1.05-.4,1.69-.4M143.35,116.39c-.7,0-1.41.15-1.94.46-1.07.62-1.07,1.62,0,2.24.54.31,1.24.46,1.94.46s1.41-.15,1.94-.46c1.07-.62,1.07-1.62,0-2.24-.54-.31-1.24-.46-1.94-.46h0Z"/>
              </g>
              <g id="Cylinder_body" data-name="Cylinder body">
                <path d="M143.35,135.37c-.69,0-1.33-.15-1.82-.43-.44-.26-.68-.58-.68-.92v-15.02c.12.11.27.22.43.31.56.32,1.29.5,2.07.5s1.51-.18,2.07-.5c.16-.09.31-.2.43-.31v15.04c0,.32-.25.64-.68.89-.48.28-1.13.43-1.82.43Z"/>
                <path class="cls-3" d="M141.1,119.5s.04.02.05.03c.59.34,1.37.53,2.19.53s1.6-.19,2.19-.53c.02-.01.04-.02.05-.03v14.54c0,.23-.21.48-.55.68-.44.25-1.05.4-1.69.4s-1.25-.14-1.69-.4c-.36-.21-.56-.46-.55-.7v-14.52M140.6,117.96s0,.02,0,.03v-.03h0ZM146.09,117.99c0,.4-.27.8-.8,1.11-.54.31-1.24.46-1.94.46s-1.41-.15-1.94-.46c-.53-.31-.8-.71-.8-1.11v16.03c0,.41.26.82.8,1.14.54.31,1.24.46,1.94.46s1.41-.15,1.94-.46c.53-.31.8-.71.8-1.11v-16.06h0Z"/>
              </g>
            </g>
            <g id="Axonometric_Cylinder-2" data-name="Axonometric Cylinder">
              <g id="Cylinder_face-2" data-name="Cylinder face">
                <path d="M143.35,102.51c-1.03,0-2-.23-2.72-.65-.68-.39-1.05-.9-1.05-1.43s.37-1.04,1.05-1.43c.72-.42,1.69-.65,2.72-.65s2,.23,2.72.65c.68.39,1.05.9,1.05,1.43s-.37,1.03-1.05,1.43c-.72.42-1.69.65-2.72.65Z"/>
                <path class="cls-3" d="M143.35,98.61c.99,0,1.91.22,2.6.61.6.35.93.78.93,1.21,0,.43-.33.86-.93,1.21-.69.4-1.61.61-2.6.61s-1.91-.22-2.6-.61c-.6-.35-.93-.78-.93-1.21,0-.43.33-.86.93-1.21.69-.4,1.61-.61,2.6-.61M143.35,98.11c-1.03,0-2.06.23-2.85.68-1.57.91-1.57,2.38,0,3.29.79.45,1.82.68,2.85.68s2.06-.23,2.85-.68c1.57-.91,1.57-2.38,0-3.29-.79-.45-1.82-.68-2.85-.68h0Z"/>
              </g>
              <g id="Cylinder_body-2" data-name="Cylinder body">
                <path d="M143.35,121.42c-1.03,0-2-.23-2.72-.65-.69-.4-1.06-.91-1.05-1.44v-17.67c.21.23.48.45.8.64.8.46,1.85.71,2.97.71s2.17-.25,2.97-.71c.33-.19.6-.4.8-.64v17.71c0,.52-.38,1.02-1.05,1.41-.72.42-1.69.65-2.72.65Z"/>
                <path class="cls-3" d="M139.82,102.23c.13.1.27.2.43.28.84.48,1.93.75,3.1.75s2.26-.27,3.1-.75c.15-.09.3-.18.43-.28v17.14c0,.43-.34.85-.93,1.2-.69.4-1.61.61-2.6.61s-1.91-.22-2.6-.61c-.6-.34-.94-.79-.93-1.23v-17.1M139.32,100.41s0,.03,0,.04v-.04h0ZM139.32,100.46v18.87c0,.6.38,1.21,1.18,1.66.79.45,1.82.68,2.85.68s2.06-.23,2.85-.68c.78-.45,1.17-1.03,1.18-1.62v-18.91c0,.59-.4,1.17-1.18,1.62-.79.45-1.82.68-2.85.68s-2.06-.23-2.85-.68c-.78-.45-1.17-1.03-1.18-1.62h0Z"/>
              </g>
            </g>
            <g>
              <g>
                <g>
                  <path d="M129.01,105.59c0-.09.03-.19.08-.31.1-.19,10.55-20.31,10.65-20.52.05-.1.11-.19.18-.26.06-.07.13-.13.2-.18-.05.04-.09.09-.13.14-.09.11-.18.23-.25.36l-10.61,20.43c-.05.12-.1.23-.12.34Z"/>
                  <path class="cls-3" d="M140.32,84c-.09,0-.19.03-.29.09-.1.06-.2.14-.29.24-.08.09-.15.2-.21.31,0,0-10.61,20.43-10.66,20.53-.17.38-.14.76.08.89l.41.27c-.19-.14-.21-.51,0-.97l10.61-20.43c.06-.12.13-.22.21-.31.09-.1.19-.19.29-.24.1-.06.2-.09.29-.09.05,0,.09,0,.13.03,0,0,1.94.81,1.98.82,0,0-.44-.29-.48-.31l-1.94-.81s-.09-.03-.13-.03h0ZM129.36,106.34s.02.01.03.02l-.03-.02h0Z"/>
                </g>
                <g>
                  <path d="M131.47,106.94l-1.95-.8c-.09-.18-.07-.41.06-.66l10.61-20.43c.1-.2.25-.37.41-.46.06-.04.12-.05.16-.05l1.98.81c.06.12.04.29-.06.5l-10.76,20.7c-.08.15-.2.29-.32.35-.06.04-.1.04-.12.04,0,0-.01,0-.02,0Z"/>
                  <path class="cls-3" d="M140.75,84.8l1.78.74s-.03.11-.07.2l-10.76,20.69c-.07.13-.15.21-.2.25l-1.8-.73c0-.07.02-.2.1-.35l10.61-20.42c.1-.19.22-.31.31-.36.01,0,.02-.01.03-.01M140.76,84.29c-.09,0-.19.03-.29.09-.19.11-.37.31-.5.56l-10.61,20.43c-.24.44-.21.9.07,1.01l1.96.8s.07.02.1.02c.08,0,.16-.03.24-.07.15-.09.3-.25.41-.46l10.76-20.7c.2-.39.16-.75-.07-.84l-1.94-.81s-.09-.03-.13-.03h0Z"/>
                </g>
              </g>
              <g>
                <g>
                  <g>
                    <path d="M131.97,108.42l3.25-6.26c1.24.65,7.31,3.84,9.65,4.93l-3.51,6.77-9.39-5.44Z"/>
                    <path class="cls-3" d="M135.33,102.5c1.58.83,6.82,3.58,9.2,4.71l-3.27,6.3-8.95-5.19,3.02-5.82M135.12,101.82l-3.48,6.69,9.82,5.69,3.76-7.23c-2.38-1.08-10.1-5.15-10.1-5.15h0Z"/>
                  </g>
                  <g>
                    <polygon points="141.81 114.08 145.33 107.3 145.56 107.41 142.03 114.18 141.81 114.08"/>
                    <path class="cls-3" d="M145.22,106.98l-3.76,7.23.69.3,3.76-7.22c-.23-.1-.46-.21-.69-.31h0Z"/>
                  </g>
                </g>
                <g>
                  <path d="M130.19,106.34c-.07-.04-.11-.26.02-.57.08-.16,10.55-20.31,10.65-20.52.05-.1.11-.18.18-.26.07-.08.15-.15.23-.19.06-.04.12-.05.16-.05l1.98.81c.09.05,5.54,3.21,8.69,5.05-.07.02-.13.05-.2.09-.12.07-.24.17-.35.29-.09.11-.18.23-.25.36l-10.61,20.43c-.1.22-.15.41-.17.57l-10.34-6.01Z"/>
                  <path class="cls-3" d="M141.43,85l1.87.77c.37.21,4.72,2.74,8.31,4.82-.08.06-.16.14-.23.22-.11.12-.2.26-.28.41l-10.62,20.45c-.04.1-.08.19-.11.28l-9.99-5.8s0-.15.06-.27c.12-.24,10.55-20.32,10.66-20.53.04-.08.09-.15.15-.21.05-.06.11-.11.16-.14.01,0,.02-.01.03-.01M141.44,84.49c-.09,0-.19.03-.29.09-.1.06-.2.14-.29.24-.08.09-.15.2-.21.31,0,0-10.61,20.43-10.66,20.53-.17.38-.14.76.08.89l10.89,6.33c-.22-.13-.25-.5-.03-.99l10.61-20.43c.06-.12.13-.22.21-.31.09-.1.19-.19.29-.24.1-.06.2-.09.29-.09.05,0,.09,0,.13.03,0,0,1.94.81,1.98.82,0,0-10.89-6.33-10.93-6.34l-1.94-.81s-.09-.03-.13-.03h0Z"/>
                </g>
                <g>
                  <path d="M143.04,113.46l-1.95-.8c-.09-.18-.07-.41.06-.66l10.61-20.43c.1-.2.26-.37.41-.46.06-.03.12-.05.16-.05l1.98.81c.06.12.04.29-.06.5l-10.76,20.7c-.08.15-.2.29-.32.35-.06.04-.1.04-.12.04,0,0-.01,0-.02,0Z"/>
                  <path class="cls-3" d="M152.32,91.32l1.78.74s-.03.12-.07.2l-10.76,20.69c-.07.13-.15.21-.2.25l-1.8-.74c0-.07.02-.2.11-.35l10.61-20.42c.1-.19.22-.31.31-.36.01,0,.02-.01.03-.01M152.33,90.82c-.09,0-.19.03-.29.09-.19.11-.37.31-.5.56l-10.61,20.43c-.24.44-.21.9.07,1.01l1.96.8s.07.02.1.02c.08,0,.16-.03.24-.07.15-.09.3-.25.41-.46l10.76-20.7c.2-.39.16-.75-.07-.84l-1.94-.81s-.09-.03-.13-.03h0Z"/>
                </g>
                <g>
                  <g>
                    <g>
                      <path d="M145.2,99.61l-7.73-4.46,2.66-5.24,7.79,4.46-2.65,5.22-.05.03s-.02,0-.03,0Z"/>
                      <path class="cls-3" d="M140.27,90.21l7.38,4.29-2.49,4.8-7.39-4.27,2.5-4.82M140.19,89.63c-.11,0-.22.06-.27.16l-2.68,5.16c-.08.15-.02.32.12.41l7.73,4.46s.1.04.15.04c.11,0,.22-.06.27-.16l2.67-5.14c.08-.14.02-.32-.12-.4l-7.72-4.48s-.1-.04-.15-.04h0Z"/>
                    </g>
                    <g>
                      <path d="M137.48,95.15l2.66-5.24.57.33c-.07-.03-.15-.05-.22-.05-.21,0-.4.12-.49.3l-2.44,4.7-.07-.04ZM141.15,90.49l6.79,3.88-.02.05-6.77-3.93Z"/>
                      <path class="cls-3" d="M140.19,89.63c-.11,0-.22.06-.27.16l-2.68,5.16c-.08.15-.02.32.12.41l.3.17,2.56-4.93c.05-.11.16-.16.27-.16.05,0,.1.01.15.04l7.42,4.31.12-.23c.08-.14.02-.32-.12-.4l-7.72-4.48s-.1-.04-.15-.04h0Z"/>
                    </g>
                  </g>
                  <g>
                    <path d="M140.27,107.8c-.07,0-.14-.02-.2-.05l-1.29-.74c-.19-.11-.25-.34-.16-.53l.27-.51c.07-.13.21-.22.36-.22.07,0,.14.02.2.05l1.29.75c.19.11.25.34.16.53l-.26.51c-.07.13-.21.22-.36.22h0ZM137.64,106.28c-.07,0-.14-.02-.2-.05l-1.29-.74c-.19-.11-.25-.34-.16-.53l.27-.51c.07-.13.21-.22.36-.22.07,0,.14.02.2.05l1.29.75c.19.11.25.34.16.53l-.26.51c-.07.13-.21.22-.36.22h0ZM141.37,105.76c-.07,0-.14-.02-.2-.05l-1.29-.74c-.19-.11-.25-.34-.16-.53l.27-.51c.07-.13.21-.22.36-.22.07,0,.14.02.2.05l1.29.75c.19.11.25.34.16.53l-.26.51c-.07.13-.21.22-.36.22h0ZM135.01,104.76c-.07,0-.14-.02-.2-.05l-1.29-.74c-.19-.11-.25-.34-.16-.53l.27-.51c.07-.13.21-.22.36-.22.07,0,.14.02.2.05l1.29.75c.19.11.25.34.16.53l-.26.51c-.07.13-.21.22-.36.22ZM138.74,104.24c-.07,0-.14-.02-.2-.05l-1.29-.74c-.19-.11-.25-.34-.16-.53l.27-.51c.07-.13.21-.22.36-.22.07,0,.14.02.2.05l1.29.75c.19.11.25.34.15.53l-.26.51c-.07.13-.21.22-.36.22h0ZM142.47,103.72c-.07,0-.14-.02-.2-.05l-1.29-.74c-.19-.11-.25-.34-.16-.53l.27-.51c.07-.13.21-.22.36-.22.07,0,.14.02.2.05l1.29.75c.19.11.25.34.15.53l-.26.51c-.07.13-.21.22-.36.22h0ZM136.11,102.73c-.07,0-.14-.02-.2-.05l-1.29-.74c-.19-.11-.25-.34-.16-.53l.27-.51c.07-.13.21-.22.36-.22.07,0,.14.02.2.05l1.29.75c.18.11.25.34.15.53l-.26.51c-.07.13-.21.22-.36.22h0ZM139.84,102.21c-.07,0-.14-.02-.2-.05l-1.29-.74c-.19-.11-.25-.34-.16-.53l.27-.51c.07-.13.21-.22.36-.22.07,0,.14.02.2.05l1.29.75c.19.11.25.34.15.53l-.26.51c-.07.13-.21.22-.36.22h0ZM143.57,101.69c-.07,0-.14-.02-.2-.05l-1.29-.74c-.19-.11-.25-.34-.16-.53l.27-.51c.07-.13.21-.22.36-.22.07,0,.14.02.2.05l1.29.75c.19.11.25.34.16.53l-.26.51c-.07.13-.21.22-.36.22ZM137.21,100.69c-.07,0-.14-.02-.2-.05l-1.29-.74c-.19-.11-.25-.34-.16-.53l.27-.51c.07-.13.21-.22.36-.22.07,0,.14.02.2.05l1.29.75c.19.11.25.34.16.53l-.26.51c-.07.13-.21.22-.36.22h0ZM140.94,100.17c-.07,0-.14-.02-.2-.05l-1.29-.74c-.19-.11-.25-.34-.16-.53l.27-.51c.07-.13.21-.22.36-.22.07,0,.14.02.2.05l1.29.75c.19.11.25.34.16.53l-.26.51c-.07.13-.21.22-.36.22h0ZM138.32,98.65c-.07,0-.14-.02-.2-.05l-1.29-.74c-.19-.11-.25-.34-.16-.53l.27-.51c.07-.13.21-.22.36-.22.07,0,.14.02.2.05l1.29.75c.19.11.25.34.16.53l-.26.51c-.07.13-.21.22-.36.22h0Z"/>
                    <path class="cls-3" d="M137.3,96.85s.05,0,.07.02l1.29.75c.07.04.1.13.06.2l-.26.51c-.03.06-.09.08-.13.08-.03,0-.05,0-.07-.02l-1.29-.74c-.07-.04-.1-.13-.06-.2l.27-.51c.03-.06.09-.08.13-.08M139.92,98.36s.05,0,.08.02l1.29.75c.07.04.1.13.06.2l-.26.51c-.03.06-.09.08-.13.08-.03,0-.05,0-.07-.02l-1.29-.74c-.07-.04-.1-.13-.06-.2l.27-.51c.03-.06.09-.08.13-.08M136.19,98.88s.05,0,.08.02l1.29.75c.07.04.1.13.06.2l-.26.51c-.03.06-.09.08-.13.08-.03,0-.05,0-.07-.02l-1.29-.74c-.07-.04-.1-.13-.06-.2l.27-.51c.03-.06.09-.08.13-.08M142.55,99.88s.05,0,.08.02l1.29.75c.07.04.1.13.06.2l-.26.51c-.03.06-.09.08-.13.08-.03,0-.05,0-.07-.02l-1.29-.74c-.07-.04-.1-.13-.06-.2l.27-.51c.03-.06.09-.08.13-.08M138.82,100.4s.05,0,.08.02l1.29.75c.07.04.1.13.06.2l-.26.51c-.03.06-.09.08-.13.08-.03,0-.05,0-.07-.02l-1.29-.74c-.07-.04-.1-.13-.06-.2l.27-.51c.03-.06.09-.08.13-.08M135.09,100.92s.05,0,.07.02l1.29.75c.07.04.1.13.06.2l-.26.51c-.03.06-.09.08-.13.08-.03,0-.05,0-.07-.02l-1.29-.74c-.07-.04-.1-.13-.06-.2l.27-.51c.03-.06.09-.08.13-.08M141.45,101.92s.05,0,.07.02l1.29.75c.07.04.1.13.06.2l-.26.51c-.03.06-.09.08-.13.08-.03,0-.05,0-.07-.02l-1.29-.74c-.07-.04-.1-.13-.06-.2l.27-.51c.03-.06.09-.08.13-.08M137.72,102.44s.05,0,.08.02l1.29.75c.07.04.1.13.06.2l-.26.51c-.03.06-.09.08-.13.08-.03,0-.05,0-.07-.02l-1.29-.74c-.07-.04-.1-.13-.06-.2l.27-.51c.03-.06.09-.08.13-.08M133.99,102.96s.05,0,.08.02l1.29.75c.07.04.1.13.06.2l-.26.51c-.03.06-.09.08-.13.08-.03,0-.05,0-.07-.02l-1.29-.74c-.07-.04-.1-.13-.06-.2l.27-.51c.03-.06.09-.08.13-.08M140.35,103.95s.05,0,.08.02l1.29.75c.07.04.1.13.06.2l-.26.51c-.03.06-.09.08-.13.08-.03,0-.05,0-.07-.02l-1.29-.74c-.07-.04-.1-.13-.06-.2l.27-.51c.03-.06.09-.08.13-.08M136.62,104.47s.05,0,.08.02l1.29.75c.07.04.1.13.06.2l-.26.51c-.03.06-.09.08-.13.08-.03,0-.05,0-.07-.02l-1.29-.74c-.07-.04-.1-.13-.06-.2l.27-.51c.03-.06.09-.08.13-.08M139.25,105.99s.05,0,.08.02l1.29.75c.07.04.1.13.06.2l-.26.51c-.03.06-.09.08-.13.08-.03,0-.05,0-.07-.02l-1.29-.74c-.07-.04-.1-.13-.06-.2l.27-.51c.03-.06.09-.08.13-.08M137.3,96.35c-.23,0-.46.13-.58.35l-.27.51c-.16.31-.05.69.25.86l1.29.74c.1.06.21.09.32.09.23,0,.46-.13.58-.35l.26-.51c.16-.31.05-.69-.25-.86l-1.29-.75c-.1-.06-.22-.09-.33-.09h0ZM139.92,97.86c-.23,0-.46.13-.58.35l-.27.51c-.16.31-.05.69.25.86l1.29.74c.1.06.21.09.32.09.23,0,.46-.13.58-.35l.26-.51c.16-.31.05-.69-.25-.86l-1.29-.75c-.1-.06-.22-.09-.33-.09h0ZM136.19,98.38c-.23,0-.46.13-.58.35l-.27.51c-.16.31-.05.69.25.86l1.29.74c.1.06.21.09.32.09.23,0,.46-.13.58-.35l.26-.51c.16-.31.05-.69-.25-.86l-1.29-.75c-.1-.06-.22-.09-.33-.09h0ZM142.55,99.38c-.23,0-.46.13-.58.35l-.27.51c-.16.31-.05.69.25.86l1.29.74c.1.06.21.09.32.09.23,0,.46-.13.58-.35l.26-.51c.16-.31.05-.69-.25-.86l-1.29-.75c-.1-.06-.22-.09-.33-.09h0ZM138.82,99.9c-.23,0-.46.13-.58.35l-.27.51c-.16.31-.05.69.25.86l1.29.74c.1.06.21.09.32.09.23,0,.46-.13.58-.35l.26-.51c.16-.31.05-.69-.25-.86l-1.29-.75c-.1-.06-.22-.09-.33-.09h0ZM135.09,100.42c-.23,0-.46.13-.58.35l-.27.51c-.16.31-.05.69.25.86l1.29.74c.1.06.21.09.32.09.23,0,.46-.13.58-.35l.26-.51c.16-.31.05-.69-.25-.86l-1.29-.75c-.1-.06-.22-.09-.33-.09h0ZM141.45,101.42c-.23,0-.46.13-.58.35l-.27.51c-.16.31-.05.69.25.86l1.29.74c.1.06.21.09.32.09.23,0,.46-.13.58-.35l.26-.51c.16-.31.05-.69-.25-.86l-1.29-.75c-.1-.06-.22-.09-.33-.09h0ZM137.72,101.94c-.23,0-.46.13-.58.35l-.27.51c-.16.31-.05.69.25.86l1.29.74c.1.06.21.09.32.09.23,0,.46-.13.58-.35l.26-.51c.16-.31.05-.69-.25-.86l-1.29-.75c-.1-.06-.22-.09-.33-.09h0ZM133.99,102.46c-.23,0-.46.13-.58.35l-.27.51c-.16.31-.05.69.25.86l1.29.74c.1.06.21.09.32.09.23,0,.46-.13.58-.35l.26-.51c.16-.31.05-.69-.25-.86l-1.29-.75c-.1-.06-.22-.09-.33-.09h0ZM140.35,103.45c-.23,0-.46.13-.58.35l-.27.51c-.16.31-.05.69.25.86l1.29.74c.1.06.21.09.32.09.23,0,.46-.13.58-.35l.26-.51c.16-.31.05-.69-.25-.86l-1.29-.75c-.1-.06-.22-.09-.33-.09h0ZM136.62,103.97c-.23,0-.46.13-.58.35l-.27.51c-.16.31-.05.69.25.86l1.29.74c.1.06.21.09.32.09.23,0,.46-.13.58-.35l.26-.51c.16-.31.05-.69-.25-.86l-1.29-.75c-.1-.06-.22-.09-.33-.09h0ZM139.25,105.49c-.23,0-.46.13-.58.35l-.27.51c-.16.31-.05.69.25.86l1.29.74c.1.06.21.09.32.09.23,0,.46-.13.58-.35l.26-.51c.16-.31.05-.69-.25-.86l-1.29-.75c-.1-.06-.22-.09-.33-.09h0Z"/>
                  </g>
                  <g>
                    <path d="M140.14,107.61c-.07,0-.14-.02-.2-.05l-1.29-.74s-.05-.04-.08-.08h0s-.02-.13.05-.26l.27-.51c.07-.13.21-.22.36-.22.07,0,.14.02.2.05l1.29.75s.05.04.08.08t0,0s.02.13-.05.26l-.26.51c-.07.13-.21.22-.36.22h0ZM137.52,106.09c-.07,0-.14-.02-.2-.05l-1.29-.74s-.05-.04-.08-.08h0s-.02-.13.05-.26l.27-.51c.07-.13.21-.22.36-.22.07,0,.14.02.2.05l1.29.75s.05.04.08.07c0,.01.02.14-.05.27l-.26.51c-.07.13-.21.22-.36.22h0ZM141.24,105.57c-.07,0-.14-.02-.2-.05l-1.29-.74s-.05-.04-.08-.07h0s-.02-.13.05-.27l.27-.51c.07-.13.21-.22.36-.22.07,0,.14.02.2.05l1.29.75s.05.04.08.07h0s.02.13-.05.27l-.26.51c-.07.13-.21.22-.36.22h0ZM134.89,104.57c-.07,0-.14-.02-.2-.05l-1.29-.74s-.05-.04-.08-.08h0s-.02-.13.05-.26l.27-.51c.07-.13.21-.22.36-.22.07,0,.14.02.2.05l1.29.75s.05.04.08.07h0s.02.13-.05.26l-.26.51c-.07.13-.21.22-.36.22h0ZM138.62,104.05c-.07,0-.14-.02-.2-.05l-1.29-.74s-.05-.04-.08-.07h0s-.02-.13.05-.26l.27-.51c.07-.13.21-.22.36-.22.07,0,.14.02.2.05l1.29.75s.05.04.08.07h0s.02.13-.05.27l-.26.51c-.07.13-.21.22-.36.22h0ZM142.35,103.53c-.07,0-.14-.02-.2-.05l-1.29-.74s-.05-.04-.08-.08h0s-.02-.13.05-.26l.27-.51c.07-.13.21-.22.36-.22.07,0,.14.02.2.05l1.29.75s.06.05.08.08h0s.02.13-.05.26l-.26.51c-.07.13-.21.22-.36.22h0ZM135.99,102.53c-.07,0-.14-.02-.2-.05l-1.29-.74s-.05-.04-.08-.08h0s-.02-.13.05-.26l.27-.51c.07-.13.21-.22.36-.22.07,0,.14.02.2.05l1.29.75s.05.04.08.08h0s.02.13-.05.26l-.26.51c-.07.13-.21.22-.36.22h0ZM139.72,102.01c-.07,0-.14-.02-.2-.05l-1.29-.74s-.05-.04-.08-.08h0s-.02-.13.05-.26l.27-.51c.07-.13.21-.22.36-.22.07,0,.14.02.2.05l1.29.75s.05.05.08.08h0s.02.13-.05.26l-.26.51c-.07.13-.21.22-.36.22h0ZM143.45,101.49c-.07,0-.14-.02-.2-.05l-1.29-.74s-.05-.04-.08-.08h0s-.02-.13.05-.26l.27-.51c.07-.13.21-.22.36-.22.07,0,.14.02.2.05l1.29.75s.05.04.08.08t0,0s.02.13-.05.26l-.26.51c-.07.13-.21.22-.36.22ZM137.09,100.5c-.07,0-.14-.02-.2-.05l-1.29-.74s-.05-.04-.08-.08h0s-.02-.13.05-.26l.27-.51c.07-.13.21-.22.36-.22.07,0,.14.02.2.05l1.29.75s.05.04.08.08h0s.02.13-.05.26l-.26.51c-.07.13-.21.22-.36.22h0ZM140.82,99.98c-.07,0-.14-.02-.2-.05l-1.29-.74s-.05-.04-.08-.07h0s-.02-.13.05-.27l.27-.51c.07-.13.21-.22.36-.22.07,0,.14.02.2.05l1.29.75s.05.04.08.07h0s.02.13-.05.27l-.26.51c-.07.13-.21.22-.36.22h0ZM138.19,98.46c-.07,0-.14-.02-.2-.05l-1.29-.74s-.05-.04-.08-.08h0s-.02-.13.05-.26l.27-.51c.07-.13.21-.22.36-.22.07,0,.14.02.2.05l1.29.75s.05.04.08.07h0s.02.13-.05.27l-.26.51c-.07.13-.21.22-.36.22Z"/>
                    <path class="cls-3" d="M137.3,96.85s.05,0,.08.02l1.23.71s0,.03-.01.04l-.26.51c-.03.06-.09.08-.13.08-.03,0-.05,0-.07-.02l-1.23-.71s0-.03.01-.04l.27-.51c.03-.06.09-.08.13-.08M139.92,98.36s.05,0,.08.02l1.23.71s0,.03-.01.04l-.26.51c-.03.06-.09.08-.13.08-.03,0-.05,0-.07-.02l-1.23-.71s0-.03.01-.04l.27-.51c.03-.06.09-.08.13-.08M136.19,98.88s.05,0,.08.02l1.23.71s0,.03-.01.04l-.26.51c-.03.06-.09.08-.13.08-.03,0-.05,0-.07-.02l-1.23-.71s0-.03.01-.04l.27-.51c.03-.06.09-.08.13-.08M142.55,99.88s.05,0,.08.02l1.23.71s0,.03-.01.04l-.26.51c-.03.06-.09.08-.13.08-.03,0-.05,0-.07-.02l-1.23-.71s0-.03.01-.04l.27-.51c.03-.06.09-.08.13-.08M138.82,100.4s.05,0,.08.02l1.23.71s0,.03-.01.04l-.26.51c-.03.06-.09.08-.13.08-.03,0-.05,0-.07-.02l-1.23-.71s0-.03.01-.04l.27-.51c.03-.06.09-.08.13-.08M135.09,100.92s.05,0,.07.02l1.23.71s0,.03-.01.04l-.26.51c-.03.06-.09.08-.13.08-.03,0-.05,0-.07-.02l-1.23-.71s0-.03.01-.04l.27-.51c.03-.06.09-.08.13-.08M141.45,101.92s.05,0,.08.02l1.23.71s0,.03-.01.04l-.26.51c-.03.06-.09.08-.13.08-.03,0-.05,0-.07-.02l-1.23-.71s0-.03.01-.04l.27-.51c.03-.06.09-.08.13-.08M137.72,102.44s.05,0,.07.02l1.23.71s0,.03-.01.04l-.26.51c-.03.06-.09.08-.13.08-.03,0-.05,0-.07-.02l-1.23-.71s0-.03.01-.04l.27-.51c.03-.06.09-.08.13-.08M133.99,102.96s.05,0,.08.02l1.23.71s0,.03-.01.04l-.26.51c-.03.06-.09.08-.13.08-.03,0-.05,0-.07-.02l-1.23-.71s0-.03.01-.04l.27-.51c.03-.06.09-.08.13-.08M140.35,103.95s.05,0,.07.02l1.23.71s0,.03-.01.04l-.26.51c-.03.06-.09.08-.13.08-.03,0-.05,0-.07-.02l-1.23-.71s0-.03.01-.04l.27-.51c.03-.06.09-.08.13-.08M136.62,104.47s.05,0,.08.02l1.23.71s0,.03-.01.04l-.26.51c-.03.06-.09.08-.13.08-.03,0-.05,0-.07-.02l-1.23-.71s0-.03.01-.04l.27-.51c.03-.06.09-.08.13-.08M139.25,105.99s.05,0,.08.02l1.23.71s0,.03-.01.04l-.26.51c-.03.06-.09.08-.13.08-.03,0-.05,0-.07-.02l-1.23-.71s0-.03.01-.04l.27-.51c.03-.06.09-.08.13-.08M137.3,96.35c-.23,0-.46.13-.58.35l-.27.51c-.09.18-.09.37-.01.55.04.05.09.09.14.12l1.29.74c.1.06.21.09.32.09.23,0,.46-.13.58-.35l.26-.51c.09-.18.09-.37.01-.55-.04-.05-.08-.09-.14-.12l-1.29-.75c-.1-.06-.22-.09-.33-.09h0ZM139.92,97.86c-.23,0-.46.13-.58.35l-.27.51c-.09.18-.09.37-.01.55.04.05.09.09.14.12l1.29.74c.1.06.21.09.32.09.23,0,.46-.13.58-.35l.26-.51c.09-.18.09-.37.01-.55-.04-.05-.08-.09-.14-.12l-1.29-.75c-.1-.06-.22-.09-.33-.09h0ZM136.19,98.38c-.23,0-.46.13-.58.35l-.27.51c-.09.18-.09.37-.01.55.04.05.09.09.14.12l1.29.74c.1.06.21.09.32.09.23,0,.46-.13.58-.35l.26-.51c.09-.18.09-.37.01-.55-.04-.05-.08-.09-.14-.12l-1.29-.75c-.1-.06-.22-.09-.33-.09h0ZM142.55,99.38c-.23,0-.46.13-.58.35l-.27.51c-.09.18-.09.37-.01.55.04.05.09.09.14.12l1.29.74c.1.06.21.09.32.09.23,0,.46-.13.58-.35l.26-.51c.09-.18.09-.37.01-.55-.04-.05-.08-.09-.14-.12l-1.29-.75c-.1-.06-.22-.09-.33-.09h0ZM138.82,99.9c-.23,0-.46.13-.58.35l-.27.51c-.09.18-.09.37-.01.55.04.05.09.09.14.12l1.29.74c.1.06.21.09.32.09.23,0,.46-.13.58-.35l.26-.51c.09-.18.09-.37.01-.55-.04-.05-.08-.09-.14-.12l-1.29-.75c-.1-.06-.22-.09-.33-.09h0ZM135.09,100.42c-.23,0-.46.13-.58.35l-.27.51c-.09.18-.09.37-.01.55.04.05.09.09.14.12l1.29.74c.1.06.21.09.32.09.23,0,.46-.13.58-.35l.26-.51c.09-.18.09-.37.01-.55-.04-.05-.08-.09-.14-.12l-1.29-.75c-.1-.06-.22-.09-.33-.09h0ZM141.45,101.42c-.23,0-.46.13-.58.35l-.27.51c-.09.18-.09.37-.01.55.04.05.09.09.14.12l1.29.74c.1.06.21.09.32.09.23,0,.46-.13.58-.35l.26-.51c.09-.18.09-.37.01-.55-.04-.05-.08-.09-.14-.12l-1.29-.75c-.1-.06-.22-.09-.33-.09h0ZM137.72,101.94c-.23,0-.46.13-.58.35l-.27.51c-.09.18-.09.37-.01.55.04.05.09.09.14.12l1.29.74c.1.06.21.09.32.09.23,0,.46-.13.58-.35l.26-.51c.09-.18.09-.37.01-.55-.04-.05-.08-.09-.14-.12l-1.29-.75c-.1-.06-.22-.09-.33-.09h0ZM133.99,102.46c-.23,0-.46.13-.58.35l-.27.51c-.09.18-.09.37-.01.55.04.05.09.09.14.12l1.29.74c.1.06.21.09.32.09.23,0,.46-.13.58-.35l.26-.51c.09-.18.09-.37.02-.55-.04-.05-.08-.09-.14-.12l-1.29-.75c-.1-.06-.22-.09-.33-.09h0ZM140.35,103.45c-.23,0-.46.13-.58.35l-.27.51c-.09.18-.09.37-.01.55.04.05.09.09.14.12l1.29.74c.1.06.21.09.32.09.23,0,.46-.13.58-.35l.26-.51c.09-.18.09-.37.02-.55-.04-.05-.08-.09-.14-.12l-1.29-.75c-.1-.06-.22-.09-.33-.09h0ZM136.62,103.97c-.23,0-.46.13-.58.35l-.27.51c-.09.18-.09.37-.01.55.04.05.09.09.14.12l1.29.74c.1.06.21.09.32.09.23,0,.46-.13.58-.35l.26-.51c.09-.18.09-.37.01-.55-.04-.05-.08-.09-.14-.12l-1.29-.75c-.1-.06-.22-.09-.33-.09h0ZM139.25,105.49c-.23,0-.46.13-.58.35l-.27.51c-.09.18-.09.37-.01.55.04.05.09.09.14.12l1.29.74c.1.06.21.09.32.09.23,0,.46-.13.58-.35l.26-.51c.09-.18.09-.37.01-.55-.04-.05-.08-.09-.14-.12l-1.29-.75c-.1-.06-.22-.09-.33-.09h0Z"/>
                  </g>
                  <g>
                    <g>
                      <g>
                        <path d="M139.17,109.84c-.07,0-.14-.02-.2-.05l-1.29-.74c-.19-.11-.25-.34-.16-.53l.27-.51c.07-.13.21-.22.36-.22.07,0,.14.02.2.05l1.29.75c.19.11.25.34.15.53l-.26.51c-.07.13-.21.22-.36.22Z"/>
                        <path class="cls-3" d="M138.15,108.03s.05,0,.08.02l1.29.75c.07.04.1.13.06.2l-.26.51c-.03.06-.09.08-.13.08-.03,0-.05,0-.07-.02l-1.29-.74c-.07-.04-.1-.13-.06-.2l.27-.51c.03-.06.09-.08.13-.08M138.15,107.53c-.23,0-.46.13-.58.35l-.27.51c-.16.31-.05.69.25.86l1.29.74c.1.06.21.09.32.09.23,0,.46-.13.58-.35l.26-.51c.16-.31.05-.69-.25-.86l-1.29-.75c-.1-.06-.22-.09-.33-.09h0Z"/>
                      </g>
                      <g>
                        <path d="M136.54,108.32c-.07,0-.14-.02-.2-.05l-1.29-.74c-.19-.11-.25-.34-.16-.53l.27-.51c.07-.13.21-.22.36-.22.07,0,.14.02.2.05l1.29.75c.19.11.25.34.16.53l-.26.51c-.07.13-.21.22-.36.22Z"/>
                        <path class="cls-3" d="M135.52,106.51s.05,0,.08.02l1.29.75c.07.04.1.13.06.2l-.26.51c-.03.06-.09.08-.13.08-.03,0-.05,0-.07-.02l-1.29-.74c-.07-.04-.1-.13-.06-.2l.27-.51c.03-.06.09-.08.13-.08M135.52,106.01c-.23,0-.46.13-.58.35l-.27.51c-.16.31-.05.69.25.86l1.29.74c.1.06.21.09.32.09.23,0,.46-.13.58-.35l.26-.51c.16-.31.05-.69-.25-.86l-1.29-.75c-.1-.06-.22-.09-.33-.09h0Z"/>
                      </g>
                      <g>
                        <path d="M133.91,106.8c-.07,0-.14-.02-.2-.05l-1.29-.74c-.19-.11-.25-.34-.16-.53l.27-.51c.07-.13.21-.22.36-.22.07,0,.14.02.2.05l1.29.75c.19.11.25.34.16.53l-.26.51c-.07.13-.21.22-.36.22Z"/>
                        <path class="cls-3" d="M132.89,104.99s.05,0,.07.02l1.29.75c.07.04.1.13.06.2l-.26.51c-.03.06-.09.08-.13.08-.03,0-.05,0-.07-.02l-1.29-.74c-.07-.04-.1-.13-.06-.2l.27-.51c.03-.06.09-.08.13-.08M132.89,104.49c-.23,0-.46.13-.58.35l-.27.51c-.16.31-.05.69.25.86l1.29.74c.1.06.21.09.32.09.23,0,.46-.13.58-.35l.26-.51c.16-.31.05-.69-.25-.86l-1.29-.75c-.1-.06-.22-.09-.33-.09h0Z"/>
                      </g>
                    </g>
                    <g>
                      <path d="M139.04,109.64c-.07,0-.14-.02-.2-.05l-1.29-.74s-.05-.04-.08-.08h0s-.02-.13.05-.26l.27-.51c.07-.13.21-.22.36-.22.07,0,.14.02.2.05l1.29.75s.05.05.08.08h0s.02.13-.05.26l-.26.51c-.07.13-.21.22-.36.22Z"/>
                      <path class="cls-3" d="M138.15,108.03s.05,0,.07.02l1.23.71s0,.03-.01.04l-.26.51c-.03.06-.09.08-.13.08-.03,0-.05,0-.07-.02l-1.23-.71s0-.03.01-.04l.27-.51c.03-.06.09-.08.13-.08M138.15,107.53c-.23,0-.46.13-.58.35l-.27.51c-.09.18-.09.37-.01.55.04.05.09.09.14.12l1.29.74c.1.06.21.09.32.09.23,0,.46-.13.58-.35l.26-.51c.09-.18.09-.37.01-.55-.04-.05-.08-.09-.14-.12l-1.29-.75c-.1-.06-.22-.09-.33-.09h0Z"/>
                    </g>
                    <g>
                      <path d="M136.42,108.12c-.07,0-.14-.02-.2-.05l-1.29-.74s-.05-.04-.08-.08h0s-.02-.13.05-.26l.27-.51c.07-.13.21-.22.36-.22.07,0,.14.02.2.05l1.29.75s.06.05.08.08h0s.02.13-.05.26l-.26.51c-.07.13-.21.22-.36.22Z"/>
                      <path class="cls-3" d="M135.52,106.51s.05,0,.07.02l1.23.71s0,.03-.01.04l-.26.51c-.03.06-.09.08-.13.08-.03,0-.05,0-.07-.02l-1.23-.71s0-.03.01-.04l.27-.51c.03-.06.09-.08.13-.08M135.52,106.01c-.23,0-.46.13-.58.35l-.27.51c-.09.18-.09.37-.01.55.04.05.09.09.14.12l1.29.74c.1.06.21.09.32.09.23,0,.46-.13.58-.35l.26-.51c.09-.18.09-.37.01-.55-.04-.05-.08-.09-.14-.12l-1.29-.75c-.1-.06-.22-.09-.33-.09h0Z"/>
                    </g>
                    <g>
                      <path d="M133.79,106.61c-.07,0-.14-.02-.2-.05l-1.29-.74s-.05-.04-.08-.08h0s-.02-.13.05-.26l.27-.51c.07-.13.21-.22.36-.22.07,0,.14.02.2.05l1.29.75s.05.04.08.08h0s.02.13-.05.26l-.26.51c-.07.13-.21.22-.36.22Z"/>
                      <path class="cls-3" d="M132.89,104.99s.05,0,.08.02l1.23.71s0,.03-.01.04l-.26.51c-.03.06-.09.08-.13.08-.03,0-.05,0-.07-.02l-1.23-.71s0-.03.01-.04l.27-.51c.03-.06.09-.08.13-.08M132.89,104.49c-.23,0-.46.13-.58.35l-.27.51c-.09.18-.09.37-.01.55.04.05.09.09.14.12l1.29.74c.1.06.21.09.32.09.23,0,.46-.13.58-.35l.26-.51c.09-.18.09-.37.01-.55-.04-.05-.08-.09-.14-.12l-1.29-.75c-.1-.06-.22-.09-.33-.09h0Z"/>
                    </g>
                  </g>
                </g>
              </g>
              <g>
                <path d="M149.45,93.87l-9.59-5.54c-.06-.03-.08-.11-.05-.17l1.41-2.71c.05-.1.11-.19.18-.26.07-.08.15-.15.23-.19.06-.03.12-.05.16-.05l1.98.81c.1.06,4.99,2.9,7.94,4.62-.06.02-.13.05-.2.09-.12.07-.24.17-.35.3-.09.1-.18.23-.25.36l-1.42,2.74-.03.02s-.01,0-.02,0Z"/>
                <path class="cls-3" d="M141.78,85.2l1.87.77c.35.2,4.26,2.47,7.56,4.39-.08.06-.16.14-.23.22-.11.12-.2.26-.28.41l-1.32,2.54-9.29-5.36,1.35-2.61c.04-.08.09-.15.15-.21.05-.06.11-.11.16-.14.01,0,.02-.01.03-.01M141.79,84.7c-.09,0-.19.03-.29.09-.1.06-.2.14-.29.24-.08.09-.15.2-.21.31l-1.41,2.71c-.09.18-.03.4.15.5l9.59,5.54s.09.04.14.04c.1,0,.2-.06.25-.15l1.42-2.74c.06-.12.13-.22.21-.31.09-.1.19-.19.29-.24.1-.06.2-.09.29-.09.05,0,.09,0,.13.03,0,0,1.94.81,1.98.82,0,0-10.14-5.89-10.18-5.91l-1.94-.81s-.09-.03-.13-.03h0Z"/>
              </g>
              <g>
                <g>
                  <path d="M141.77,112.8c0-.09.03-.19.08-.31.09-.17,10.55-20.31,10.66-20.52.05-.1.11-.19.18-.26.06-.07.13-.13.2-.18-.05.04-.09.09-.14.14-.1.11-.18.23-.25.36l-10.61,20.42c-.05.12-.1.23-.13.34Z"/>
                  <path class="cls-3" d="M153.07,91.21c-.09,0-.19.03-.29.09-.1.06-.2.14-.29.24-.08.09-.15.2-.21.31,0,0-10.61,20.43-10.66,20.53-.17.38-.14.76.08.89l.41.27c-.19-.14-.21-.51,0-.97l10.61-20.43c.06-.12.13-.22.21-.31.09-.1.19-.19.29-.24.1-.06.2-.09.29-.09.05,0,.09,0,.13.03,0,0,1.94.81,1.98.82,0,0-.44-.29-.48-.31l-1.94-.81s-.09-.03-.13-.03h0ZM142.11,113.54s.02.01.03.02l-.03-.02h0Z"/>
                </g>
                <g>
                  <path d="M144.22,114.15l-1.95-.8c-.09-.18-.08-.41.06-.66l10.61-20.43c.1-.2.26-.37.41-.46.06-.04.12-.05.16-.05l1.98.81c.06.12.04.29-.06.5l-10.76,20.7c-.08.15-.2.29-.32.35-.06.04-.11.04-.12.04,0,0-.01,0-.01,0Z"/>
                  <path class="cls-3" d="M153.5,92.01l1.78.74s-.03.11-.07.2l-10.76,20.69c-.07.13-.15.21-.2.25l-1.8-.73c0-.07.02-.2.11-.35l10.61-20.42c.1-.19.22-.31.31-.36.01,0,.02-.01.03-.01M153.51,91.5c-.09,0-.19.03-.29.09-.19.11-.37.31-.5.56l-10.61,20.43c-.24.44-.21.9.07,1.01l1.96.8s.07.02.1.02c.08,0,.16-.03.24-.07.15-.09.3-.25.42-.46l10.76-20.7c.2-.39.16-.75-.07-.84l-1.94-.81s-.09-.03-.13-.03h0Z"/>
                </g>
              </g>
            </g>
          </g>
        </g>
      </g>
      <polyline class="cls-4" points="116.36 103.97 113.71 109.06 124.58 62.32 125.84 62.54"/>
      <polyline class="cls-4" points="118.18 101.42 119.05 100.94 127.29 65.17 126.56 65.17"/>
      <polygon points="128.17 64.21 119.67 100.75 124.8 99.87 131.35 73.08 130.71 65.7 128.17 64.21"/>
      <g class="cls-5">
        <g>
          <g>
            <g>
              <path class="cls-3" d="M86.94,132.74c-.53,0-1.07-.26-1.61-.78-2.12-2.08-.94-7.15.38-9.11.42-.62.95-1.2,1.96-1.2h.12c2.43.12,3.95,3.8,4.45,5.01.2.48.18,1.04-.01,1.33-.09.13-.18.13-.21.13-.1,0-.47-.07-1.12-.92-.15-.21-.33-.31-.53-.31s-.77,0-.97,2.09c.02,1.23-.4,2.41-1.09,3.12-.28.29-.75.63-1.35.63Z"/>
              <path d="M87.67,122.03h.1c1.46.07,2.85,1.68,4.13,4.78l.03.06c.13.33.09.69.03.85-.12-.06-.37-.24-.75-.74-.29-.38-.61-.46-.83-.46-.47,0-1.13.25-1.35,2.43v.04s0,.04,0,.04c.02,1.09-.36,2.17-.98,2.81-.23.24-.61.52-1.09.52-.43,0-.89-.23-1.34-.67-1.91-1.87-.86-6.71.43-8.63.35-.52.77-1.04,1.64-1.04M87.67,121.28c-1.29,0-1.91.84-2.27,1.37-1.34,1.98-2.69,7.28-.33,9.58.64.62,1.28.89,1.87.89,1.6,0,2.86-1.95,2.82-4.09,0,0,.18-1.76.6-1.76.07,0,.15.05.23.16.59.78,1.07,1.07,1.42,1.07.7,0,.92-1.13.6-1.91-.49-1.18-2.09-5.18-4.81-5.31-.04,0-.09,0-.13,0h0Z"/>
            </g>
            <g>
              <g>
                <path class="cls-3" d="M87.77,100.58c-1.23-.05-2.36-.58-3.19-1.49-.83-.91-1.25-2.09-1.2-3.32l1.71-28.88c.41-4.31,2.71-5.68,4.91-6.46.25-.09.5-.13.75-.13.88,0,1.57.54,2,.98.96,1,1.56,2.6,1.5,3.97l-1.67,30.94c-.11,2.47-2.13,4.4-4.59,4.4-.07,0-.14,0-.22,0Z"/>
                <path d="M90.75,60.68c.75,0,1.35.47,1.73.87.89.93,1.45,2.42,1.39,3.69l-1.67,30.95c-.1,2.26-1.95,4.03-4.21,4.03-.07,0-.13,0-.2,0-1.13-.05-2.17-.54-2.93-1.37-.76-.83-1.15-1.92-1.1-3.04l1.71-28.86c.39-4.11,2.58-5.42,4.66-6.15.21-.07.42-.11.62-.11M90.75,59.93c-.28,0-.58.05-.87.15-2.02.71-4.71,2.07-5.16,6.79l-1.71,28.89c-.13,2.75,2,5.08,4.74,5.2.08,0,.16,0,.23,0,2.64,0,4.84-2.08,4.96-4.75l1.67-30.94c.11-2.43-1.66-5.35-3.87-5.35h0Z"/>
              </g>
              <g>
                <path class="cls-3" d="M87.65,123.23c-1.95,0-3.05-.58-3.06-.87l-1.19-25.82c-.11-2.54,1.86-4.69,4.4-4.8h.21c2.47,0,4.49,1.93,4.59,4.4l-.87,25.89c.03.67-1.31,1.1-3.67,1.2-.14,0-.27,0-.4,0Z"/>
                <path d="M88,92.11c2.26,0,4.11,1.76,4.22,4.02l-.87,25.89v.03s0,.03,0,.03c0,.14-.54.66-3.31.78-.13,0-.26,0-.38,0-1.55,0-2.49-.4-2.69-.59l-1.19-25.74c-.1-2.33,1.71-4.31,4.04-4.41.06,0,.13,0,.19,0M88,91.36c-.07,0-.15,0-.22,0-2.75.12-4.87,2.44-4.75,5.19l1.19,25.82c.03.7,1.6,1.23,3.44,1.23.14,0,.28,0,.42,0,3.03-.13,4.06-.74,4.03-1.56l.87-25.92c-.12-2.67-2.32-4.76-4.97-4.76h0Z"/>
              </g>
            </g>
          </g>
          <g>
            <path class="cls-3" d="M114.13,137.04c-7.52,0-24.58-5.98-29.46-12.34-.13-.53.78-5.87,1.24-7.6,1.82-6.9,4.51-19.14,4.51-23.5,0-.45.02-3.4.04-7.38.06-9.61.14-23.92.12-25.98.68-.34,3.58-1.38,6.19-2.26l11.51-2.59,3.55,2.4,8.22,4.96c-.75,3.39-7.41,33.71-7.52,36.99-.14,4.14.96,10.24,2.11,16.69.96,5.37,1.96,10.92,2.37,15.91.02.22.06.52.11.86.13.97.41,3-.1,3.31-.58.35-1.58.53-2.89.53Z"/>
            <path d="M108.21,55.79l3.45,2.33,7.97,4.81c-.98,4.46-7.36,33.55-7.47,36.79-.14,4.18.96,10.3,2.12,16.77.96,5.36,1.96,10.9,2.36,15.88.02.23.06.54.11.88.09.64.36,2.59.08,2.93-.37.22-1.13.48-2.69.48-7.23,0-24.21-5.95-29.07-12.07-.05-.98.8-5.86,1.21-7.4,1.48-5.59,4.52-18.72,4.52-23.6,0-.44.02-3.37.04-7.32.06-9.32.14-23.05.12-25.8.9-.39,3.52-1.33,5.9-2.13l11.35-2.56M108.36,54.99l-11.71,2.64s-6.45,2.19-6.45,2.43c.05,1.32-.16,32.03-.16,33.55,0,4.47-2.79,16.93-4.5,23.41-.41,1.55-1.48,7.51-1.17,7.93,4.86,6.33,22,12.48,29.76,12.48,1.35,0,2.41-.19,3.08-.59.9-.55.26-3.42.17-4.51-.91-11.09-4.73-25.07-4.48-32.56.11-3.41,7.57-37.18,7.57-37.18l-8.43-5.09-3.68-2.49h0Z"/>
          </g>
          <g>
            <path class="cls-3" d="M108.63,43.27l-.02-2.69-.32-.04c-1.79-.23-3.42-3.49-4.06-4.95.86-.33,1.37-.58,1.39-.59l5.04-3.32c.8,1.62,1.22,3.44,1.22,5.28v3.94c-1.37.64-2.05,2.19-2.33,3.01l-.91-.64Z"/>
            <path d="M110.5,32.23c.66,1.47,1,3.09,1,4.72v3.71c-1.12.63-1.78,1.8-2.13,2.65l-.36-.25-.02-2.17v-.65s-.65-.08-.65-.08c-1.07-.14-2.43-1.79-3.61-4.37.65-.26,1.04-.45,1.06-.46l.04-.02.04-.03,4.63-3.06M110.8,31.14l-5.34,3.53s-.65.32-1.73.71c.66,1.57,2.42,5.26,4.51,5.53l.02,2.55,1.49,1.05s.61-2.67,2.49-3.36c0-.04,0-.08,0-.13v-4.07c0-2.07-.52-4.09-1.45-5.82h0Z"/>
          </g>
          <g>
            <path class="cls-3" d="M98.52,62.61c-1.1,0-1.49-1-1.49-1.94v-18.54c1.24-.52,3.94-.85,5.4-.85,1.53,0,4.19,1.11,5.5,2.07v11.16c.03.06.41,1.52-1.2,2.67-.95.69-1.92,1.44-2.85,2.18-1.29,1.01-2.5,1.96-3.53,2.6-.69.43-1.3.65-1.82.65Z"/>
            <path d="M102.42,41.66c1.37,0,3.82.99,5.13,1.89v10.96s.03.09.03.09c.03.13.29,1.3-1.07,2.28-.96.69-1.93,1.45-2.87,2.19-1.28,1-2.48,1.95-3.49,2.58-.62.39-1.18.59-1.63.59-1.04,0-1.12-1.2-1.12-1.56v-18.28c1.26-.45,3.68-.73,5.02-.73M102.42,40.91c-1.51,0-4.54.35-5.77.98v18.78c0,1.31.65,2.31,1.87,2.31.56,0,1.24-.21,2.02-.71,1.79-1.12,4.14-3.17,6.4-4.79,1.86-1.33,1.36-3.08,1.36-3.08v-11.24c-1.25-.98-4.14-2.26-5.88-2.26h0Z"/>
          </g>
          <g>
            <g>
              <path class="cls-3" d="M120.66,104.97c-2.36,0-4.37-1.84-4.58-4.19l-3.02-33.58c-.22-2.53,1.65-4.77,4.17-5,.14-.01.28-.02.42-.02,2.39,0,4.36,1.8,4.57,4.19l3.02,33.58c.11,1.22-.27,2.42-1.05,3.36-.79.94-1.9,1.52-3.12,1.63-.14.01-.28.02-.42.02h0Z"/>
              <path d="M117.66,62.56c2.2,0,4,1.66,4.2,3.85l3.02,33.58c.1,1.12-.24,2.22-.97,3.09-.72.87-1.74,1.4-2.87,1.5-.13.01-.26.02-.38.02-2.16,0-4.01-1.69-4.2-3.84l-3.02-33.58c-.21-2.32,1.51-4.38,3.84-4.59.13-.01.26-.02.39-.02M117.66,61.81c-.15,0-.3,0-.45.02-2.74.24-4.76,2.66-4.51,5.4l3.02,33.58c.23,2.58,2.4,4.53,4.95,4.53.15,0,.3,0,.45-.02,2.74-.24,4.76-2.66,4.51-5.4l-3.02-33.58c-.23-2.59-2.4-4.54-4.95-4.54h0Z"/>
            </g>
            <g>
              <g>
                <path class="cls-3" d="M121.02,142.37c-.6,0-1.07-.34-1.35-.63-.7-.71-1.12-1.88-1.1-3.07-.22-2.13-.79-2.13-.98-2.13-.2,0-.38.1-.53.31-.65.86-1.02.93-1.12.93-.04,0-.12,0-.21-.13-.19-.29-.21-.85-.05-1.26,1.34-3.31,2.83-5.01,4.46-5.09h.12c1.13,0,1.67.78,1.96,1.19,1.33,1.96,2.53,7.02.42,9.1-.53.52-1.07.79-1.61.79Z"/>
                <path d="M120.26,131.66c.86,0,1.29.51,1.65,1.03,1.27,1.87,2.44,6.68.46,8.63-.46.45-.91.68-1.34.68-.47,0-.85-.28-1.08-.52-.63-.64-1.01-1.71-.99-2.8v-.04s0-.04,0-.04c-.22-2.18-.88-2.43-1.35-2.43-.22,0-.55.08-.83.46-.38.51-.64.69-.76.75-.07-.16-.11-.53.04-.9,1.26-3.12,2.65-4.74,4.11-4.82h.11M120.26,130.91s-.09,0-.14,0c-2.72.15-4.31,4.15-4.79,5.33-.32.78-.09,1.91.61,1.91.36,0,.83-.29,1.42-1.08.08-.11.16-.16.23-.16.42,0,.61,1.76.61,1.76-.03,2.14,1.23,4.08,2.83,4.08.59,0,1.23-.27,1.87-.9,2.35-2.31.98-7.6-.37-9.59-.36-.53-.98-1.36-2.27-1.36h0Z"/>
              </g>
              <g>
                <path class="cls-3" d="M119.88,132.85c-2.4-.09-3.7-.5-3.68-1.16l-.14-30.93c.1-2.46,2.12-4.41,4.6-4.41h.18c2.54.11,4.52,2.25,4.42,4.79l-1.92,30.83c-.01.31-1.11.89-3.08.89,0,0-.25,0-.38,0Z"/>
                <path d="M120.67,96.72c.05,0,.11,0,.16,0,2.33.09,4.15,2.06,4.06,4.38l-1.92,30.78c-.19.2-1.14.6-2.7.6-.12,0-.25,0-.37,0-1.35-.05-2.32-.2-2.9-.45-.1-.04-.42-.19-.41-.35l-.14-30.89c.09-2.28,1.94-4.06,4.23-4.06M120.67,95.97c-2.66,0-4.87,2.1-4.98,4.78l.14,30.92c-.03.83,1,1.43,4.03,1.55.13,0,.27,0,.4,0,1.84,0,3.42-.53,3.45-1.24l1.93-30.84c.11-2.75-2.03-5.06-4.78-5.17-.06,0-.13,0-.19,0h0Z"/>
              </g>
            </g>
          </g>
          <path d="M108.36,54.99s1.8,3.26.69,4.94c-1.58,2.39-9.08,5.99-9.08,5.99l-1.79-2.96s9.04-4.64,10.18-7.97Z"/>
          <path d="M96.65,57.03s-2.86.94-2.66,2.89c.18,1.73,2.41,5.4,2.41,5.4l1.78-2.37s-1.53-.41-1.53-2.18c0-.69,0-2.75,0-3.75Z"/>
          <g>
            <g>
              <path class="cls-3" d="M97.14,55.61c-2.43,0-3.19-2.85-4.07-6.15l-.16-.61c-.72-2.67-.6-7.26-.52-10.62.02-.94.04-1.79.04-2.48,0-5.44,4.32-9.54,10.06-9.54s9.39,5.58,9.39,10.74v4.07c0,6.29-9.26,14.58-14.73,14.58Z"/>
              <path d="M102.49,26.59c5.57,0,9.01,5.38,9.01,10.37v4.07c0,2.76-1.93,6.25-5.16,9.35-3.07,2.95-6.68,4.85-9.19,4.85-2.04,0-2.74-2.23-3.71-5.88l-.16-.6c-.7-2.61-.59-7.18-.51-10.51.02-.94.04-1.79.04-2.48,0-5.23,4.16-9.17,9.68-9.17M102.49,25.84c-5.76,0-10.43,4.16-10.43,9.92,0,3.17-.44,9.72.49,13.19.98,3.63,1.71,7.04,4.6,7.04,5.76,0,15.1-8.51,15.1-14.96v-4.07c0-5.76-3.99-11.12-9.76-11.12h0Z"/>
            </g>
            <g>
              <path class="cls-3" d="M114.22,36.7c-.23-3.32-1.67-8.19-7.65-10.5l-.07-.03c.48-1.14,1.52-1.39,2.34-1.39,2.16,0,5.28,1.81,6.49,4.52,1.29,2.9-.19,5.94-1.11,7.4Z"/>
              <path d="M108.84,25.15c2.04,0,5,1.73,6.14,4.3.98,2.2.27,4.5-.51,6.04-.65-4.45-3.23-7.78-7.44-9.51.37-.55.97-.83,1.81-.83M108.84,24.4c-1.32,0-2.4.59-2.81,1.97h0c.13.07.27.13.4.19v-.02c5.62,2.17,7.45,6.8,7.44,11.27h0s3.68-4.42,1.78-8.68c-1.23-2.75-4.42-4.74-6.83-4.74h0Z"/>
            </g>
            <g>
              <path class="cls-3" d="M109.11,48.22c.44-1.67.45-3.42-1.34-4.83-.54-.42-.95-.71-1.31-.96-.6-.41-1.03-.71-1.66-1.39-.64-.68-.99-1.55-1.34-2.4-.66-1.61-1.34-3.28-3.97-3.28h-4.14c-1.71,0-2.64.74-3.14,1.47-.1-2.45.58-5.47,2.47-7.76,1.75-2.12,4.28-3.24,7.32-3.24,1.46,0,2.93.37,4.26,1.06l.55.29v-.08c7.83,3.38,7.29,11.91,5.69,16.5-.66,1.89-2.32,3.62-3.39,4.6Z"/>
              <path d="M102.01,26.22c1.39,0,2.81.35,4.08,1.02l1.1.55v-.09c2.9,1.4,4.77,3.67,5.55,6.76.69,2.7.47,6-.59,9.04-.48,1.37-1.52,2.67-2.45,3.63.13-1.33-.16-2.81-1.7-4.02-.55-.43-.96-.72-1.33-.97-.6-.41-.99-.69-1.6-1.33-.59-.63-.93-1.47-1.27-2.28-.67-1.65-1.43-3.51-4.31-3.51h-1.39c-.95,0-2.13,0-2.74,0-1.24,0-2.13.36-2.76.87.09-2.17.8-4.63,2.39-6.55,1.7-2.06,4.07-3.11,7.03-3.11M102.01,25.47c-8.38,0-10.93,8.05-10,12.9,0,0,.23-2.61,3.34-2.61,1.03,0,3.66,0,4.14,0,3.67,0,3.09,3.48,5.03,5.56,1.04,1.12,1.56,1.24,3.01,2.38,2.01,1.58,1.56,3.58.82,5.66,0,0,3.45-2.59,4.5-5.61,1.92-5.52,1.83-14-6.42-17.18v.02c-1.35-.7-2.87-1.1-4.43-1.1h0Z"/>
            </g>
            <path d="M106.96,44.03c-.68,1.34-.59,2.74.18,3.12.77.39,1.94-.39,2.61-1.72.67-1.34.59-2.74-.18-3.13-.77-.38-1.94.39-2.61,1.73Z"/>
            <g>
              <g>
                <path class="cls-3" d="M105.63,34.97c-1.56,0-7.75-1.12-10.51-1.73-1.36-.3-1.8-.74-1.95-.97-.13-.21-.09-.37-.08-.38.78-2.68,2.64-4.41,3.98-5.49.28-.23,1.17-.47,2.25-.47s2.16.25,2.96.71c2.26,1.29,2.98,2.86,3.52,5.3.31,1.44,1.1,2.14,2.39,2.14.18,0,.38-.01.59-.04.08,0,.15-.01.22-.01.32,0,.49.11.53.16-.02,0-.07.05-.19.09-1.24.44-1.47.46-3.29.68l-.25.03s-.1,0-.17,0Z"/>
                <path d="M99.32,26.3c1.05,0,2.03.23,2.78.66,2.15,1.23,2.81,2.66,3.34,5.05.29,1.34.98,2.13,2.05,2.36-.36.06-.81.11-1.49.19l-.23.03s-.08,0-.13,0c-1.51,0-7.76-1.14-10.43-1.73-1.45-.32-1.74-.78-1.74-.9.75-2.56,2.55-4.24,3.85-5.28.17-.13.93-.39,2.02-.39M99.32,25.55c-1.14,0-2.12.25-2.49.55-1.34,1.08-3.29,2.89-4.1,5.67,0,0-.44,1.23,2.31,1.83,2.65.59,8.98,1.74,10.59,1.74.08,0,.15,0,.21,0,2.05-.24,2.28-.25,3.62-.72.79-.28.45-.97-.46-.97-.09,0-.18,0-.27.02-.19.03-.37.04-.53.04-1.16,0-1.76-.63-2.02-1.85-.55-2.5-1.29-4.17-3.7-5.54-.97-.55-2.13-.76-3.15-.76h0Z"/>
              </g>
              <path d="M94.19,28.65c.99.41.69.3,1.39.55.29-.62.45-.94.8-1.62.55.18.79.24,1.38.36-.18.75-.3,1.1-.53,1.75.73.18,1.11.25,2.24.44-.14.65-.25.94-.47,1.5-1.2-.18-1.59-.25-2.34-.43-.24.61-.36.91-.57,1.52-.69-.13-.95-.21-1.66-.47.18-.66.28-.97.52-1.59-.75-.28-.42-.17-1.62-.68.29-.56.46-.82.86-1.34Z"/>
            </g>
          </g>
          <path d="M90.18,74.06c0-1.5.02-2.96.02-4.34l5.88.69-.51,4.28-5.4-.63Z"/>
        </g>
      </g>
      <g>
        <g>
          <g>
            <path d="M60.17,97.6s-.04,0-.06-.02c-1.85-1.03-3.71-2.06-5.56-3.08-3.63-2-7.38-4.07-11.01-6.19,3.73,1.98,7.5,4.03,11.13,6.02,1.86,1.01,3.72,2.03,5.58,3.03.04.02.07.05.05.11-.01.06-.07.12-.13.12Z"/>
            <path class="cls-3" d="M43.52,88.12c-.2,0-.33.29-.12.42,5.47,3.19,11.05,6.18,16.58,9.27.06.04.13.05.18.05.34,0,.56-.51.2-.7-5.58-3-11.1-6.1-16.73-9-.04-.02-.07-.03-.11-.03h0Z"/>
          </g>
          <g>
            <path d="M62.68,95.96s-.04,0-.06-.02c-1.85-1.03-3.71-2.06-5.56-3.08-3.63-2-7.38-4.07-11.01-6.19,3.73,1.98,7.49,4.03,11.13,6.02,1.86,1.01,3.72,2.03,5.58,3.03.04.02.07.05.05.11-.02.06-.07.12-.13.12Z"/>
            <path class="cls-3" d="M46.04,86.47c-.2,0-.33.29-.12.42,5.47,3.19,11.05,6.18,16.58,9.27.06.04.13.05.18.05.34,0,.56-.51.2-.7-5.58-3-11.1-6.1-16.73-9-.04-.02-.07-.03-.11-.03h0Z"/>
          </g>
        </g>
        <g>
          <g>
            <path d="M57.61,76.92c-.13,0-.25,0-.37-.02-1.68-.16-1.89-2.15-1.91-2.58.21-.32,1.17-1.76,2.57-3.94.24-.37.49-.79.76-1.23.9-1.48,2.02-3.31,2.81-3.8.76-.47,1.63-.73,2.45-.73.88,0,1.59.31,1.92.84.35.56.31,1.35-.14,2.28-.59,1.25-1.18,2.21-1.61,2.92-.59.97-.89,1.46-.71,1.83.14.27.47.3.58.31.26.02.57.03.89.04,1.03.04,2.32.08,2.71.62.09.12.07.18.06.21-.1.33-1.08.7-1.87.99-.25.09-.5.18-.74.28-.51.2-5.05,1.98-7.42,1.98Z"/>
            <path class="cls-3" d="M63.92,64.88h0c.8,0,1.42.26,1.71.72.3.48.25,1.19-.15,2.04-.59,1.24-1.17,2.2-1.6,2.9-.64,1.05-.96,1.58-.72,2.07.13.26.4.41.78.45.27.02.58.03.9.05.86.03,2.15.07,2.52.53-.18.24-1.13.59-1.7.8-.25.09-.5.18-.74.28-2.28.9-5.56,1.96-7.33,1.96-.12,0-.23,0-.34-.02-1.39-.13-1.64-1.75-1.68-2.26.29-.43,1.22-1.84,2.52-3.87.24-.37.5-.8.76-1.23.89-1.45,1.99-3.26,2.73-3.72.73-.44,1.55-.69,2.32-.69M63.92,64.38c-.82,0-1.74.25-2.58.76-1.08.66-2.56,3.41-3.65,5.11-1.59,2.48-2.61,4-2.61,4,0,0,.06,2.7,2.14,2.9.12.01.25.02.39.02,2.2,0,6.16-1.46,7.51-2,1.44-.57,3.25-1.04,2.65-1.85-.6-.82-2.62-.66-3.78-.76-1.16-.1.35-1.37,1.94-4.7,1.08-2.28-.23-3.48-2.01-3.48h0Z"/>
          </g>
          <g>
            <path d="M25.28,72.63c-.27-1.38-1.32-8.15,3.19-12.59,1.72-1.69,3.81-2.55,6.21-2.55,3.03,0,5.5,1.39,5.52,1.4l.06.03h4.26l-2.49,9.14-16.75,4.56Z"/>
            <path class="cls-3" d="M34.68,57.75c2.95,0,5.38,1.35,5.4,1.37l.12.07h4l-2.37,8.69-16.35,4.45c-.31-1.79-1.01-7.98,3.17-12.09,1.67-1.64,3.7-2.48,6.04-2.48M34.68,57.25c-2.04,0-4.35.61-6.39,2.62-5.18,5.1-3.2,13.07-3.2,13.07l17.14-4.66,2.62-9.6h-4.52s-2.51-1.43-5.65-1.43h0Z"/>
          </g>
          <g>
            <path d="M9.68,217.81c-2.21,0-4.14-1.04-4.41-2.37-.34-1.7.07-5.25.67-7.78,1.54-.38,14.58-3.66,18.38-4.89.64-.21,1.28-.31,1.9-.31,1.51,0,2.74.63,3.22,1.64.44.94.18,2.07-.74,3.2-1.74,2.13-4.51,3.96-6.53,5.3-1.18.78-2.12,1.4-2.56,1.87-1.06,1.13-5.11,2.44-8.43,3.17-.5.11-1.01.17-1.52.17h0Z"/>
            <path class="cls-3" d="M26.23,202.72c1.41,0,2.56.57,2.99,1.5.4.84.15,1.88-.7,2.93-1.71,2.1-4.46,3.92-6.47,5.25-1.2.79-2.14,1.41-2.6,1.91-.97,1.05-4.91,2.35-8.3,3.1-.48.11-.97.16-1.47.16-2.06,0-3.92-.97-4.16-2.16-.32-1.63.06-5.03.63-7.53,2.08-.52,14.54-3.65,18.25-4.85.62-.2,1.23-.3,1.83-.3M26.23,202.22c-.62,0-1.29.1-1.98.33-4.06,1.31-18.51,4.92-18.51,4.92-.65,2.68-1.05,6.29-.71,8.03.28,1.43,2.3,2.57,4.65,2.57.51,0,1.04-.05,1.57-.17,2.96-.66,7.38-1.99,8.56-3.25,1.18-1.26,6.35-3.82,9.1-7.18,2.28-2.79.36-5.24-2.68-5.24h0Z"/>
          </g>
          <g>
            <path d="M19.87,228.19c-.71,0-1.42-.06-2.16-.19-2.25-.39-4.28-1.52-5.17-2.88-.42-.65-.57-1.32-.41-1.94.48-1.95,1.81-5.83,2.08-6.6l5.98-1.17c.68.17,7.46,1.81,12.02,1.81,2.94,0,5.44,1.25,6.08,3.03.48,1.34-.16,2.83-1.81,4.2-3.11,2.57-5.64,2.92-7.7,2.92-.42,0-.83-.01-1.21-.03-.35-.01-.69-.03-1.01-.03-.28,0-.56,0-.81.04-.75.08-1.45.22-2.19.37-1.12.23-2.29.47-3.67.47h0Z"/>
            <path class="cls-3" d="M20.19,215.67c.96.24,7.48,1.81,12.03,1.81,2.83,0,5.24,1.18,5.84,2.86.44,1.24-.17,2.63-1.74,3.92-3.05,2.52-5.53,2.86-7.54,2.86-.42,0-.82-.01-1.2-.03-.36-.01-.7-.03-1.02-.03s-.59.01-.84.04c-.76.08-1.47.22-2.22.38-1.11.23-2.26.47-3.62.47-.7,0-1.39-.06-2.12-.19-2.18-.38-4.15-1.47-5-2.77-.39-.6-.52-1.18-.38-1.74.46-1.85,1.68-5.43,2.03-6.44l5.78-1.13M20.2,215.16l-6.17,1.2s-1.59,4.56-2.13,6.76c-.55,2.2,2.24,4.52,5.78,5.13.8.14,1.53.19,2.2.19,2.31,0,4-.65,5.89-.85.25-.03.51-.04.79-.04.67,0,1.41.05,2.22.05,2.1,0,4.7-.36,7.86-2.97,4.55-3.76.89-7.67-4.43-7.67-4.81,0-12.01-1.82-12.01-1.82h0Z"/>
          </g>
          <g>
            <path d="M10.18,211.46c-1.24,0-3.57-.33-5.21-2.53-1.08-5.42-.73-14.65-.49-20.76.05-1.37.1-2.61.13-3.65.24-9.31.68-15.3,6.62-20.75l.11-.1-.04-.15c-2.55-9.56-5.37-18.85-7.93-26.15-2.01-5.72-2.67-12.64-1.62-16.82,2.69-10.66,9.75-16.6,11.04-17.6,1.38,1.99,11.92,17.58,11.31,29.82-.32,6.36-.08,12.63.14,18.16.24,6.25.45,11.65-.11,16.06-.15,1.21-.85,3.72-1.66,6.62-.92,3.31-1.96,7.06-2.63,10.39-.72,3.53-1.61,7.23-2.47,10.81-1.21,5-2.45,10.17-3.18,14.76-.14.91-1.79,1.88-4,1.88h0Z"/>
            <path class="cls-3" d="M12.74,103.32c1.85,2.7,11.7,17.65,11.11,29.45-.32,6.37-.08,12.64.14,18.18.24,6.24.45,11.63-.11,16.02-.15,1.19-.85,3.69-1.65,6.59-.92,3.31-1.96,7.07-2.64,10.4-.72,3.53-1.61,7.22-2.47,10.8-1.21,5.01-2.45,10.18-3.19,14.78-.13.79-1.76,1.67-3.76,1.67-1.19,0-3.4-.31-4.97-2.39-1.06-5.39-.71-14.56-.48-20.64.05-1.37.1-2.61.13-3.65.24-9.25.68-15.19,6.54-20.57l.22-.2-.08-.29c-2.56-9.58-5.38-18.88-7.94-26.17-1.99-5.68-2.65-12.53-1.61-16.68,2.55-10.11,9.06-15.93,10.74-17.3M12.85,102.6s-8.33,5.97-11.33,17.9c-1.07,4.24-.39,11.23,1.62,16.97,3.84,10.94,7.02,22.74,7.92,26.13-5.99,5.49-6.47,11.64-6.7,20.92-.15,5.81-.96,17.89.38,24.51,1.44,1.96,3.55,2.68,5.44,2.68,2.19,0,4.07-.96,4.25-2.09,1.25-7.83,3.92-17.04,5.65-25.56,1.29-6.33,3.96-14.44,4.29-17.03,1.08-8.49-.69-20.96-.03-34.24.67-13.28-11.5-30.19-11.5-30.19h0Z"/>
          </g>
          <g>
            <path d="M20.27,220.63c-.65,0-1.34-.1-2.04-.31-2.94-.85-4.67-2.45-5.03-2.81.09-1.66,1.22-21.7,5.28-29.95,4.74-9.63,11.13-14.74,11.19-14.79l.15-.12-.07-.17c-.05-.12-4.83-11.75-7.05-18.66-2.72-8.48-3.75-16.88-3.76-16.96l-.02-.14-.13-.06c-.07-.03-6.71-3.17-6.64-12.23.05-6.55,2.25-11.8,2.65-12.72h23.11c.42,1.85,3.7,16.4,4.63,25.11,1,9.36,1.43,28.66,1.43,34.76,0,3.68-.21,6.79-2.86,10.53-3.03,4.27-6.16,10.08-8.82,16.37-4.64,10.97-8.12,20.36-8.16,20.45-.02.02-1.22,1.7-3.87,1.7Z"/>
            <path class="cls-3" d="M37.71,111.96c.57,2.5,3.68,16.44,4.59,24.89,1,9.34,1.43,28.63,1.43,34.74,0,3.63-.21,6.71-2.81,10.38-3.04,4.28-6.18,10.11-8.85,16.42-4.44,10.49-7.82,19.53-8.14,20.4-.21.27-1.35,1.61-3.66,1.61-.62,0-1.29-.1-1.98-.3-2.71-.78-4.37-2.22-4.84-2.67.12-2.28,1.28-21.68,5.24-29.74,4.71-9.58,11.06-14.65,11.12-14.7l.3-.23-.14-.35c-.05-.12-4.83-11.74-7.04-18.64-2.71-8.46-3.74-16.83-3.75-16.91l-.03-.28-.25-.12s-1.67-.78-3.28-2.64c-2.16-2.49-3.24-5.64-3.21-9.37.05-6.21,2.04-11.25,2.57-12.47h22.75M38.11,111.46H14.64s-2.69,5.63-2.74,12.97c-.07,9.34,6.79,12.46,6.79,12.46,0,0,1.01,8.4,3.77,17.01,2.25,7,7.06,18.68,7.06,18.68,0,0-6.44,5.07-11.26,14.88-4.29,8.72-5.31,30.16-5.31,30.16,0,0,1.79,1.97,5.21,2.96.78.23,1.49.32,2.11.32,2.82,0,4.1-1.87,4.1-1.87,0,0,3.46-9.34,8.15-20.44,2.52-5.96,5.67-11.92,8.79-16.32,2.68-3.79,2.9-6.97,2.9-10.67,0-5.8-.43-25.4-1.43-34.79-1.01-9.39-4.68-25.33-4.68-25.33h0Z"/>
          </g>
          <g>
            <path d="M31.47,123.18c-2.92,0-5.71-.55-8.3-1.62-8.68-3.61-14.7-11.97-15.53-13.17.59-.79,3.57-4.76,6.59-8.4.43-.52.83-.99,1.2-1.42,2.62-3.08,4.06-4.78,6.28-11.69,1.4-4.39,1.86-7.13,2.26-9.55.39-2.34.72-4.36,1.83-7.25,2.63-6.84,6.7-11.48,10.37-11.82.17-.02.34-.02.51-.02,2.61,0,5.13,1.82,8.05,3.93.61.44,1.23.89,1.88,1.34,2.82,1.96,6.97,5.52,9.01,8.08,2.11,2.63,2.1,2.89,1.9,7.26l-.07,1.7c-.24,6.31-.86,8.57-1.49,10.07-1.43,3.42-12.63,16.11-12.74,16.23l-.22.25.3.14s1.46.72,1.78,1.97c.17.67,0,1.38-.51,2.12-.17.25-.66.41-1.18.57-.96.31-2.16.69-2.12,2.02.05,1.63.01,6.33,0,7.25-.77.35-4.72,2.02-9.79,2.02h0Z"/>
            <path class="cls-3" d="M36.67,58.47c2.53,0,5.02,1.8,7.9,3.88.61.44,1.24.89,1.88,1.34,2.75,1.91,6.96,5.53,8.96,8.03,2.05,2.56,2.04,2.73,1.85,7.1-.02.51-.05,1.07-.07,1.7-.24,6.27-.85,8.5-1.47,9.98-1.42,3.39-12.58,16.04-12.7,16.16l-.43.49.59.29s1.35.68,1.65,1.82c.15.59,0,1.24-.48,1.92-.13.18-.62.34-1.05.47-.93.3-2.34.75-2.29,2.27.05,1.55.01,5.87,0,7.08-1.02.45-4.78,1.93-9.55,1.93-2.89,0-5.65-.54-8.21-1.6-8.32-3.46-14.19-11.34-15.32-12.94.78-1.05,3.61-4.79,6.47-8.25.43-.52.83-.98,1.2-1.42,2.64-3.11,4.09-4.82,6.32-11.78,1.41-4.4,1.86-7.16,2.27-9.59.38-2.33.72-4.34,1.82-7.2,2.6-6.75,6.58-11.33,10.16-11.66.16-.02.33-.02.49-.02M36.67,57.97c-.18,0-.36,0-.54.02-3.52.33-7.73,4.57-10.58,11.98-2.26,5.88-1.32,8.16-4.09,16.81-2.51,7.85-4.03,8.93-7.43,13.03-3.4,4.11-6.7,8.56-6.7,8.56,0,0,6.25,9.46,15.74,13.41,2.93,1.22,5.82,1.64,8.4,1.64,5.77,0,10.04-2.11,10.04-2.11,0,0,.06-5.58,0-7.42-.06-1.83,2.66-1.59,3.25-2.44,1.97-2.85-1.36-4.47-1.36-4.47,0,0,11.32-12.8,12.78-16.3.73-1.74,1.28-4.18,1.51-10.15.23-6.08.53-6.12-1.89-9.13-2.01-2.51-6.18-6.12-9.06-8.13-3.77-2.63-6.82-5.31-10.07-5.31h0Z"/>
          </g>
          <g>
            <g>
              <path d="M53.16,63.49c-5.93,0-10.94-7.59-12.08-11.84-1.1-4.1-.38-8.76,1.88-12.16,1.78-2.68,4.33-4.31,7.38-4.73.07,0,.15-.01.22-.01,3,0,10.96,6.93,10.96,15.26,0,6.09-1.69,10.61-4.63,12.39-1.2.73-2.45,1.1-3.74,1.1Z"/>
              <path class="cls-3" d="M50.56,35c2.93,0,10.71,6.82,10.71,15.01,0,6-1.64,10.44-4.51,12.18-1.16.7-2.37,1.06-3.61,1.06-2.46,0-5.14-1.46-7.53-4.12-2-2.22-3.65-5.11-4.3-7.53-1.08-4.03-.37-8.62,1.84-11.96,1.74-2.61,4.23-4.21,7.2-4.62.06,0,.12-.01.19-.01M50.56,34.5c-.09,0-.18,0-.26.02-8.01,1.1-11.33,10.22-9.46,17.21,1.24,4.61,6.43,12.02,12.32,12.02,1.27,0,2.57-.34,3.86-1.13,2.75-1.67,4.75-5.9,4.75-12.61,0-8.5-8.03-15.51-11.21-15.51h0Z"/>
            </g>
            <g>
              <path d="M49.95,60.34c-1.88-.29-2.59-2.21-2.14-3.74l-1.05-.13-5.25,5.14s-1.96,1.62-1.93,3.18c.01.59.3,1.09.88,1.53.59.45,4.42.89,7.74.89,1.45,0,2.64-.08,3.4-.24,0-1.08.21-2.43.5-3.8-1.44-.29-2.15-1.57-2.14-2.84Z"/>
              <g>
                <path d="M48.18,67.25c-3.38,0-7.16-.44-7.76-.9-.59-.45-.88-.96-.89-1.56-.03-1.58,1.92-3.19,1.94-3.21l5.26-5.15.82.1-.02.07-.78-.09-5.22,5.11s-1.97,1.64-1.94,3.17c.01.57.29,1.06.86,1.5.55.41,4.03.88,7.72.88,1.3,0,2.4-.07,3.16-.2l.2-.03v-.21c.03-.88.18-1.99.45-3.33h.07c-.3,1.48-.45,2.68-.45,3.59-.76.16-1.97.25-3.44.25Z"/>
                <path class="cls-3" d="M46.65,56.17l-5.33,5.22s-3.77,3.08-1.05,5.16c.69.53,4.65.95,7.91.95,1.51,0,2.86-.09,3.69-.3-.03-1.09.19-2.53.5-3.98-.2-.02-.39-.06-.56-.12-.27,1.29-.47,2.57-.5,3.63-.74.12-1.82.19-3.12.19-3.74,0-7.12-.5-7.57-.83-.5-.38-.75-.81-.76-1.3-.02-1.18,1.31-2.53,1.83-2.95l.02-.02.02-.02,5.13-5.03.88.11c.04-.19.09-.38.16-.56l-1.25-.15h0Z"/>
              </g>
            </g>
            <g>
              <path d="M42.82,60.96c-.76-1.55-1.92-3.01-3.04-4.42-.98-1.23-1.99-2.51-2.7-3.8-3.66-6.67-2.85-11.33,2.54-14.67l.08-.05.03-.08c1.7-4.87,5.23-7.77,9.44-7.77,2.83,0,5.79,1.33,8.31,3.75l.07.07h.1c2.11.03,5.03.31,6,2.35.91,1.92.53,4.31-.89,5.56l-.16.14.11.18c1.39,2.21.71,5.07-1.55,6.52-.79.51-1.91.79-3.15.79-1.31,0-2.61-.31-3.65-.87l-.32-.17-.05.36c-.43,3.06-3.32,5.86-5.75,6.7l-.17.06v.18c.04,1.9-2.49,4.38-5.25,5.19Z"/>
              <path class="cls-3" d="M49.16,30.41h0c2.77,0,5.66,1.31,8.14,3.68l.14.14h.2c2.04.03,4.87.29,5.78,2.21.86,1.82.51,4.09-.83,5.27l-.32.28.23.36c1.34,2.12.71,4.78-1.47,6.18-.75.48-1.82.75-3.02.75-1.27,0-2.53-.3-3.53-.84l-.63-.34-.1.71c-.42,2.97-3.22,5.68-5.58,6.49l-.34.12v.36c.03,1.59-2.06,3.99-4.87,4.88-.77-1.5-1.89-2.91-2.98-4.28-.97-1.23-1.98-2.49-2.68-3.77-3.58-6.53-2.8-11.08,2.46-14.34l.15-.09.06-.17c1.66-4.76,5.1-7.6,9.2-7.6M49.16,29.91c-4.09,0-7.83,2.66-9.67,7.94-6.38,3.96-5.67,9.46-2.63,15.01,1.56,2.85,4.45,5.45,5.83,8.4,3.02-.79,5.67-3.45,5.64-5.49,2.66-.92,5.48-3.86,5.91-6.9,1.1.59,2.46.9,3.77.9,1.24,0,2.42-.27,3.29-.83,2.45-1.57,3.06-4.58,1.62-6.87,1.58-1.4,1.87-3.92.95-5.85-1-2.12-3.86-2.46-6.22-2.49-2.66-2.55-5.66-3.82-8.48-3.82h0Z"/>
            </g>
            <g>
              <path d="M42,45.24c-1.31,0-2.65-.63-3.34-1.57l-.1-.14-.17.05c-.6.17-1.24.26-1.85.26-1.26,0-2.31-.37-2.94-1.05-.54-.58-.78-1.37-.72-2.35.15-2.24,1.84-4.77,4.04-4.84h.26s-.01-.26-.01-.26c-.07-1.47.7-3.19,2.56-3.46.12-.02.25-.03.37-.03,1.05,0,2.11.66,2.64,1.64l.21.39.23-.38c.33-.56.93-.89,1.65-.89.77,0,1.52.38,2.01,1.03.75.99,1,1.92.75,2.78-.3,1.03-1.36,1.94-2.89,2.5l-.32.12.21.27c.74.95,1.04,2.17.79,3.26-.16.71-.62,1.7-1.92,2.34-.42.21-.92.32-1.45.32Z"/>
              <path class="cls-3" d="M40.09,32.1c.96,0,1.93.61,2.42,1.51l.42.78.45-.77c.29-.48.81-.76,1.43-.76.69,0,1.37.35,1.81.93.7.92.93,1.78.7,2.56-.28.96-1.28,1.81-2.73,2.34l-.65.24.42.54c.7.89.98,2.03.75,3.05-.21.95-.83,1.7-1.79,2.18-.38.19-.84.29-1.34.29-1.24,0-2.5-.59-3.13-1.47l-.2-.28-.33.09c-.58.16-1.2.25-1.78.25-1.19,0-2.17-.34-2.76-.97-.49-.52-.71-1.25-.65-2.16.14-2.13,1.73-4.54,3.8-4.6h.51s-.03-.52-.03-.52c-.07-1.37.64-2.95,2.35-3.2.11-.02.22-.02.33-.02M40.09,31.6c-.13,0-.27,0-.4.03-1.89.28-2.86,2.01-2.78,3.72-2.34.07-4.12,2.68-4.28,5.07-.17,2.64,1.79,3.66,3.91,3.66.64,0,1.3-.09,1.92-.27.75,1.03,2.19,1.67,3.54,1.67.55,0,1.09-.11,1.56-.34,2.5-1.25,2.69-4.09,1.21-5.98,2.47-.9,4.32-2.94,2.25-5.67-.57-.75-1.41-1.12-2.21-1.12-.76,0-1.47.34-1.87,1.01-.54-1.01-1.67-1.77-2.86-1.77h0Z"/>
            </g>
            <g>
              <path d="M12.33,78.46c-.21,0-.42,0-.63-.03-2.6-.25-5.07-2.14-6.16-4.71-.68-1.6-.96-4.1-.05-6.08l.17-.37-.5.02c-1.22,0-2.17-.72-2.75-1.33-1.19-1.24-1.95-3.13-1.89-4.7.12-3.09,2.4-6.05,5.08-6.61l.34-.07-.17-.3c-1.36-2.37-1.14-4.28.66-5.85.68-.59,1.49-1.02,2.33-1.22l.31-.07-.15-.28c-.89-1.72-1.12-4.01-.56-5.57,1.14-3.14,4.65-5.41,8.34-5.41.36,0,.71.02,1.06.07l.42.05-.16-.39c-.54-1.34-.34-2.85.54-4.16.97-1.44,2.61-2.37,4.17-2.37.39,0,.78.06,1.15.17l.31.09.02-.32c.19-3.51,2.89-4.02,4.04-4.08h.19c1.35,0,3,.72,4.76,2.11l.14.11.15-.09c.81-.49,1.65-.73,2.5-.73,1.86,0,3.46,1.25,3.79,2.98.37,1.92,0,3.6-1.05,4.85l-.27.32.41.09c1.61.33,2.92,1.27,3.61,2.58.72,1.37.72,2.98.01,4.68-1.39,3.31-4.32,4.01-6.53,4.01-.27,0-.54-.01-.81-.03l-.42-.03.17.38c.84,1.9.95,3.57.34,5.11-.71,1.77-2.36,2.83-4.4,2.83h-.12c-1.34-.03-2.82-.57-4.18-1.53l-.28-.2-.1.33c-.14.46-.36.89-.64,1.22-.79.94-2.17,1.48-3.79,1.48h-.71s.39.42.39.42c3.14,3.45,5.25,8.43,2.91,11.79-1.17,1.68-3,2.64-5.01,2.64-.52,0-1.04-.07-1.55-.2l-.41-.11.11.41c.58,2.21.16,4.58-1.08,6.19-.97,1.26-2.36,1.93-4.01,1.93h0Z"/>
              <path class="cls-3" d="M28.43,25.18c1.29,0,2.89.71,4.61,2.06l.27.21.29-.18c.77-.46,1.57-.7,2.37-.7,1.74,0,3.23,1.17,3.55,2.77.25,1.29.28,3.14-1,4.64l-.54.64.82.17c1.53.32,2.79,1.21,3.44,2.45.68,1.3.68,2.84,0,4.47-1.33,3.19-4.16,3.85-6.3,3.85-.26,0-.53,0-.79-.03l-.83-.06.34.76c.81,1.83.92,3.44.33,4.91-.67,1.68-2.23,2.68-4.17,2.68h-.12c-1.29-.03-2.72-.56-4.05-1.48l-.57-.4-.2.67c-.13.43-.33.82-.59,1.13-.74.88-2.05,1.39-3.6,1.39h-.13s-1.16-.02-1.16-.02l.78.86c3.07,3.38,5.15,8.23,2.89,11.48-1.12,1.61-2.88,2.54-4.81,2.54-.5,0-1-.06-1.49-.19l-.83-.22.21.83c.55,2.1.14,4.45-1.04,5.97-.92,1.2-2.24,1.83-3.81,1.83-.2,0-.4,0-.61-.03-2.51-.24-4.9-2.07-5.95-4.56-.78-1.83-.8-4.25-.06-5.87l.33-.73-.81.03h-.09c-1.13,0-2.02-.68-2.57-1.25-1.15-1.19-1.88-3.01-1.82-4.52.11-2.98,2.3-5.84,4.88-6.37l.68-.14-.34-.6c-1.31-2.28-1.12-4.04.61-5.54.66-.57,1.43-.97,2.23-1.16l.62-.15-.3-.57c-.86-1.66-1.09-3.87-.54-5.37,1.1-3.04,4.51-5.25,8.11-5.25.35,0,.69.02,1.03.06l.84.11-.32-.79c-.51-1.26-.32-2.69.52-3.92.93-1.37,2.48-2.26,3.96-2.26.37,0,.73.05,1.07.16l.61.19.03-.64c.17-3.19,2.46-3.78,3.8-3.85.06,0,.12,0,.18,0M28.43,24.68c-.07,0-.13,0-.2,0-2.03.1-4.11,1.2-4.28,4.32-.4-.12-.81-.18-1.22-.18-3.19,0-6.28,3.55-4.95,6.87-.36-.05-.72-.07-1.09-.07-3.61,0-7.34,2.17-8.58,5.58-.59,1.63-.36,3.99.57,5.77-.86.21-1.71.63-2.44,1.27-2.2,1.92-1.89,4.11-.72,6.17-2.94.61-5.17,3.79-5.28,6.84-.1,2.7,2.1,6.29,4.9,6.29.04,0,.07,0,.11,0-.87,1.92-.71,4.48.05,6.28,1.08,2.56,3.56,4.59,6.36,4.86.22.02.44.03.66.03,4.43,0,6.33-4.6,5.33-8.43.52.14,1.07.21,1.61.21,1.95,0,3.92-.89,5.22-2.75,2.55-3.66.02-8.86-2.93-12.1.05,0,.09,0,.14,0,1.51,0,3.06-.47,3.98-1.57.32-.38.55-.83.69-1.31,1.34.94,2.88,1.54,4.32,1.57.04,0,.09,0,.13,0,2.05,0,3.85-1.02,4.63-2.99.73-1.84.4-3.63-.34-5.3.28.02.56.03.83.03,3.03,0,5.55-1.28,6.76-4.16,1.59-3.81-.49-6.92-3.8-7.6,1.2-1.41,1.47-3.2,1.11-5.06-.36-1.84-2.03-3.18-4.04-3.18-.84,0-1.74.24-2.63.77-1.42-1.11-3.22-2.16-4.91-2.16h0Z"/>
            </g>
            <g>
              <path d="M50.43,56.21c-.27,0-.54-.08-.81-.24-.94-.57-1.41-1.5-1.31-2.62.13-1.46,1.18-2.85,2.54-3.36.18-.07.36-.1.53-.1,1.31,0,2.21,1.88,2.4,2.31-.23.6-1.58,4.01-3.35,4.01h0Z"/>
              <path class="cls-3" d="M51.39,50.13c.99,0,1.81,1.36,2.13,2.07-.44,1.14-1.72,3.76-3.09,3.76-.23,0-.45-.07-.68-.21-1.16-.69-1.24-1.79-1.19-2.38.12-1.35,1.12-2.67,2.38-3.15.15-.06.3-.09.44-.09M51.39,49.63c-.2,0-.41.04-.62.12-2.62.99-3.9,4.85-1.27,6.43.33.2.64.28.94.28,2.13,0,3.62-4.27,3.62-4.27,0,0-1.01-2.56-2.67-2.56h0Z"/>
            </g>
          </g>
          <g>
            <path d="M35.06,116.71c-1.55-.04-4.38-.19-6.22-.72-1.84-.53-4.51-2.58-5.94-3.76,1.63.56,4.5,1.53,6.52,2.18,1.99.63,4.33,1.69,5.64,2.3Z"/>
            <path class="cls-3" d="M24.17,112.94c1.6.54,3.63,1.23,5.17,1.72,1.48.47,3.17,1.18,4.46,1.76-1.54-.08-3.51-.26-4.9-.66-1.39-.4-3.29-1.71-4.73-2.82M21.73,111.57s4.34,3.89,7.04,4.67c2.51.72,6.76.74,7.35.74.04,0,.07,0,.07,0,0,0-3.71-1.85-6.69-2.81-2.98-.95-7.77-2.6-7.77-2.6h0Z"/>
          </g>
          <g>
            <path d="M31.71,110.78c-2.15,0-4.57-.69-5.89-1.13,2.11-.24,6.78-.8,8.65-1.19.56-.12,1.16-.17,1.78-.17.98,0,1.83.14,2.35.25-.97.58-3.27,1.83-5.78,2.17-.34.05-.71.07-1.11.07Z"/>
            <path class="cls-3" d="M36.25,108.53c.61,0,1.18.06,1.64.13-1.13.62-3.04,1.52-5.1,1.8-.33.04-.69.07-1.07.07-1.6,0-3.36-.39-4.69-.77,2.34-.28,5.89-.72,7.49-1.05.54-.11,1.12-.17,1.73-.17M36.25,108.03c-.58,0-1.2.05-1.83.18-2.45.51-9.69,1.31-9.69,1.31,0,0,3.76,1.51,6.99,1.51.39,0,.77-.02,1.14-.07,3.41-.46,6.37-2.52,6.37-2.52,0,0-1.3-.4-2.98-.4h0Z"/>
          </g>
          <g>
            <path d="M66.09,106.8c-3.17-1.71-5.18-2.91-6.65-4.3-3.69-3.49-6.97-8.79-7.01-8.85l-.13-.22-.21.14s-1.61,1.04-3.08,1.04c-.82,0-1.45-.32-1.86-.96-.98-1.5-1.12-6.78-.63-10.57.57-4.38,3.66-12.36,7.83-12.76.48.23,4.01,2.07,5,6.63.11.49.22,1.08.35,1.75.57,2.96,1.43,7.43,3.3,10.97.76,1.43,1.5,3.08,2.16,4.54.64,1.42,1.2,2.65,1.6,3.32l.14.23.22-.16c.36-.26,10.21-7.89,13.19-10.75,1.09-1.05.88-4.05.52-5.42-.33-1.29-.17-1.68-.09-1.79.03-.04.08-.09.21-.09.11,0,.24.03.4.1,1.6.67,2.71,2.72,2.72,2.74l.11.2.21-.09s.86-.39,2.64-1.49c1.51-.94,3.39-2.11,5.28-2.11.86,0,1.63.24,2.38.72.44.29.7.65.78,1.11.17.99-.5,2.48-1.98,4.43-.48.62-2.16,1.34-3.65,1.97-1.03.44-2,.85-2.65,1.25-4.87,2.99-6.31,5.03-8.15,7.62-.72,1.02-1.53,2.17-2.65,3.49-1.52,1.81-6.97,6.56-10.29,7.3Z"/>
            <path class="cls-3" d="M54.3,70.57c.64.32,3.87,2.14,4.81,6.42.11.49.22,1.08.35,1.74.57,2.97,1.44,7.47,3.32,11.04.75,1.42,1.5,3.07,2.15,4.52.65,1.43,1.21,2.67,1.62,3.35l.28.46.44-.32c.36-.26,10.23-7.9,13.22-10.77,1.24-1.19.92-4.39.59-5.67-.33-1.29-.14-1.56-.13-1.56,0,0,0,0,0,0,.04,0,.14.01.3.08,1.52.64,2.59,2.61,2.6,2.63l.22.41.42-.19s.88-.39,2.67-1.51c1.48-.92,3.33-2.07,5.14-2.07.81,0,1.54.22,2.25.68.38.25.6.55.67.94.16.92-.49,2.35-1.94,4.23-.44.57-2.16,1.3-3.55,1.9-1.04.44-2.02.86-2.68,1.27-4.91,3.02-6.37,5.08-8.22,7.69-.72,1.01-1.53,2.16-2.63,3.48-1.57,1.86-6.92,6.43-10.07,7.2-3.1-1.68-5.07-2.86-6.51-4.22-3.66-3.46-6.93-8.74-6.97-8.8l-.27-.44-.43.28s-1.55,1-2.95,1c-.74,0-1.28-.28-1.65-.85-.84-1.3-1.12-6.25-.59-10.4.55-4.29,3.53-12.07,7.53-12.54M54.39,70.06c-4.45.35-7.57,8.71-8.12,12.98-.5,3.87-.35,9.18.66,10.74.53.81,1.29,1.08,2.07,1.08,1.57,0,3.22-1.08,3.22-1.08,0,0,3.29,5.34,7.05,8.9,1.46,1.38,3.37,2.54,6.78,4.38,3.31-.68,8.88-5.45,10.52-7.41,3.9-4.65,3.97-6.91,10.73-11.06,1.62-.99,5.53-2.18,6.37-3.29,2.19-2.86,2.74-4.87,1.14-5.9-.84-.54-1.68-.76-2.52-.76-1.9,0-3.76,1.12-5.41,2.14-1.78,1.11-2.61,1.47-2.61,1.47,0,0-1.14-2.14-2.84-2.86-.19-.08-.35-.12-.5-.12-.58,0-.75.68-.36,2.19.38,1.47.51,4.26-.45,5.18-2.96,2.84-12.79,10.46-13.17,10.73-.8-1.32-2.26-5.01-3.76-7.84-2.27-4.29-3.04-9.96-3.63-12.65-1.11-5.06-5.2-6.83-5.2-6.83h0Z"/>
          </g>
        </g>
      </g>
    </g>
  </g>
</svg>