<?xml version="1.0" encoding="UTF-8"?>
<svg id="Capa_2" data-name="Capa 2" xmlns="http://www.w3.org/2000/svg" viewBox="0 0 417 218.8">
  <defs>
    <style>
      .cls-1 {
        fill: none;
      }

      .cls-1, .cls-2 {
        stroke: #fff;
        stroke-miterlimit: 10;
      }

      .cls-3 {
        fill: #1ebab0;
      }

      .cls-4 {
        fill: #fff;
      }

      .cls-5 {
        fill: #2c7eb5;
      }

      .cls-6 {
        fill: #ec597d;
      }
    </style>
  </defs>
  <g id="Capa_2-2" data-name="Capa 2">
    <g>
      <g>
        <g>
          <g>
            <path d="M7.34,218.3c-3.77,0-6.84-3.07-6.84-6.84V7.34C.5,3.57,3.57.5,7.34.5h79.05c2.31,0,4.45,1.16,5.72,3.09l12.89,19.65c1.46,2.22,3.91,3.54,6.56,3.54h298.09c3.77,0,6.84,3.07,6.84,6.84v177.82c0,3.77-3.07,6.84-6.84,6.84H7.34Z"/>
            <path class="cls-4" d="M86.4,1c2.14,0,4.13,1.07,5.3,2.86l12.89,19.65c1.55,2.36,4.16,3.77,6.98,3.77h298.09c3.5,0,6.34,2.85,6.34,6.34v177.82c0,3.5-2.85,6.34-6.34,6.34H7.34c-3.5,0-6.34-2.85-6.34-6.34V7.34C1,3.85,3.85,1,7.34,1h79.05M86.4,0H7.34C3.29,0,0,3.29,0,7.34v204.11c0,4.06,3.29,7.34,7.34,7.34h402.31c4.06,0,7.34-3.29,7.34-7.34V33.63c0-4.06-3.29-7.34-7.34-7.34H111.57c-2.47,0-4.78-1.25-6.14-3.32l-12.89-19.65c-1.36-2.07-3.67-3.32-6.14-3.32h0Z"/>
          </g>
          <path class="cls-2" d="M93.55,5.75h11.71c1.96,0,3.84.78,5.22,2.16l18.23,18.23"/>
        </g>
        <circle class="cls-2" cx="178.65" cy="160.99" r="23.63"/>
        <circle class="cls-2" cx="136.95" cy="161.11" r="23.63"/>
        <circle class="cls-2" cx="97.86" cy="160.99" r="23.63"/>
        <circle class="cls-2" cx="57.63" cy="160.99" r="23.63"/>
        <g id="jnPx5u">
          <g>
            <g>
              <path d="M48.68,165.43c-.17,0-.36-.05-.39-.16v-8.63c.02-.05.21-.11.39-.11s.31.05.33.08v8.78s-.02,0-.03,0c-.04,0-.15.04-.3.04Z"/>
              <path class="cls-4" d="M48.69,156.79s.05,0,.07,0v8.39s-.04,0-.07,0c-.05,0-.1,0-.13-.01v-8.36s.08-.01.13-.01M48.69,156.29c-.28,0-.58.1-.63.36v8.68c.05.25.35.36.63.36s.57-.11.57-.28v-8.83c0-.17-.28-.28-.57-.28h0Z"/>
            </g>
            <g>
              <path d="M66.58,165.43c-.18,0-.31-.05-.33-.08v-8.78s.02,0,.03,0c.04,0,.15-.04.3-.04.17,0,.36.05.39.16v8.63c-.02.05-.21.11-.39.11Z"/>
              <path class="cls-4" d="M66.58,156.79c.05,0,.1,0,.13.01v8.36s-.08.01-.13.01c-.02,0-.05,0-.07,0v-8.39s.04,0,.07,0M66.58,156.29c-.29,0-.57.11-.57.28v8.83c0,.17.28.28.57.28s.58-.1.63-.36v-8.68c-.05-.25-.35-.36-.63-.36h0Z"/>
            </g>
            <g>
              <path d="M53.29,170.32s-.06-.12-.08-.18c-.06-.24,0-.49.06-.53h8.78s.07.3,0,.53c-.01.06-.05.15-.12.18h-8.65Z"/>
              <path class="cls-4" d="M61.83,169.87c0,.07,0,.14-.01.2h-8.37c-.01-.05-.02-.13-.01-.2h8.39M62.05,169.37h-8.83c-.34,0-.43,1.09.07,1.2h8.68c.51-.11.42-1.2.07-1.2h0Z"/>
            </g>
            <g>
              <path d="M64.28,170.32c-.08-.05-.14-.13-.17-.23-.04-.12-.03-.25.03-.35.06-.08.21-.13.47-.13.1,0,.2,0,.3.01.11,0,.22.01.32.01.27,0,.62-.04.84-.31.24-.3.21-.72.19-1.09-.02-.29-.04-.59.08-.71.05-.04.15-.07.25-.07.15,0,.29.07.37.2v1.66c-.29.48-.53.72-1.02,1.02h-1.66Z"/>
              <path class="cls-4" d="M66.59,167.69s.08.01.12.04v1.5c-.24.39-.45.6-.84.84h-1.5s-.02-.04-.03-.06c-.01-.04-.01-.08,0-.12.03-.01.1-.04.27-.04.09,0,.19,0,.29.01.11,0,.23.01.34.01.19,0,.71,0,1.03-.41.29-.37.27-.86.24-1.26,0-.16-.02-.41,0-.5.02,0,.05-.01.07-.01M66.59,167.19c-.15,0-.3.05-.43.15-.38.4.07,1.36-.28,1.82-.14.18-.38.22-.64.22-.2,0-.42-.02-.62-.02-.28,0-.54.04-.69.26-.19.34-.06.78.29.96h1.8c.58-.34.86-.62,1.2-1.2v-1.8c-.12-.24-.37-.38-.62-.38h0Z"/>
            </g>
            <g>
              <path d="M66.59,154.49c-.17,0-.29-.05-.31-.07-.06-.08-.04-.36-.02-.59.04-.52.1-1.31-.73-1.46-.09-.02-.18-.02-.28-.02-.12,0-.24,0-.35.02-.11,0-.21.02-.32.02-.24,0-.37-.05-.45-.16-.04-.07-.05-.2-.01-.32.03-.1.09-.18.17-.24h1.66c.48.29.73.53,1.02,1.02v1.73s-.18.08-.37.08Z"/>
              <path class="cls-4" d="M65.88,151.91c.39.24.6.45.84.84v1.48s-.07.01-.12.01c-.04,0-.07,0-.1,0,0-.1,0-.27.01-.39.04-.5.11-1.54-.93-1.72-.1-.02-.21-.03-.32-.03-.12,0-.25,0-.37.02-.1,0-.2.02-.3.02-.14,0-.2-.02-.23-.04-.01-.04-.01-.08,0-.12,0-.02.01-.04.03-.06h1.5M66.01,151.41h-1.8c-.35.17-.48.62-.29.96.16.21.4.26.66.26.22,0,.45-.04.67-.04.08,0,.16,0,.23.02.96.17.28,1.52.59,1.95.08.11.29.17.51.17.27,0,.56-.1.62-.33v-1.8c-.34-.58-.62-.86-1.2-1.2h0Z"/>
            </g>
            <g>
              <path d="M49.32,170.32c-.48-.29-.73-.53-1.02-1.02v-1.66c.08-.12.22-.19.37-.19.08,0,.15.02.21.05.14.1.14.37.12.77-.02.41-.05.88.3,1.16.24.19.52.21.71.21.13,0,.27-.01.4-.03.11-.01.22-.02.32-.02.2,0,.36,0,.37.46,0,.18,0,.2-.13.26h-1.67Z"/>
              <path class="cls-4" d="M48.68,167.7s.04,0,.05,0c.05.09.03.4.02.56-.02.43-.06,1.01.4,1.37.23.18.51.26.87.26.14,0,.29-.01.43-.03.1-.01.2-.02.3-.02.04,0,.07,0,.08,0,0,0,0,0,0,0,0,.03.02.09.03.21,0,0,0,0,0,.01h-1.47c-.39-.24-.6-.45-.84-.84v-1.5s.08-.04.12-.04M48.68,167.2c-.25,0-.5.14-.62.38v1.8c.34.58.62.86,1.2,1.2h1.8c.26-.14.32-.21.32-.52,0-.59-.27-.71-.62-.71-.22,0-.48.05-.73.05-.2,0-.4-.03-.56-.16-.51-.4.11-1.55-.45-1.95-.1-.06-.22-.08-.33-.08h0Z"/>
            </g>
            <g>
              <path d="M48.67,154.49c-.19,0-.36-.06-.38-.15v-1.66c.3-.48.54-.73,1.02-1.02h1.67c.14.08.19.24.06.71,0-.01-.01-.01-.03-.01-.04,0-.14.01-.31.01-.12,0-.25,0-.37-.01-.12,0-.24-.01-.35-.01-.1,0-.19,0-.26.02-.82.15-.76.94-.73,1.46.02.22.04.5-.03.59-.02.02-.14.07-.31.07Z"/>
              <path class="cls-4" d="M50.88,151.91s0,.1-.02.21c-.04,0-.09,0-.15,0-.11,0-.24,0-.35-.01-.13,0-.25-.01-.36-.01-.12,0-.22,0-.3.02-1.04.19-.97,1.23-.93,1.72,0,.12.02.3.02.38-.03,0-.07,0-.11,0-.05,0-.09,0-.12-.01v-1.48c.24-.39.45-.6.84-.84h1.49M51.05,151.41h-1.8c-.58.34-.86.62-1.2,1.2v1.8c.06.24.35.33.62.33.22,0,.43-.06.51-.17.31-.43-.36-1.78.59-1.95.06-.01.13-.01.22-.01.21,0,.47.02.71.02.26,0,.49-.03.57-.15.11-.38.22-.86-.23-1.06h0Z"/>
            </g>
            <path class="cls-3" d="M57.78,164.28l-.31.09c-.86,2.05-3.11,5.35-5.6,3.35-.48-.38-1.69-2.06-1.06-2.56.78-.63,1.11.7,1.44,1.14,2.09,2.74,3.81-2.32,4.72-3.51.48-.63.84-.64,1.33,0,.76.99,2.13,4.99,3.94,4.22.99-.43,1.18-2.14,1.91-2.15,1.42-.02-.24,2.52-.92,2.98-2.51,1.71-4.64-1.53-5.44-3.57Z"/>
            <path class="cls-3" d="M60.92,153.65l-.08-.3c-2.33.74-4.17.69-6.51,0-.09.32.33.46.55.57.49.24,1.67.37,1.29,1.19-.29.61-.89.29-1.39.11-1.01-.36-2.28-1.39-1.51-2.55s3.1.08,4.27.09c1.27.02,3.84-1.42,4.53.11s-2.08,2.95-2.81,2.5c-1.17-.72,1.15-1.53,1.65-1.73Z"/>
            <path class="cls-3" d="M57.14,154.73c2.48-.57,2.18,2.39,1.97,3.91-.17,1.28-1.2,5.19-2.45,2.19-.38-.92-.76-3.42-.66-4.4.07-.67.41-1.54,1.14-1.71ZM57.93,158.67c.09-.8-.07-1.73,0-2.54l-.37-.22-.23.22v2.54c0,.14.28.54.15.82.24.33.43-.67.45-.82Z"/>
            <path class="cls-3" d="M64.62,159.22c.49-.04.68.68.64,1.08-.18,1.98-2.58,2.15-4.11,2.04-.76-.06-2.66-.18-2.31-1.25.19-.56,2.2.04,2.75.06.69.03,1.93,0,2.31-.7.24-.43.05-1.18.72-1.23Z"/>
            <path class="cls-3" d="M50.55,159.22c.7-.13.61.86.82,1.23.38.7,1.62.72,2.31.7.55-.02,2.56-.62,2.75-.06.36,1.07-1.55,1.19-2.31,1.25-1.51.11-3.78-.03-4.08-1.91-.07-.43,0-1.11.51-1.21Z"/>
            <path class="cls-3" d="M64.32,162.21c1.27-.38.93,1.46.05,2.15-1.05.81-3.41.6-4.58.08-.75-.33-.66-1.12.02-1.21.96-.12,2.3.88,3.6.32.69-.3.34-1.16.91-1.34Z"/>
            <path class="cls-3" d="M50.39,162.2c.99-.33.85.7,1.11,1.09.69,1.04,3.14-.17,3.95-.07.68.09.76.88.02,1.21-1.33.59-4.53.88-5.21-.8-.14-.34-.28-1.31.13-1.44Z"/>
            <path class="cls-3" d="M51.61,156.69c.37.37-.15,1.03.23,1.42,1.21.82,2.6.27,3.91.62l.02.92c-.18.27-2.58.2-2.99.13-1.56-.28-3.17-1.67-1.88-3.21.2-.11.55-.03.71.12Z"/>
            <path class="cls-3" d="M59.45,158.76c1.13-.44,2.43.13,3.53-.44s.23-1.19.68-1.64c.85-.85,1.91,1.19.4,2.42-.71.57-2.04.77-2.93.78s-2.03.07-1.67-1.12Z"/>
            <path class="cls-3" d="M52.35,153.97c.35-.1.63.06.77.39.22.8-1.18,1.28.32,1.77.84.28,2.13-.07,2.41.75.12,1.3-3.31.52-3.96-.24-.61-.71-.37-2.43.47-2.66Z"/>
            <path class="cls-3" d="M62.53,153.97c.99-.28,1.63,1.76.85,2.66-.65.76-4.08,1.55-3.96.24.24-.97,2.65-.29,3.09-1.13.17-.33-.96-1.5.02-1.78Z"/>
          </g>
        </g>
        <g id="XgBWmw">
          <g>
            <path class="cls-6" d="M107.44,156.85v1.74s0,.04,0,.06c-.38,1.47-1.08,2.81-2.03,4-.35.44-2.03,2.48-2.43,1.1-.25-.87.8-1.41,1.23-2,1.3-1.75,2.27-3.5,1.4-5.72-1.06-2.69-5.15-3-6.53-.46-.5.93-.22,2.55-1.64,2.08-.02,0-.04-.01-.05-.02-.3-.22-.45-1.49-.69-1.96-1.81-3.6-8.14-1.72-6.69,3.4.1.35.64,1.63.89,1.81.27.2,1.62.23,1.88.07.69-.42.79-3.15,2.29-2.77.25.06,1.18,2.33,1.59,3.34.07.17.29.18.39.03l.95-1.62s.03-.04.04-.05c1.04-.94,1.47,1.01,1.65,1.13.2.12,1.29-.03,1.69.03,1.06.17,1.03,1.36.02,1.49-.71.1-2.04.14-2.71-.28-.12-.07-.27-.01-.31.12-1.76,4.88-2.86-.14-3.49-1.37-.08-.15-.29-.16-.38-.01l-.87,1.44c-.03.06-.09.09-.15.1-.73.09-4.35.05-4.75-.06-.19-.05-.29-.18-.4-.33-.03-.04-.04-.08-.04-.13v-.4c0-.08.05-.16.12-.19l.61-.31c.1-.05.14-.17.1-.27l-.82-2.17s-.01-.05-.01-.08v-1.69s.01-.08.04-.12c.23-.37.22-.83.39-1.25,1.44-3.7,6.73-4.38,8.96-1.08.03.04.07.07.11.08h0c.09.03.19,0,.24-.09,1.6-2.38,5.16-2.79,7.39-1.06,1.17.91,1.6,2.03,2.01,3.41,0,.02,0,.04,0,.06Z"/>
            <path class="cls-6" d="M92.66,164.03c.12-.12.45-.2.63-.18.76.07,3.71,3.25,4.52,3.88.4.07,2.55-2.93,3.5-2.46,1.34.66-.85,2.05-1.28,2.47-.37.37-1.67,1.87-1.98,1.93-.72.14-1.77-1.39-2.35-1.93-.68-.63-2.71-2.11-3.08-2.76-.17-.29-.21-.69.05-.94Z"/>
          </g>
        </g>
        <g id="tCWvQp">
          <path class="cls-5" d="M136.08,151.4c3.35-.45,6.54,2.01,6.87,5.37.21,2.07.19,6.24,0,8.34-.63,7.36-11.3,7.29-12,.16-.21-2.07-.19-6.24,0-8.34.23-2.71,2.41-5.16,5.13-5.53ZM140.16,158.4c-.11.1-.16.72-.35.91-.04.35,1.79,1.55,2.4.55.15-.24.12-2.32.09-2.76-.53-6.68-10.05-6.7-10.67-.16-.22,2.39-.23,4.43,2.5,2.5-.37-.2-.35-.87-.54-1.05-.3-.3-1.2-.11-1.3-1.14-.11-1.16,1.03-1.03,1.3-1.26.05-.04.11-.55.29-.8,1.28-1.86,4.8-2.09,5.99-.17.22.35.24.94.28.97.16.16,1.17-.15,1.31.95.17,1.34-.94,1.09-1.29,1.44ZM136.41,154.4c-.73.09-1.78.55-2.04,1.3-.28.84-.23,2.89.41,3.57,1.46,1.56,4.49.92,4.82-1.18.37-2.36-.66-4.02-3.2-3.69ZM140.62,160.86c-1.29-1.55-2.13-.08-3.42,0s-1.94-.72-2.49-.77c-.44-.03-.98.37-1.42.43-.1.38.07.27.21.38.3.23,3.21,1.9,3.4,1.91l3.72-1.96ZM131.62,160.69v4.75s.19.43.25.41l4.42-2.58-4.67-2.58ZM142.28,160.69l-10.32,5.91c.31.5,1.02,2.16,1.69,2.06l8.62-4.81v-3.17ZM134.29,169.03c-.38.5,1.93.99,2.24,1,3.21.18,5.8-2.3,5.75-5.5l-8,4.5Z"/>
        </g>
        <g id="df5P3t">
          <g>
            <g>
              <path d="M179.06,169.68c-1.42-.49-2-1.33-2.13-3.18-.02-.3,0-.71.02-1.14.07-1.55.17-3.66-1.42-4.03-.27-.06-.53-.09-.77-.09-.65,0-1.19.23-1.56.67-.53.63-.72,1.67-.51,2.87l.03.19.19.02c.73.07,1.55.84,1.68,1.59.16.87,0,1.62-.47,2.18-.43.52-1.09.82-1.81.82-.85,0-1.92-.48-2.38-1.83v-1.04c.33-.73.92-1.71,1.85-1.71h.3s-.06-.3-.06-.3c-.22-1.13.05-2.29.72-3.09.51-.62,1.21-.96,1.97-.96.43,0,.88.11,1.33.32,1.65.77,1.56,2.51,1.48,4.18-.06,1.19-.12,2.31.43,3.09.39.56.97.87,1.63.87s1.37-.34,1.79-.88c.39-.5.52-1.11.38-1.72-.09-.35-1.31-3.18-1.54-3.49-.18-.24-.44-.45-.7-.65-.25-.2-.51-.4-.68-.63-.54-.73-1.91-5.18-2.04-6.18-.08-.64-.06-1.8,1.01-2.35.23-.12.7-.17.98-.2.25-.03.33-.04.4-.1.08-.07.1-.15.14-.3.02-.07.06-.23.1-.32h.31c.2.39.31,1.24.08,1.69-.1.2-.23.22-.33.22-.05,0-.1,0-.15-.02,0,0,0,0,0,0,.03,0,.02-.08,0-.12-.03-.12-.05-.24-.13-.34l-.05-.07-.09-.02c-.14-.03-.27-.05-.41-.05-.42,0-.79.17-1.05.46-.28.33-.41.79-.34,1.27.14.98,1.42,5.19,1.91,5.93.63.95,1.69,1.52,2.84,1.52,1.25,0,2.36-.65,2.96-1.73.44-.8,1.53-4.54,1.67-5.43.15-1.01-.08-1.65-.68-1.91-.19-.08-.36-.12-.52-.12-.37,0-.58.22-.73.38-.15.15-.23.23-.38.23-.03,0-.07,0-.11-.01-.14-.37-.12-1.61.06-1.89h.28c.19.57.43.68.87.71.14,0,.29.02.48.08.68.21,1.06.8,1.38,1.41v1c-.36.76-.58,1.7-.82,2.68-.37,1.52-.75,3.08-1.62,3.98-.12.12-.29.23-.46.33-.23.14-.47.29-.6.5-.84,1.29-1.37,3.62-1.56,4.56-.23,1.15-1.21,1.8-2.01,2.14h-1.21ZM172.32,165.95c.41,0,.75.14.98.4.21.24.32.56.32.9h.5c0-.47-.16-.91-.45-1.24-.33-.37-.8-.57-1.35-.57v.5ZM180.89,163.25l1.2,2.39.98-2.39h-2.17Z"/>
              <path class="cls-4" d="M179.61,152.59c.12.37.17.97,0,1.28,0,.02-.02.03-.03.05-.03-.11-.07-.23-.15-.34l-.11-.14-.17-.04c-.16-.04-.31-.06-.46-.06-.49,0-.93.2-1.24.55-.33.38-.48.92-.4,1.47.13.91,1.4,5.2,1.95,6.03.61.92,1.59,1.5,2.68,1.61h-.39s-.8,0-.8,0c-.03-.06-.06-.1-.08-.13-.2-.27-.48-.49-.74-.7-.24-.19-.48-.38-.63-.58-.47-.64-1.86-5-1.99-6.06-.07-.58-.05-1.62.88-2.09.19-.1.66-.15.89-.18.28-.03.4-.05.54-.16.14-.12.18-.26.22-.43,0-.02.01-.05.02-.09M184.48,152.64c.23.47.53.58.98.61.13,0,.26.02.42.07.52.16.85.59,1.21,1.23v.88c-.08.17-.15.35-.22.54.03-.12.05-.23.06-.31.17-1.14-.11-1.87-.83-2.17-.22-.09-.42-.14-.62-.14-.47,0-.73.27-.91.45-.05.05-.09.09-.11.11-.05-.34-.05-.92.01-1.26M186.15,158.61c-.33,1.32-.7,2.61-1.43,3.36-.1.1-.26.2-.41.3-.03.02-.06.04-.09.06.41-.3.76-.7,1.02-1.16.22-.4.58-1.45.92-2.55M174.73,160.9c.39,0,.81.1,1.22.3,1.5.7,1.42,2.28,1.33,3.94-.06,1.23-.12,2.4.47,3.25.44.63,1.09.97,1.84.97s1.52-.37,1.99-.97c.44-.56.59-1.25.42-1.93-.06-.27-.61-1.57-1.06-2.54l.67,1.34.49.98.42-1.02.63-1.54.28-.69h-.74s-.26,0-.26,0c.57-.06,1.1-.24,1.57-.53-.14.11-.27.22-.37.38-.87,1.33-1.4,3.69-1.6,4.64-.21,1.02-1.08,1.61-1.81,1.94h-1.07c-1.35-.47-1.85-1.23-1.97-2.95-.02-.28,0-.68.02-1.11.08-1.63.18-3.87-1.62-4.28-.29-.07-.57-.1-.82-.1-.72,0-1.33.26-1.75.76-.58.68-.78,1.8-.57,3.08l.06.38h0s-.08,0-.12,0l-.1-.54c-.2-1.06.05-2.14.67-2.89.46-.56,1.09-.87,1.78-.87M172.58,165.21l.31.03c.62.06,1.34.74,1.46,1.39.15.79,0,1.47-.41,1.97-.39.46-.97.73-1.61.73-.97,0-1.75-.59-2.12-1.58v-.93c.31-.73.83-1.56,1.59-1.56h.52s0,.95,0,.95c.34,0,.6.11.79.32.17.19.26.46.26.74h0c0,.39-.21,1.06-1.01,1.06v1c1.32,0,2.01-1.03,2.01-2.06,0-.53-.18-1.03-.51-1.4-.23-.26-.64-.57-1.27-.64M184.79,152.05h-.56c-.44.27-.33,2.23-.12,2.36.1.03.18.04.26.04.53,0,.59-.61,1.11-.61.11,0,.25.03.42.1.64.27.61,1.07.53,1.64-.14.91-1.22,4.59-1.64,5.35-.59,1.06-1.66,1.6-2.74,1.6-1,0-2.01-.47-2.63-1.41-.47-.71-1.74-4.9-1.87-5.82-.11-.81.38-1.45,1.14-1.45.11,0,.23.01.35.04.1.13.07.5.25.55.08.02.15.03.22.03.95,0,.8-1.84.39-2.41h-.56c-.19.11-.25.63-.3.68-.05.04-.93.07-1.33.27-1,.51-1.28,1.55-1.15,2.6.13,1.04,1.51,5.52,2.08,6.3.37.5,1.05.83,1.38,1.28.2.27,1.41,3.05,1.5,3.4.31,1.28-.81,2.29-1.92,2.29-.53,0-1.06-.23-1.43-.76-1.24-1.78.99-5.96-2-7.36-.5-.24-.99-.34-1.44-.34-2.02,0-3.35,2.15-2.93,4.35-1.08,0-1.73,1.08-2.09,1.96v1.12c.47,1.37,1.55,2,2.62,2,1.48,0,2.9-1.21,2.52-3.29-.15-.84-1.04-1.72-1.91-1.79-.28-1.64.17-3.25,1.83-3.25.22,0,.45.03.71.09,1.8.41,1.12,3.56,1.21,4.94.12,1.75.64,2.83,2.38,3.42h1.26c1.04-.43,1.97-1.17,2.2-2.34.26-1.29.79-3.34,1.53-4.47.2-.3.72-.48,1.03-.8,1.51-1.54,1.59-4.85,2.51-6.78v-1.12c-.36-.68-.78-1.34-1.56-1.58-.73-.22-.96.18-1.23-.79h0ZM182.7,163.5l-.63,1.54-.77-1.53h1.4ZM173.87,167.26c0-.78-.51-1.56-1.55-1.56,1.04,0,1.55.78,1.55,1.56,0,.78-.51,1.56-1.51,1.56,1,0,1.51-.78,1.51-1.56h0Z"/>
            </g>
            <g>
              <path d="M172.29,167.51c-.13,0-.23-.13-.25-.26-.01-.09.01-.22.21-.28.04-.01.09-.02.12-.02.04,0,.13,0,.18.14.05.14,0,.3-.04.33-.08.05-.15.08-.21.08Z"/>
              <path class="cls-4" d="M172.32,167.22s0,.02,0,.04c0,0,0,0,0,0,0-.01-.02-.03,0-.04M172.37,166.71c-.06,0-.12,0-.19.03-.65.19-.4,1.02.11,1.02.11,0,.23-.04.36-.13.27-.19.24-.92-.28-.92h0Z"/>
            </g>
          </g>
        </g>
      </g>
      <rect class="cls-1" x="240.59" y="54.8" width="125.8" height="140.49" rx="16.64" ry="16.64"/>
      <g>
        <g>
          <path d="M303.49,145.87c-11.48,0-20.82-9.34-20.82-20.82s9.34-20.82,20.82-20.82,20.82,9.34,20.82,20.82-9.34,20.82-20.82,20.82ZM303.49,111.38c-7.53,0-13.66,6.13-13.66,13.66s6.13,13.66,13.66,13.66,13.66-6.13,13.66-13.66-6.13-13.66-13.66-13.66Z"/>
          <path class="cls-4" d="M303.49,104.47c11.34,0,20.57,9.23,20.57,20.57s-9.23,20.57-20.57,20.57-20.57-9.23-20.57-20.57,9.23-20.57,20.57-20.57M303.49,138.95c7.67,0,13.91-6.24,13.91-13.91s-6.24-13.91-13.91-13.91-13.91,6.24-13.91,13.91,6.24,13.91,13.91,13.91M303.49,103.97c-11.62,0-21.07,9.45-21.07,21.07s9.45,21.07,21.07,21.07,21.07-9.45,21.07-21.07-9.45-21.07-21.07-21.07h0ZM303.49,138.45c-7.39,0-13.41-6.02-13.41-13.41s6.02-13.41,13.41-13.41,13.41,6.02,13.41,13.41-6.02,13.41-13.41,13.41h0Z"/>
        </g>
        <g>
          <path d="M303.49,135.7c-5.88,0-10.66-4.78-10.66-10.66s4.78-10.66,10.66-10.66,10.66,4.78,10.66,10.66-4.78,10.66-10.66,10.66ZM303.49,114.67c-5.72,0-10.38,4.65-10.38,10.38s4.65,10.38,10.38,10.38,10.38-4.65,10.38-10.38-4.65-10.38-10.38-10.38Z"/>
          <path class="cls-4" d="M303.49,114.39c-5.88,0-10.66,4.78-10.66,10.66s4.78,10.66,10.66,10.66,10.66-4.78,10.66-10.66-4.78-10.66-10.66-10.66h0ZM303.49,135.42c-5.72,0-10.38-4.65-10.38-10.38s4.65-10.38,10.38-10.38,10.38,4.65,10.38,10.38-4.65,10.38-10.38,10.38h0Z"/>
        </g>
        <g>
          <path d="M303.49,133.6c-4.72,0-8.55-3.84-8.55-8.55s3.84-8.55,8.55-8.55,8.55,3.84,8.55,8.55-3.84,8.55-8.55,8.55ZM303.49,116.77c-4.56,0-8.27,3.71-8.27,8.27s3.71,8.27,8.27,8.27,8.27-3.71,8.27-8.27-3.71-8.27-8.27-8.27Z"/>
          <path class="cls-4" d="M303.49,116.49c-4.72,0-8.55,3.84-8.55,8.55s3.84,8.55,8.55,8.55,8.55-3.84,8.55-8.55-3.84-8.55-8.55-8.55h0ZM303.49,133.32c-4.56,0-8.27-3.71-8.27-8.27s3.71-8.27,8.27-8.27,8.27,3.71,8.27,8.27-3.71,8.27-8.27,8.27h0Z"/>
        </g>
        <g>
          <path d="M303.49,131.35c-3.48,0-6.31-2.83-6.31-6.31s2.83-6.31,6.31-6.31,6.31,2.83,6.31,6.31-2.83,6.31-6.31,6.31ZM303.49,119.01c-3.32,0-6.03,2.7-6.03,6.03s2.7,6.03,6.03,6.03,6.03-2.7,6.03-6.03-2.7-6.03-6.03-6.03Z"/>
          <path class="cls-4" d="M303.49,118.73c-3.48,0-6.31,2.83-6.31,6.31s2.83,6.31,6.31,6.31,6.31-2.83,6.31-6.31-2.83-6.31-6.31-6.31h0ZM303.49,131.07c-3.32,0-6.03-2.7-6.03-6.03s2.7-6.03,6.03-6.03,6.03,2.7,6.03,6.03-2.7,6.03-6.03,6.03h0Z"/>
        </g>
      </g>
    </g>
  </g>
</svg>